<?xml version="1.0" encoding="UTF-8"?>
<svg width="113px" height="144px" viewBox="0 0 113 144" version="1.1" xmlns="http://www.w3.org/2000/svg" xmlns:xlink="http://www.w3.org/1999/xlink">
    <title>Group 35</title>
    <g id="Desktop" stroke="none" stroke-width="1" fill="none" fill-rule="evenodd">
        <g id="1.-Quick-Quote" transform="translate(-1057.000000, -343.000000)">
            <g id="Group-35" transform="translate(1058.000000, 344.000000)">
                <polygon id="Fill-1" fill="#FBB016" points="22 13 22 39.9269039 57.9639065 50 60 22.7205343"></polygon>
                <polygon id="Stroke-2" stroke="#1F180E" stroke-width="0.25" points="22 13 22 39.9269039 57.9639065 50 60 22.7205343"></polygon>
                <polygon id="Fill-3" fill="#FBB016" points="90 11 88.3159327 35.7564265 58 50 60.0214249 22.4475874"></polygon>
                <polygon id="Stroke-4" stroke="#1F180E" points="90 11 88.3159327 35.7564265 58 50 60.0214249 22.4475874"></polygon>
                <polyline id="Stroke-5" stroke="#231F20" points="22 13 59.8907206 2 90 11.2970142"></polyline>
                <g id="Group-34">
                    <path d="M73.938236,42.1911274 C73.938236,42.1911274 82.9591931,15.3688792 57.7686997,9.24402733 C57.7686997,9.24402733 47.8624186,6.82981202 46.4622594,4.73094241" id="Stroke-6" stroke="#231F20"></path>
                    <path d="M34.2155747,42.1911274 C34.2155747,42.1911274 30.9341018,9.71532833 67.9458708,4.07551799" id="Stroke-8" stroke="#231F20"></path>
                    <polygon id="Fill-10" fill="#FBB016" points="66.3110457 74.839027 63.2495292 140.999794 101.249727 113.410823 109.999863 51.9857377"></polygon>
                    <polygon id="Stroke-12" stroke="#1F180E" points="66.3110457 74.839027 63.2495292 140.999794 101.249727 113.410823 109.999863 51.9857377"></polygon>
                    <path d="M70.8983027,6.95966025 C70.8983027,6.95966025 58.0679777,14.6674239 52.469403,6.95966025 C46.8708282,-0.748103448 55.6010305,-2.84628603 54.2098071,4.73094241 C52.8192709,12.3088579 39.7559298,9.3944864 39.7559298,9.3944864 C39.7559298,9.3944864 56.3186379,9.62738879 58.6515493,4.73094241 C60.9837732,-0.165503964 52.5862547,5.31422892 53.0529745,10.3851803 C53.5190068,15.4568188 58.6515493,17.7885908 58.6515493,17.7885908" id="Stroke-14" stroke="#231F20"></path>
                    <polygon id="Stroke-16" stroke="#231F20" points="20.7719841 37.7668065 2.20836109 44.4220438 55.3271162 57.7332053 99.8682637 40.187205 88.4057918 35.4432788 57.768631 49.7334549 21.68549 39.5255974 21.68549 37.4198575"></polygon>
                    <polygon id="Stroke-18" stroke="#231F20" points="0 67.9781623 55.3272537 80.721839 98.2496604 57.7332053 99.8684012 40.187205 55.3272537 57.7332053 2.20849856 44.4220438"></polygon>
                    <polygon id="Fill-20" fill="#1F180E" points="21.6854213 66.9786744 31.749796 69.0500629 34.1411332 52.4239927 42.6197606 45.4479135 34.2153684 42.1914022 23.402455 49.7329052"></polygon>
                    <polygon id="Fill-22" fill="#1F180E" points="87.2958375 63.5997348 85.0000437 99.2125024 94.2498928 93.7155938 95.6830455 59.1079477"></polygon>
                    <polygon id="Fill-24" fill="#FBB016" points="7.78191584 70.2993541 6.00026995 125.859971 63.250079 141 66.3109082 74.8392331 55.3268413 80.7215642"></polygon>
                    <polygon id="Stroke-26" stroke="#1F180E" points="7.78191584 70.2993541 6.00026995 125.859971 63.250079 141 66.3109082 74.8392331 55.3268413 80.7215642"></polygon>
                    <polygon id="Fill-28" fill="#FBB016" points="98.9877512 49.7331113 110 51.9858752 98.2495229 57.7328618"></polygon>
                    <polygon id="Stroke-30" stroke="#1F180E" points="98.9877512 49.7331113 110 51.9858752 98.2495229 57.7328618"></polygon>
                    <polygon id="Fill-32" fill="#1F180E" points="37.1459422 93.4529431 51.6005069 95.7015847 49.3899462 126.346455 33.6397016 122.348641"></polygon>
                </g>
            </g>
        </g>
    </g>
</svg>