<?xml version="1.0" encoding="UTF-8"?>
<svg width="344px" height="156px" viewBox="0 0 344 156" version="1.1" xmlns="http://www.w3.org/2000/svg" xmlns:xlink="http://www.w3.org/1999/xlink">
    <title>Stroke 1</title>
    <g id="Desktop" stroke="none" stroke-width="1" fill="none" fill-rule="evenodd">
        <g id="2.-Full-Quote" transform="translate(-768.000000, -352.000000)" stroke="#072A47">
            <path d="M822.347551,410.623766 C819.725551,411.691766 814.943551,408.564766 812.455551,408.360766 C795.189551,406.937766 766.961551,423.417766 769.116551,443.467766 C770.825551,459.368766 787.807551,462.233766 800.666551,461.776766 C801.932551,461.731766 805.768551,460.899766 806.804551,461.555766 C808.056551,462.349766 807.886551,465.458766 808.345551,467.053766 C809.581551,471.347766 812.079551,475.143766 815.144551,478.355766 C819.259551,482.668766 824.539551,485.704766 830.069551,487.826766 C841.695551,492.287766 854.710551,493.185766 867.038551,492.261766 C869.467551,492.079766 871.890551,491.815766 874.300551,491.452766 C881.202551,490.415766 888.528551,489.651766 894.541551,485.790766 C895.323551,485.288766 897.690551,482.704766 898.519551,482.780766 C899.622551,482.881766 900.865551,486.087766 901.384551,486.977766 C903.284551,490.233766 905.218551,493.457766 907.973551,496.077766 C912.045551,499.949766 916.931551,502.979766 922.209551,504.906766 C934.040551,509.225766 946.882551,506.824766 956.322551,498.482766 C957.121551,497.776766 958.840551,495.255766 959.780551,495.017766 C961.046551,494.698766 962.541551,496.592766 963.670551,497.342766 C966.287551,499.082766 969.248551,500.294766 972.375551,500.692766 C978.843551,501.514766 985.068551,498.758766 989.927551,494.644766 C992.629551,492.373766 1001.37355,499.365766 1004.15455,500.364766 C1010.83755,502.766766 1018.79055,502.292766 1025.32055,499.670766 C1031.90155,497.028766 1037.27055,491.904766 1040.85455,485.709766 C1042.11055,483.538766 1041.76255,483.094766 1044.04355,483.467766 C1045.47455,483.701766 1047.06055,484.703766 1048.45555,485.172766 C1051.60555,486.232766 1054.85655,487.005766 1058.15055,487.446766 C1071.16455,489.187766 1084.89755,485.278766 1091.96355,473.503766 C1092.45555,472.682766 1096.36855,471.639766 1097.28355,471.105766 C1101.19955,468.821766 1104.59555,465.617766 1106.86155,461.671766 C1112.22855,452.323766 1111.48355,439.887766 1106.10455,430.562766 C1103.36755,425.817766 1099.35755,421.756766 1094.35155,419.438766 C1090.06255,417.452766 1080.28755,418.789766 1079.42555,412.966766 C1079.22055,411.587766 1079.40355,410.185766 1079.49855,408.794766 C1081.05055,386.094766 1059.61355,370.022766 1039.74255,365.015766 C1033.30455,363.393766 1026.51455,362.854766 1019.94755,363.997766 C1012.27855,365.332766 1007.95155,370.162766 1001.56155,374.097766 C999.587551,375.313766 999.344551,374.276766 997.381551,372.747766 C995.767551,371.490766 994.088551,370.318766 992.467551,369.070766 C988.724551,366.184766 984.731551,363.619766 980.548551,361.418766 C952.141551,346.474766 904.795551,350.070766 890.956551,383.209766 C890.491551,384.324766 889.418551,388.604766 888.251551,389.005766 C886.924551,389.461766 884.881551,387.511766 883.816551,386.934766 C862.374551,375.324766 834.342551,386.028766 824.585551,407.675766 C824.175551,408.585766 823.775551,409.542766 823.027551,410.203766 C822.822551,410.384766 822.594551,410.522766 822.347551,410.623766 Z" id="Stroke-1"></path>
        </g>
    </g>
</svg>