<?xml version="1.0" encoding="UTF-8"?>
<svg width="110px" height="370px" viewBox="0 0 110 370" version="1.1" xmlns="http://www.w3.org/2000/svg" xmlns:xlink="http://www.w3.org/1999/xlink">
    <title>Group 169</title>
    <g id="Desktop" stroke="none" stroke-width="1" fill="none" fill-rule="evenodd">
        <g id="2.-Full-Quote" transform="translate(-272.000000, -473.000000)">
            <g id="Group-169" transform="translate(272.000000, 474.000000)">
                <path d="M66.7741186,20.756836 L65.3072197,29.9793909 C65.3072197,29.9793909 61.006312,43.1245259 57.5635901,44.1126567 C54.1208682,45.0908065 50.6881252,44.1126567 50.6881252,44.1126567 C46.2874285,42.5456209 43.2438627,38.1639092 41.5274912,34.9699508 C40.4198329,32.8938779 39.8709932,31.326842 39.8709932,31.326842 C35.6998112,30.2189377 35.9393049,26.2863765 35.9393049,22.3637963 C35.9393049,18.431235 38.5238411,19.7786862 38.5238411,19.7786862 L38.0248959,15.3570501 C38.8132293,16.1455586 39.7013518,16.6545957 40.5296008,16.9839726 C42.275909,17.6726699 43.8026814,17.5628776 43.8026814,17.5628776 L47.7343696,20.8865906 C57.0746238,19.1598568 66.7741186,20.756836 66.7741186,20.756836 Z" id="Stroke-1" stroke="#231F20"></path>
                <path d="M37.851263,14.1714927 C40.4557569,-2.23746859 51.3587075,0.117077614 51.3587075,0.117077614 C51.3587075,0.117077614 60.0213942,0.23984539 64.321304,3.92687111 C68.6212137,7.61289872 67.3928107,17.320536 67.3928107,17.320536 C62.2247362,13.1823637 56.6255731,13.158409 55.0079928,13.4239068 C53.3894145,13.6894046 44.4084008,17.320536 44.4084008,17.320536 C44.4084008,17.320536 37.5987967,15.7594888 37.851263,14.1714927" id="Fill-3" fill="#FBB016"></path>
                <path d="M37.851263,14.1714927 C40.4557569,-2.23746859 51.3587075,0.117077614 51.3587075,0.117077614 C51.3587075,0.117077614 60.0213942,0.23984539 64.321304,3.92687111 C68.6212137,7.61289872 67.3928107,17.320536 67.3928107,17.320536 C62.2247362,13.1823637 56.6255731,13.158409 55.0079928,13.4239068 C53.3894145,13.6894046 44.4084008,17.320536 44.4084008,17.320536 C44.4084008,17.320536 37.5987967,15.7594888 37.851263,14.1714927 Z" id="Stroke-5" stroke="#1F180E"></path>
                <path d="M55.0074938,2.41153747 C44.5545918,5.16832281 43.8041782,17.56687 43.8041782,17.56687" id="Stroke-7" stroke="#231F20"></path>
                <path d="M67.5548681,10.5424572 C67.5548681,10.5424572 65.0820956,1.387774 55.007394,2.41183691" id="Stroke-9" stroke="#231F20"></path>
                <path d="M56.4675073,1.24823794 C56.4675073,1.57462056 55.5135241,1.83912024 54.3380092,1.83912024 C53.1614964,1.83912024 52.2075131,1.57462056 52.2075131,1.24823794 C52.2075131,0.921855318 53.1614964,0.657355639 54.3380092,0.657355639 C55.5135241,0.657355639 56.4675073,0.921855318 56.4675073,1.24823794 Z" id="Stroke-11" stroke="#231F20"></path>
                <path d="M66.7781102,20.7616269 L70.3864819,20.7616269 C70.3864819,20.7616269 70.8644714,19.639749 67.7520512,17.5666704" id="Stroke-13" stroke="#231F20"></path>
                <path d="M55.2834105,30.3760406 C55.2834105,30.3760406 55.9050963,31.8053369 58.1733012,31.8362784 C60.4415061,31.868218 58.8877907,29.31904 58.8877907,29.31904" id="Stroke-15" stroke="#231F20"></path>
                <path d="M49.4057362,24.967072 C49.4057362,24.967072 50.2160232,26.2955591 51.5551922,26.2865761 C52.7546564,26.2785912 53.8453507,25.1297643 53.8453507,25.1297643" id="Stroke-17" stroke="#231F20"></path>
                <path d="M59.5236465,25.6269239 C59.5236465,25.6269239 60.3339335,26.9554109 61.6731024,26.9464279 C62.8725667,26.938443 63.9632609,25.7896161 63.9632609,25.7896161" id="Stroke-19" stroke="#231F20"></path>
                <path d="M52.0545365,35.6706255 C52.0545365,35.6706255 55.7297669,35.3362579 58.569763,36.0469137" id="Stroke-21" stroke="#231F20"></path>
                <path d="M54.1426222,37.9680797 C54.1426222,37.9680797 55.4787975,38.3862886 56.2312068,37.9680797" id="Stroke-23" stroke="#231F20"></path>
                <path d="M38.0297856,22.7289057 C38.0297856,22.7289057 40.8957268,23.9386174 40.966577,27.4240245" id="Stroke-25" stroke="#231F20"></path>
                <path d="M39.4981813,28.8468332 C39.4981813,28.8468332 37.2469405,25.9303499 39.4981813,24.2944443" id="Stroke-27" stroke="#231F20"></path>
                <path d="M41.9273459,22.9241364 C41.2966792,22.5298821 40.7757804,22.0338205 40.2798289,21.5138041 C39.7978478,20.9818104 39.3428098,20.4248639 38.9985376,19.7651119 C39.6292043,20.158368 40.151101,20.6544297 40.6450567,21.1744461 C41.1260399,21.708436 41.5810779,22.2653825 41.9273459,22.9241364" id="Fill-29" fill="#231F20"></path>
                <path d="M41.9879179,21.5879639 C41.2444895,21.1178531 40.6068375,20.5419425 39.9931349,19.9410791 C39.3944007,19.3272402 38.8196158,18.6874504 38.3526031,17.9418607 C39.0970293,18.4109734 39.7346813,18.986884 40.3463881,19.5887455 C40.9451224,20.2035825 41.5199073,20.8433723 41.9879179,21.5879639" id="Fill-31" fill="#231F20"></path>
                <path d="M42.8746433,20.8414759 C41.9855229,20.2475993 41.2001832,19.5459265 40.4397907,18.819301 C39.6923708,18.0797 38.9698981,17.3141481 38.3522039,16.439802 C39.2423222,17.0336786 40.0276619,17.7343532 40.7870565,18.4619769 C41.5344765,19.202576 42.2559512,19.969126 42.8746433,20.8414759" id="Fill-33" fill="#231F20"></path>
                <path d="M43.5203782,19.9015538 C42.6312578,19.3076772 41.8459181,18.6060044 41.0855256,17.8793789 C40.3381057,17.1397779 39.615633,16.374226 38.9979388,15.4998799 C39.8880571,16.0937566 40.6733968,16.7944312 41.4327914,17.5220548 C42.1802113,18.2626539 42.9016861,19.0292039 43.5203782,19.9015538" id="Fill-35" fill="#231F20"></path>
                <path d="M60.3378252,22.2781583 C60.3378252,22.2781583 63.7665767,21.3838499 65.266406,22.9239368" id="Stroke-37" stroke="#231F20"></path>
                <path d="M54.7237936,22.3491241 C54.7237936,22.3491241 52.5813229,20.4127868 47.8243793,21.9169416" id="Stroke-39" stroke="#231F20"></path>
                <path d="M59.5193555,53.8542298 L59.5093766,53.864211 C59.3397353,54.1436823 55.408047,60.0425242 45.5788265,55.7306804 C45.5488898,55.7107182 45.528932,55.700737 45.4989953,55.6907559 C45.4890164,55.6907559 45.4890164,55.6807748 45.4790375,55.6807748 C45.4790375,55.6807748 45.4690586,55.6807748 45.4590797,55.6707937 C45.4491008,55.6608126 45.419164,55.6508314 45.3792484,55.6308692 C45.2694805,55.5709825 45.0798813,55.4711713 44.8304087,55.3314356 C44.7505775,55.28153 44.6507884,55.2316244 44.5609783,55.1817188 C41.7469273,53.534834 39.7212098,51.5685534 39.5216317,51.3888932 L39.5216317,51.368931 C39.5216317,51.368931 39.5116528,51.368931 39.5116528,51.3589498 C39.5016739,51.3589498 39.5016739,51.3489687 39.5016739,51.3489687 L41.986421,49.1730846 L41.5273914,34.9699508 C43.2437629,38.1639092 46.2873287,42.5456209 50.6880254,44.1126567 C50.6880254,44.1126567 54.1207684,45.0908065 57.5634903,44.1126567 L57.3439544,52.6564954 L58.7908955,53.4450039 L59.5193555,53.8542298 Z" id="Stroke-41" stroke="#231F20"></path>
                <path d="M59.5094764,53.864211 C59.4096874,54.0738145 57.5935268,57.5572253 51.6261422,57.447433 C49.5106145,57.4075085 47.4150446,56.6788868 45.5789263,55.7306804 C55.4081468,60.0425242 59.339835,54.1436823 59.5094764,53.864211 Z" id="Stroke-43" stroke="#231F20"></path>
                <path d="M47.5446706,107.921957 C45.9181092,109.55886 44.5011049,113.261856 44.5011049,113.261856 C39.7112309,113.471459 22.3978323,124.859917 22.3978323,124.859917 C22.1782964,107.163392 18.5858909,80.8631405 16.4104898,74.6548839 C14.2350887,68.4466272 14.7739496,63.9750855 14.7739496,63.9750855 C16.3007219,60.3319767 35.3504498,51.1792897 36.6576862,50.5305169 C37.9649227,49.871763 39.5016739,51.3489687 39.5016739,51.3489687 C39.5016739,51.3489687 39.5016739,51.3589498 39.5116528,51.3589498 L39.5116528,51.3789121 C39.5116528,51.3789121 39.5216317,51.3789121 39.5216317,51.3888932 C39.5316106,51.3988743 39.5316106,51.4088554 39.5415895,51.4288177 C39.5415895,51.4387988 39.5515684,51.4387988 39.5515684,51.4487799 C39.5615473,51.458761 39.5715262,51.458761 39.5715262,51.4787233 C39.5715262,51.4887044 39.5815051,51.5086666 39.591484,51.5286289 C39.8509356,52.1374772 40.7889525,54.4131726 41.776864,58.7050541 C41.7868429,58.7150353 41.7868429,58.7250164 41.7868429,58.7349975 C42.3556405,61.3899754 42.8945013,64.514066 43.4034254,67.8777034 L43.4034254,67.9076468 C43.4134043,67.9475712 43.4134043,67.9974768 43.4233832,68.0473824 C43.4333621,68.1072692 43.443341,68.177137 43.4533199,68.2470048 C44.8503665,79.1064634 47.0058098,101.863417 47.404966,106.025544 C47.4249238,106.245129 47.4349027,106.414808 47.4448816,106.5246 C47.4448816,106.574506 47.4548605,106.624411 47.4548605,106.654355 C47.5147339,107.472806 47.5446706,107.921957 47.5446706,107.921957" id="Fill-45" fill="#FBB016"></path>
                <path d="M47.1037028,107.480791 C45.6308166,109.043835 44.6678524,111.108928 43.8994767,113.096169 C44.1000527,112.943458 44.3006287,112.790747 44.5012047,112.638036 C42.5812635,112.754815 40.6972464,113.689048 38.9858644,114.493526 C36.4502248,115.68627 33.9974102,117.05568 31.5755302,118.463018 C28.3623231,120.330485 25.1890316,122.279798 22.0835966,124.320937 C22.3959363,124.500597 22.7092739,124.680257 23.0216136,124.859917 C22.8509743,112.26075 21.5287695,99.6086819 19.6118221,87.1612272 C18.9871427,83.1049 18.4093641,78.9198164 17.1779673,74.9922457 C16.2569145,72.0567983 15.4566064,69.1622735 15.3518279,66.0671282 C15.3298743,65.423346 15.2799798,64.7176808 15.3877519,64.077891 C15.4007245,64.0010364 15.4376465,63.9161969 15.3737815,64.0938608 C15.2799798,64.3583605 15.4715747,63.9700949 15.505503,63.9331648 C15.688117,63.7365367 15.8378005,63.506971 16.0264018,63.3103429 C17.2767585,62.0117992 18.856419,61.0096947 20.3672251,60.0455186 C22.3161051,58.8008729 24.3268542,57.6510479 26.3525718,56.5361568 C29.6266502,54.7355627 32.9566105,53.0367761 36.3115181,51.3928857 C36.9791067,51.066503 37.4860351,50.8539052 38.2524149,51.2331877 C38.4110795,51.3110405 39.5895881,52.1833904 38.8880711,51.3789121 C38.924993,51.4208328 39.043742,51.7502097 39.070685,51.8200776 C39.0557167,51.7801531 38.9579234,51.6224514 39.0217884,51.7691739 C40.0077041,54.0229108 40.6363751,56.4792644 41.1752359,58.8707407 C42.4515378,64.5330301 43.1131391,70.3111005 43.7527868,76.0722029 C44.8404874,85.8716665 45.7924748,95.6861018 46.7314897,105.501535 C46.8083273,106.307012 46.8662049,107.114484 46.9210889,107.921957 C46.974975,108.71845 48.222338,108.724439 48.1684519,107.921957 C47.5128379,98.2003459 46.3443082,88.4817294 45.2985191,78.7970487 C44.6678524,72.9620859 44.024213,67.143093 42.9474893,61.3720094 C42.376696,58.3167886 41.6741811,55.2685545 40.5854827,52.3520713 C40.3978793,51.8480247 40.2691514,51.3290065 39.9627991,50.9477277 C39.9458349,50.9267673 40.3050755,51.5016799 40.1244573,51.2761065 C40.0845417,51.2271991 40.0985122,51.1034332 40.0506134,51.0445446 C39.9877463,50.9676899 39.9368539,50.9197806 39.8779784,50.8499127 C39.5736218,50.4905924 39.0397504,50.2171097 38.6186407,50.0314609 C37.1976447,49.4046466 36.0820033,50.1163004 34.836636,50.7311374 C33.189119,51.5445987 31.5485871,52.3730316 29.9180342,53.2204287 C25.7179135,55.4023015 21.4599151,57.6360762 17.6070602,60.4018445 C16.4814398,61.2093171 15.0604439,62.1465443 14.3709016,63.3951824 C13.7252665,64.5649697 14.0924902,66.4963164 14.2182244,67.7339753 C14.5116042,70.6245076 15.4176887,73.2784874 16.1890579,76.0542369 C16.707961,77.9217044 17.0831678,79.8310927 17.4384167,81.7354904 C19.7964318,94.3885562 21.1375965,107.358023 21.6495143,120.213706 C21.7113835,121.761778 21.7532949,123.310848 21.7742506,124.859917 C21.7802379,125.312062 22.307124,125.665394 22.7122676,125.398898 C25.6670211,123.456572 28.681648,121.601082 31.732199,119.816457 C34.0962013,118.433074 36.4891426,117.087619 38.952934,115.888887 C40.6333814,115.070435 42.595234,114.002455 44.5012047,113.885676 C44.8015697,113.86771 44.9971562,113.700027 45.1029326,113.427543 C45.7884833,111.652899 46.6726142,109.756487 47.985838,108.363122 C48.5356756,107.779227 47.6555362,106.8949 47.1037028,107.480791" id="Fill-47" fill="#1F180E"></path>
                <path d="M39.5217315,51.3789121 L39.5217315,51.3888932 C39.5217315,51.3789121 39.5117526,51.3789121 39.5117526,51.3789121 L39.5217315,51.3789121 Z" id="Stroke-49" stroke="#231F20"></path>
                <path d="M39.5915838,51.5086666 L39.5915838,51.5286289 C39.5816049,51.5086666 39.571626,51.4887044 39.571626,51.4787233 C39.5816049,51.4887044 39.5816049,51.4986855 39.5915838,51.5086666 Z" id="Stroke-51" stroke="#231F20"></path>
                <path d="M41.7769638,58.7050541 C40.7890523,54.4131726 39.8510353,52.1374772 39.5915838,51.5286289 C40.3599595,52.9858724 41.0983984,55.5110958 41.7769638,58.7050541 Z" id="Stroke-53" stroke="#231F20"></path>
                <path d="M47.4050657,106.025544 C47.0059096,101.863417 44.8504663,79.1064634 43.4534197,68.2470048 C45.5290318,82.2704784 46.965994,100.236494 47.4050657,106.025544 Z" id="Stroke-55" stroke="#231F20"></path>
                <path d="M82.6106394,85.3746067 L81.303403,85.3746067 C81.4131709,84.8356262 79.1280019,82.2205728 79.1280019,82.2205728 L76.8328539,82.3303651 L74.4379169,85.484399 L70.6359545,85.484399 C69.648043,85.484399 69.8675789,88.0994525 69.8675789,88.0994525 L68.4306167,88.1992637 L68.191123,88.2192259 L60.7269027,88.6484141 L59.5194553,53.8542298 C64.0897934,51.618459 80.2157024,59.2440346 80.2157024,59.2440346 L82.6106394,85.3746067 Z" id="Fill-57" fill="#FBB016"></path>
                <path d="M82.6106394,85.3746067 L81.303403,85.3746067 C81.4131709,84.8356262 79.1280019,82.2205728 79.1280019,82.2205728 L76.8328539,82.3303651 L74.4379169,85.484399 L70.6359545,85.484399 C69.648043,85.484399 69.8675789,88.0994525 69.8675789,88.0994525 L68.4306167,88.1992637 L68.191123,88.2192259 L60.7269027,88.6484141 L59.5194553,53.8542298 C64.0897934,51.618459 80.2157024,59.2440346 80.2157024,59.2440346 L82.6106394,85.3746067 Z" id="Stroke-59" stroke="#1F180E"></path>
                <polygon id="Stroke-61" stroke="#231F20" points="68.191123 88.2192259 60.7269027 88.7582064 60.7269027 88.6484141"></polygon>
                <path d="M14.7740493,63.9750855 C5.02466004,65.5920269 2.65965977,77.7091066 2.65965977,77.7091066 C2.65965977,77.7091066 -0.234222416,101.733662 0.0152501864,104.29881 C0.404427446,108.271296 1.37238114,108.071674 1.37238114,108.071674 L3.33822525,108.351145 C4.06668525,97.9907424 20.5518348,101.62387 20.5518348,101.62387" id="Fill-63" fill="#1F180E"></path>
                <path d="M53.3425137,120.897413 L53.1828512,121.067092 C53.1529145,121.087054 53.1329567,121.107016 53.10302,121.13696 C50.5783572,123.702107 28.3254011,146.059816 19.8932271,148.006135" id="Stroke-65" stroke="#231F20"></path>
                <path d="M19.0450203,148.125908 C18.3165603,148.125908 17.5980792,147.826474 16.889577,147.267532" id="Stroke-67" stroke="#231F20"></path>
                <path d="M3.33822525,108.351145 C3.33822525,108.351145 9.44531456,141.478482 16.8795981,147.257551" id="Stroke-69" stroke="#231F20"></path>
                <path d="M47.7044329,107.512731 C47.6445594,107.642485 47.5946649,107.782221 47.5447704,107.921957" id="Stroke-71" stroke="#231F20"></path>
                <path d="M49.979623,103.889584 C52.0252983,101.593927 54.5699189,100.246475 55.9769444,99.6176649" id="Stroke-73" stroke="#231F20"></path>
                <path d="M57.0347082,99.1884768 C57.0047715,99.1984579 56.9648559,99.208439 56.9349192,99.2284013" id="Stroke-75" stroke="#231F20"></path>
                <path d="M75.6952589,104.458508 C76.0644783,107.333071 84.8558928,109.698596 84.8558928,109.698596 C84.8558928,109.698596 82.1216731,111.24567 80.8643312,111.505179 C79.9562509,111.684839 80.5549852,113.281818 80.674732,114.659213 C80.7246265,115.188212 80.7046687,115.677287 80.4951117,116.046588 C79.7566728,117.374077 80.05604,118.262397 80.2057235,119.370301 C80.2855547,120.039036 80.5150695,121.206827 80.674732,122.03526 C80.7844999,122.584222 80.8643312,122.983467 80.8643312,122.983467 C82.6405761,125.41886 87.2109142,123.652202 87.2109142,123.652202 L84.736146,134.112416 L50.4386526,136.388111 L53.3425137,120.897413 L57.0347082,99.1884768 L58.7610586,88.7582064 L60.7269027,88.7582064 L68.191123,88.2192259 L68.4306167,88.1992637 L96.1320545,86.6122656 L91.082729,106.444751 C80.3354493,104.079226 75.6952589,104.458508 75.6952589,104.458508 Z" id="Stroke-77" stroke="#231F20"></path>
                <polygon id="Stroke-79" stroke="#231F20" points="58.7610586 88.7582064 57.0347082 99.1884768 53.3425137 120.897413 50.4386526 136.388111 53.10302 121.156922 53.10302 121.13696 56.9349192 99.2284013"></polygon>
                <polygon id="Stroke-81" stroke="#231F20" points="68.191123 88.2192259 60.7269027 88.7582064 58.7610586 88.7582064 60.7269027 88.6484141"></polygon>
                <path d="M91.9437088,120.615246 C91.9437088,120.615246 88.236546,123.820184 87.2137083,123.656494" id="Stroke-83" stroke="#231F20"></path>
                <path d="M87.6964877,113.444411 C87.6964877,113.444411 83.2279344,114.339717 80.6753307,114.658115" id="Stroke-85" stroke="#231F20"></path>
                <path d="M86.8545675,117.369286 C86.8545675,117.369286 83.7082191,119.689897 80.0818853,118.566023" id="Stroke-87" stroke="#231F20"></path>
                <path d="M85.45323,121.279191 C85.45323,121.279191 83.7159028,122.203442 80.6753307,122.035759" id="Stroke-89" stroke="#231F20"></path>
                <path d="M103.18714,126.227331 C103.107308,124.44071 102.588405,122.634128 101.859945,121.007205 C101.141464,119.400245 100.143574,117.913058 98.9061898,116.665418 C97.4193331,115.16825 95.7129405,114.130213 94.3657884,112.433423 C93.5475183,111.405368 93.9366955,111.764688 94.3657884,109.249446 C94.7948813,106.744185 91.9409147,105.346828 91.9409147,105.346828 C91.7113999,104.228942 92.0905983,103.390528 92.5496279,102.831586 L92.5496279,102.821604" id="Stroke-91" stroke="#231F20"></path>
                <path d="M104.743849,102.442322 C106.659798,105.416696 104.743849,125.408879 104.743849,125.408879 L101.849966,139.282636 C99.3552405,143.624423 97.7785736,140.929521 94.4156829,138.084901 C91.0627712,135.240282 88.6378975,123.662183 88.6378975,123.662183" id="Stroke-93" stroke="#231F20"></path>
                <path d="M68.4306167,88.1992637 L69.8675789,88.0994525 C69.8675789,88.0994525 69.648043,85.484399 70.6359545,85.484399 L74.4379169,85.484399 L76.8328539,82.3303651 L79.1280019,82.2205728 C79.1280019,82.2205728 81.4131709,84.8356262 81.303403,85.3746067 L82.6106394,85.3746067 C82.6106394,85.3746067 84.4567367,84.9953242 84.4966523,85.9634928 L84.5465468,86.9216803 L96.1320545,86.6122656 L68.4306167,88.1992637 Z" id="Stroke-95" stroke="#231F20"></path>
                <path d="M104.743849,102.442322 C102.827899,99.4679481 98.5369703,99.5477971 93.577455,101.943266 C93.577455,101.943266 93.0286153,102.232718 92.5496279,102.821604 L96.1320545,86.6122656 L84.5465468,86.9216803 L84.4966523,85.9634928 C84.4567367,84.9953242 82.6106394,85.3746067 82.6106394,85.3746067 L80.2157024,59.2440346 C91.7513156,62.8572001 102.618342,87.7800566 104.773785,93.1299369 C106.939208,98.4698361 104.743849,102.442322 104.743849,102.442322" id="Fill-97" fill="#1F180E"></path>
                <line x1="92.5496279" y1="102.831586" x2="92.5496279" y2="102.821604" id="Stroke-99" stroke="#231F20"></line>
                <path d="M61.3156581,136.388111 L61.3156581,175.673799 C61.3156581,175.673799 56.6754677,181.722358 42.9943901,177.64008 L44.261711,159.833762 L44.2716899,159.684045 C45.4292427,146.019892 46.7664159,129.331459 46.4969855,128.313385 L53.10302,121.156922 L50.4386526,136.388111 L61.3156581,136.388111 Z" id="Fill-101" fill="#1F180E"></path>
                <path d="M44.261711,159.833762 L42.9943901,177.64008 C42.90458,177.610136 42.8147699,177.590174 42.7249597,177.560231 C42.7249597,177.560231 43.4434408,169.465543 44.261711,159.833762 Z" id="Stroke-103" stroke="#231F20"></path>
                <polygon id="Stroke-105" stroke="#231F20" points="53.3425137 120.897413 50.4386526 136.388111 53.10302 121.156922 53.1828512 121.067092"></polygon>
                <path d="M39.5217315,51.368931 L39.5217315,51.3888932 C39.5217315,51.3789121 39.5117526,51.3789121 39.5117526,51.3789121 L39.5117526,51.3589498 C39.5117526,51.368931 39.5217315,51.368931 39.5217315,51.368931 Z" id="Stroke-107" stroke="#231F20"></path>
                <path d="M60.7269027,88.6484141 L58.7610586,88.7582064 L56.9349192,99.2284013 C56.8550879,99.2483635 56.7852356,99.2783069 56.7153833,99.3082502 C56.635552,99.3381936 56.5656997,99.3681369 56.4958474,99.3980803 C56.4160161,99.4280237 56.3361849,99.457967 56.2563537,99.4978915 C56.1565646,99.537816 56.0667545,99.5677593 55.9769444,99.6176649 C55.8871342,99.6575894 55.7873452,99.6975139 55.697535,99.7474195 C53.0631044,100.855324 51.226986,102.452303 49.979623,103.889584 C49.7600871,104.139112 49.5704879,104.378659 49.3908677,104.608225 C49.2910786,104.737979 49.1912896,104.877715 49.1014794,105.00747 C48.9218592,105.247017 48.7522178,105.486563 48.6125131,105.746073 C48.5326819,105.865846 48.4628296,105.975638 48.4029562,106.085431 C48.3430827,106.16528 48.3031671,106.245129 48.2632515,106.334959 C48.1335257,106.574506 48.0237578,106.784109 47.9439266,106.953788 C47.8640953,107.123467 47.8142008,107.253222 47.7742852,107.343052 C47.7243907,107.452844 47.7044329,107.512731 47.7044329,107.512731 L47.4649392,106.694279 C47.4649392,106.694279 47.4649392,106.674317 47.4549603,106.654355 C47.4549603,106.624411 47.4449814,106.574506 47.4449814,106.5246 C47.4350025,106.414808 47.4250236,106.245129 47.4050657,106.025544 C46.965994,100.236494 45.5290318,82.2704784 43.4534197,68.2470048 C43.4434408,68.177137 43.4334619,68.1072692 43.423483,68.0473824 C43.4135041,67.9974768 43.4135041,67.9475712 43.4035252,67.9076468 L43.4035252,67.8777034 C42.9245378,64.1447645 42.3457614,61.1304663 41.7869427,58.7349975 C41.7869427,58.7250164 41.7869427,58.7150353 41.7769638,58.7050541 C41.0983984,55.5110958 40.3599595,52.9858724 39.5915838,51.5286289 L39.5915838,51.5086666 C40.3200438,52.7263633 43.0941792,54.3732481 44.5610781,55.1817188 C44.6508882,55.2316244 44.7506773,55.28153 44.8305085,55.3314356 C45.0799811,55.4711713 45.2695803,55.5709825 45.3793482,55.6308692 C45.4192638,55.6508314 45.4492005,55.6608126 45.4591794,55.6707937 C45.4691583,55.6807748 45.4791373,55.6807748 45.4791373,55.6807748 C45.4891162,55.6807748 45.4891162,55.6907559 45.4990951,55.6907559 C45.5290318,55.700737 45.5489896,55.7107182 45.5789263,55.7306804 C47.4150446,56.6788868 49.5106145,57.4075085 51.6261422,57.447433 C57.5935268,57.5572253 59.4096874,54.0738145 59.5094764,53.864211 L59.5194553,53.8542298 L60.7269027,88.6484141 Z" id="Fill-109" fill="#1F180E"></path>
                <path d="M39.5915838,51.5086666 L39.5915838,51.5286289 C39.5816049,51.5086666 39.571626,51.4887044 39.571626,51.4787233 C39.5816049,51.4887044 39.5816049,51.4986855 39.5915838,51.5086666 Z" id="Stroke-111" stroke="#231F20"></path>
                <path d="M41.7769638,58.7050541 C40.7890523,54.4131726 39.8510353,52.1374772 39.5915838,51.5286289 C40.3599595,52.9858724 41.0983984,55.5110958 41.7769638,58.7050541 Z" id="Stroke-113" stroke="#231F20"></path>
                <path d="M47.4050657,106.025544 C47.0059096,101.863417 44.8504663,79.1064634 43.4534197,68.2470048 C45.5290318,82.2704784 46.965994,100.236494 47.4050657,106.025544" id="Fill-115" fill="#1F180E"></path>
                <path d="M59.5094764,53.864211 C59.4096874,54.0738145 57.5935268,57.5572253 51.6261422,57.447433 C49.5106145,57.4075085 47.4150446,56.6788868 45.5789263,55.7306804 C55.4081468,60.0425242 59.339835,54.1436823 59.5094764,53.864211 Z" id="Stroke-117" stroke="#231F20"></path>
                <path d="M58.7610586,88.7582064 L57.0347082,99.1884768 C57.0047715,99.1984579 56.9648559,99.208439 56.9349192,99.2284013 L58.7610586,88.7582064 Z" id="Stroke-119" stroke="#231F20"></path>
                <polygon id="Stroke-121" stroke="#231F20" points="60.7269027 88.6484141 60.7269027 88.7582064 58.7610586 88.7582064"></polygon>
                <polygon id="Fill-123" fill="#FBB016" points="83.4688252 134.940849 81.6526646 169.066298 79.1379808 170.224108 69.957389 174.446121 61.3156581 178.428588 61.3156581 136.388111"></polygon>
                <polygon id="Stroke-125" stroke="#1F180E" points="83.4688252 134.940849 81.6526646 169.066298 79.1379808 170.224108 69.957389 174.446121 61.3156581 178.428588 61.3156581 136.388111"></polygon>
                <path d="M46.4969855,128.313385 L44.2716899,159.684045 L44.261711,159.833762 C43.4434408,169.465543 42.7249597,177.560231 42.7249597,177.560231 C42.8147699,177.590174 42.90458,177.610136 42.9943901,177.64008 L42.7249597,181.442887 L30.1914562,177.360608 L15.8617499,172.699425 L10.2735636,170.882862 C12.4090491,166.351433 16.8795981,147.257551 16.8795981,147.257551 L16.889577,147.267532 C17.3486066,147.926286 18.0970244,148.185795 19.0450203,148.125908 C19.1148726,148.125908 19.1947039,148.115927 19.2745351,148.105946 L19.3044718,148.105946 L19.3244296,148.105946 C19.3543663,148.105946 19.3942819,148.105946 19.4242187,148.095965 C19.4541554,148.095965 19.4741132,148.085984 19.5040499,148.076002 C19.6337756,148.05604 19.7635014,148.036078 19.8932271,148.006135 C27.8663715,146.319325 46.4969855,128.313385 46.4969855,128.313385" id="Fill-127" fill="#FBB016"></path>
                <path d="M46.4969855,128.313385 L44.2716899,159.684045 L44.261711,159.833762 C43.4434408,169.465543 42.7249597,177.560231 42.7249597,177.560231 C42.8147699,177.590174 42.90458,177.610136 42.9943901,177.64008 L42.7249597,181.442887 L30.1914562,177.360608 L15.8617499,172.699425 L10.2735636,170.882862 C12.4090491,166.351433 16.8795981,147.257551 16.8795981,147.257551 L16.889577,147.267532 C17.3486066,147.926286 18.0970244,148.185795 19.0450203,148.125908 C19.1148726,148.125908 19.1947039,148.115927 19.2745351,148.105946 L19.3044718,148.105946 L19.3244296,148.105946 C19.3543663,148.105946 19.3942819,148.105946 19.4242187,148.095965 C19.4541554,148.095965 19.4741132,148.085984 19.5040499,148.076002 C19.6337756,148.05604 19.7635014,148.036078 19.8932271,148.006135 C27.8663715,146.319325 46.4969855,128.313385 46.4969855,128.313385 Z" id="Stroke-129" stroke="#1F180E"></path>
                <path d="M19.3244296,148.105946 C19.384303,148.095965 19.4441765,148.085984 19.5040499,148.076002 C19.4741132,148.085984 19.4541554,148.095965 19.4242187,148.095965 C19.3942819,148.105946 19.3543663,148.105946 19.3244296,148.105946 Z" id="Stroke-131" stroke="#231F20"></path>
                <path d="M44.261711,159.833762 L42.9943901,177.64008 C42.90458,177.610136 42.8147699,177.590174 42.7249597,177.560231 C42.7249597,177.560231 43.4434408,169.465543 44.261711,159.833762 Z" id="Stroke-133" stroke="#231F20"></path>
                <path d="M62.7376519,188.384256 C55.324324,195.79923 52.0223047,210.416581 52.0223047,210.416581 L34.5682035,335.828355 C19.5309929,344.513926 11.9061123,334.345161 11.9061123,334.345161 L15.8597541,172.697928" id="Stroke-135" stroke="#231F20"></path>
                <path d="M79.1386793,170.224507 C79.1386793,170.224507 85.2577433,204.889935 86.3125135,233.371061 C86.3125135,233.371061 87.3662857,247.347623 86.3125135,257.368667 C85.2577433,267.389712 87.8941698,329.889489 87.8941698,329.889489 C87.8941698,329.889489 74.9754805,338.327528 68.1199734,334.108508 L61.3193503,331.734998 L52.0220053,214.910979" id="Stroke-137" stroke="#231F20"></path>
                <path d="M18.0260744,191.704376 C18.0260744,191.704376 27.3194278,185.702729 30.1863669,177.363503" id="Stroke-139" stroke="#231F20"></path>
                <path d="M69.9581873,174.451012 C69.9581873,174.451012 69.7007316,182.817187 81.9608132,188.447537" id="Stroke-141" stroke="#231F20"></path>
                <path d="M51.3467329,363.947665 C51.4565008,368 47.7443485,368 45.2695803,368 C42.7948121,368 30.8700217,363.728081 30.8700217,363.728081 C30.8700217,363.728081 30.1914562,361.362555 26.2497891,359.555972 C22.3081219,357.759371 22.088586,360.234689 22.088586,360.234689 L11.9101039,356.292146 L13.7562011,350.782568 C13.7562011,350.782568 21.6095987,357.829239 25.5412869,357.829239 C29.4629962,357.829239 30.5307389,361.532234 33.8337562,361.94146 C37.1367734,362.350686 43.8924915,368.009981 51.3467329,363.947665" id="Fill-143" fill="#231F20"></path>
                <path d="M51.3467329,363.947665 C51.4565008,368 47.7443485,368 45.2695803,368 C42.7948121,368 30.8700217,363.728081 30.8700217,363.728081 C30.8700217,363.728081 30.1914562,361.362555 26.2497891,359.555972 C22.3081219,357.759371 22.088586,360.234689 22.088586,360.234689 L11.9101039,356.292146 L13.7562011,350.782568 C13.7562011,350.782568 21.6095987,357.829239 25.5412869,357.829239 C29.4629962,357.829239 30.5307389,361.532234 33.8337562,361.94146 C37.1367734,362.350686 43.8924915,368.009981 51.3467329,363.947665 Z" id="Stroke-145" stroke="#231F20"></path>
                <path d="M51.3467329,363.947665 C43.8924915,368.009981 37.1367734,362.350686 33.8337562,361.94146 C30.5307389,361.532234 29.4629962,357.829239 25.5412869,357.829239 C21.6095987,357.829239 13.7562011,350.782568 13.7562011,350.782568 C12.7483318,346.161309 15.7819187,337.497697 15.7819187,337.497697 C22.8669406,341.090901 31.6284184,337.497697 31.6284184,337.497697 C31.5984817,342.108975 39.8709932,347.738326 45.718631,352.748849 C51.5762477,357.759371 51.2369649,359.895331 51.3467329,363.947665" id="Fill-147" fill="#FBB016"></path>
                <path d="M51.3467329,363.947665 C43.8924915,368.009981 37.1367734,362.350686 33.8337562,361.94146 C30.5307389,361.532234 29.4629962,357.829239 25.5412869,357.829239 C21.6095987,357.829239 13.7562011,350.782568 13.7562011,350.782568 C12.7483318,346.161309 15.7819187,337.497697 15.7819187,337.497697 C22.8669406,341.090901 31.6284184,337.497697 31.6284184,337.497697 C31.5984817,342.108975 39.8709932,347.738326 45.718631,352.748849 C51.5762477,357.759371 51.2369649,359.895331 51.3467329,363.947665 Z" id="Stroke-149" stroke="#1F180E"></path>
                <path d="M76.2341197,351.770699 C74.5576638,352.090095 73.8691194,353.796866 73.8691194,353.796866 L64.9779159,351.191794 L65.5367345,346.420819 C65.5367345,346.420819 70.1569671,348.846231 76.2341197,351.770699" id="Fill-151" fill="#231F20"></path>
                <path d="M76.2341197,351.770699 C74.5576638,352.090095 73.8691194,353.796866 73.8691194,353.796866 L64.9779159,351.191794 L65.5367345,346.420819 C65.5367345,346.420819 70.1569671,348.846231 76.2341197,351.770699 Z" id="Stroke-153" stroke="#231F20"></path>
                <path d="M103.795853,361.502291 L102.488616,362.799836 C96.0921388,363.887779 82.3212512,356.831127 82.3212512,356.831127 C82.6206183,355.962769 82.5108504,355.194223 82.1116942,354.515507 C90.8232775,358.46803 100.393047,362.230913 103.795853,361.502291" id="Fill-155" fill="#231F20"></path>
                <path d="M103.795853,361.502291 L102.488616,362.799836 C96.0921388,363.887779 82.3212512,356.831127 82.3212512,356.831127 C82.6206183,355.962769 82.5108504,355.194223 82.1116942,354.515507 C90.8232775,358.46803 100.393047,362.230913 103.795853,361.502291 Z" id="Stroke-157" stroke="#231F20"></path>
                <g id="Group-162" transform="translate(65.536734, 331.409214)">
                    <path d="M10.6973852,20.3614848 C4.6202326,17.4370166 1.41808756e-14,15.0116044 1.41808756e-14,15.0116044 L1.47687781,2.31561983 C8.2725115,6.95684062 19.7382723,2.83680492e-14 19.7382723,2.83680492e-14 C21.2750235,8.0946883 33.5989701,14.2530393 39.2370509,15.9897542 C44.8751317,17.7264691 43.6776632,25.8610819 42.3804057,27.9171926 C41.0731693,29.9832844 38.2591183,30.0930767 38.2591183,30.0930767 C34.856312,30.8216985 25.286543,27.0588163 16.5749597,23.1062927" id="Fill-159" fill="#FBB016"></path>
                    <path d="M10.6973852,20.3614848 C4.6202326,17.4370166 1.41808756e-14,15.0116044 1.41808756e-14,15.0116044 L1.47687781,2.31561983 C8.2725115,6.95684062 19.7382723,2.83680492e-14 19.7382723,2.83680492e-14 C21.2750235,8.0946883 33.5989701,14.2530393 39.2370509,15.9897542 C44.8751317,17.7264691 43.6776632,25.8610819 42.3804057,27.9171926 C41.0731693,29.9832844 38.2591183,30.0930767 38.2591183,30.0930767 C34.856312,30.8216985 25.286543,27.0588163 16.5749597,23.1062927" id="Stroke-161" stroke="#1F180E"></path>
                </g>
                <path d="M96.9659915,337.494204 C96.9659915,337.494204 94.3135988,344.830327 86.8573616,338.316648 C86.5679734,338.064126 86.2715999,337.789645 85.9672434,337.494204 C85.9672434,337.494204 79.9409832,335.140656 80.3930275,339.253875 C80.8450719,343.366097 88.4539863,337.941358 89.0557142,333.872056 C89.65844,329.803751 93.7268392,333.872056 91.5424571,335.680634 C89.3570771,337.489213 87.4840368,337.668874 87.4840368,337.668874 C87.4840368,337.668874 84.2967748,340.507504 84.3746103,344.161592 C84.4524457,347.816678 81.5755277,350.072411 81.5755277,350.072411" id="Stroke-163" stroke="#231F20"></path>
                <path d="M42.1356056,344.707859 C42.1356056,344.707859 39.4832129,352.043982 32.0269758,345.530303 C31.7375876,345.277781 31.4412141,345.0033 31.1368576,344.707859 C31.1368576,344.707859 25.1105974,342.354311 25.5626417,346.46753 C26.0146861,350.579752 33.6236005,345.155013 34.2253284,341.08571 C34.8280542,337.017406 38.8964534,341.08571 36.7120713,342.894289 C34.5266913,344.702868 32.653651,344.882528 32.653651,344.882528 C32.653651,344.882528 29.466389,347.721159 29.5442245,351.375247 C29.6220599,355.030333 26.7451419,357.286066 26.7451419,357.286066" id="Stroke-165" stroke="#231F20"></path>
                <path d="M82.1116942,354.515507 C80.0759978,353.587263 78.0901958,352.649037 76.2341197,351.770699" id="Stroke-167" stroke="#231F20"></path>
            </g>
        </g>
    </g>
</svg>