<?xml version="1.0" encoding="utf-8"?>
<!-- Generator: Adobe Illustrator 19.0.0, SVG Export Plug-In . SVG Version: 6.00 Build 0)  -->
<svg version="1.1" id="Layer_1" xmlns="http://www.w3.org/2000/svg" xmlns:xlink="http://www.w3.org/1999/xlink" x="0px" y="0px"
	 viewBox="-343 345 512 512" style="enable-background:new -343 345 512 512;" xml:space="preserve">
<style type="text/css">
	.st0{fill:#FBDA82;}
</style>
<g>
	<title>Locations</title>
	<path class="st0" d="M-205.3,682.2l113.6,121c2.6,2.8,7.1,3,9.9,0.3c0.1-0.1,0.2-0.2,0.3-0.3l113.6-121
		c17.4-18.5,30.2-38.8,38-60.4c8-21.6,11.4-44.7,9.9-67.8c-2.8-42.1-20.7-81.8-50.4-111.7c-64-64.2-167.9-64.4-232.1-0.4
		c-0.1,0.1-0.2,0.2-0.4,0.4c-29.7,29.9-47.7,69.6-50.4,111.7c-1.5,23,1.9,46.1,9.9,67.8C-235.4,643.4-222.6,663.7-205.3,682.2z
		 M-239.3,555c2.5-38.7,19-75.2,46.4-102.7c58.5-58.7,153.6-58.9,212.3-0.3c0.1,0.1,0.2,0.2,0.3,0.3c27.4,27.5,43.8,64,46.4,102.7
		c1.3,21.1-1.8,42.2-9.1,62c-7.2,19.8-19,38.5-35.1,55.6L-86.6,788.2l-108.5-115.5c-16.1-17.1-27.9-35.8-35.1-55.6
		C-237.5,597.3-240.6,576.1-239.3,555z"/>
	<path class="st0" d="M-86.6,671.5c63.9,0,115.9-53.3,115.9-118.8s-52-118.9-115.9-118.9s-115.9,53.3-115.9,118.8
		S-150.5,671.5-86.6,671.5z M-86.6,447.8c56.2,0,101.9,47,101.9,104.8S-30.4,657.5-86.6,657.5s-101.9-47-101.9-104.9
		S-142.8,447.8-86.6,447.8z"/>
	<g>
		<path class="st0" d="M-57.6,589.9c-1,0-1.9-0.6-2.3-1.6l-9.1-25.7h-35l-9.4,25.7c-0.3,1-1.3,1.6-2.3,1.6h-8.2c-0.8,0-1.5-0.4-2-1
			c-0.4-0.7-0.5-1.5-0.3-2.2l33.1-86.9c0.4-0.9,1.3-1.6,2.3-1.6h9c1,0,1.9,0.6,2.3,1.6l32.3,86.9c0.3,0.7,0.2,1.6-0.3,2.2
			c-0.5,0.6-1.2,1-2,1H-57.6z M-73.4,550.8l-13.1-36.2l-13.1,36.2H-73.4z"/>
		<path class="st0" d="M-123.8,587.5l33.1-86.9h9l32.3,86.9h-8.2l-9.7-27.3h-38.4l-9.9,27.3H-123.8z M-103,553.2h33l-16.5-45.7
			L-103,553.2z"/>
	</g>
</g>
</svg>
