<?xml version="1.0" encoding="utf-8"?>
<!-- Generator: Adobe Illustrator 19.0.0, SVG Export Plug-In . SVG Version: 6.00 Build 0)  -->
<svg version="1.1" id="Layer_1" xmlns="http://www.w3.org/2000/svg" xmlns:xlink="http://www.w3.org/1999/xlink" x="0px" y="0px"
	 viewBox="-343 345 512 512" style="enable-background:new -343 345 512 512;" xml:space="preserve">
<style type="text/css">
	.st0{fill:#FBDA82;}
</style>
<g>
	<path class="st0" d="M-205.1,683.5l113.6,121c2.6,2.8,7.1,3,9.9,0.3c0.1-0.1,0.2-0.2,0.3-0.3l113.6-121
		c17.4-18.5,30.2-38.8,38-60.4c8-21.6,11.4-44.7,9.9-67.8c-2.8-42.1-20.7-81.8-50.4-111.7c-64-64.2-167.9-64.4-232.1-0.4
		c-0.1,0.1-0.2,0.2-0.4,0.4c-29.7,29.9-47.7,69.6-50.4,111.7c-1.5,23,1.9,46.1,9.9,67.8C-235.2,644.7-222.4,665-205.1,683.5z
		 M-239.1,556.3c2.5-38.7,19-75.2,46.4-102.7c58.5-58.7,153.6-58.9,212.3-0.3c0.1,0.1,0.2,0.2,0.3,0.3c27.4,27.5,43.8,64,46.4,102.7
		c1.3,21.1-1.8,42.2-9.1,62c-7.2,19.8-19,38.5-35.1,55.6L-86.4,789.5L-194.9,674c-16.1-17.1-27.9-35.8-35.1-55.6
		C-237.3,598.6-240.4,577.4-239.1,556.3z"/>
	<path class="st0" d="M-86.4,672.8c63.9,0,115.9-53.3,115.9-118.8s-52-118.9-115.9-118.9s-115.9,53.3-115.9,118.8
		S-150.3,672.8-86.4,672.8z M-86.4,449.1c56.2,0,101.9,47,101.9,104.8S-30.2,658.8-86.4,658.8s-101.9-47-101.9-104.9
		C-188.3,496-142.6,449.1-86.4,449.1z"/>
	<path class="st0" d="M-112.5,595.4c-1.3,0-2.4-1.1-2.4-2.4v-87.3c0-1.3,1.1-2.4,2.4-2.4H-82c10.6,0.1,18.1,2.2,23,6.5
		c4.9,4.4,7.3,10.4,7.2,17.8c-0.1,6.6-1.7,11.7-4.8,15.1c-1.3,1.4-2.8,2.6-4.3,3.6c8.6,3.8,13.1,11.3,13.1,22
		c-0.1,9.8-3,16.8-8.6,21c-5.5,4-12.7,6-21.5,6h-34.6L-112.5,595.4L-112.5,595.4z M-84.2,583.6c0.6,0,1.2,0,1.7,0
		c7.5,0,13.1-1,16.7-2.9c3.3-1.8,4.9-6,4.9-12.3c-0.1-6.1-1.9-10-5.5-11.9c-3.9-1.8-9.2-2.8-15.7-2.8c-0.4,0-0.8,0-1.1,0H-102v29.9
		H-84.2L-84.2,583.6z M-84.3,541.9c7.5,0,12.8-1.3,15.6-3.9c2.7-2.4,3.9-5.8,3.9-10.3c0.1-4.6-1.3-7.8-4.1-9.6
		c-3.2-1.9-8.9-2.9-17.1-2.9h-16V542L-84.3,541.9L-84.3,541.9z"/>
</g>
</svg>
