<?xml version="1.0" encoding="UTF-8"?>
<svg width="92px" height="94px" viewBox="0 0 92 94" version="1.1" xmlns="http://www.w3.org/2000/svg" xmlns:xlink="http://www.w3.org/1999/xlink">
    <title>Group 42</title>
    <defs>
        <polygon id="path-1" points="0 0 91.4757 0 91.4757 93.7318972 0 93.7318972"></polygon>
    </defs>
    <g id="Desktop" stroke="none" stroke-width="1" fill="none" fill-rule="evenodd">
        <g id="21.-Login" transform="translate(-664.000000, -730.000000)">
            <g id="Group-42" transform="translate(709.737850, 776.865949) scale(-1, 1) translate(-709.737850, -776.865949) translate(664.000000, 730.000000)">
                <g id="Group-3">
                    <mask id="mask-2" fill="white">
                        <use xlink:href="#path-1"></use>
                    </mask>
                    <g id="Clip-2"></g>
                    <path d="M71.092,61.2381972 C68.772,63.1781972 65.453,63.0731972 63.665,60.8771972 C63.114,60.2021972 63.066,59.1081972 62.999,58.1281972 C68.249,60.7051972 69.951,60.5721972 72.214,57.3771972 C74.477,54.1821972 73.964,51.3581972 70.36,48.0011972 C70.807,47.4681972 71.178,47.0401972 71.615,46.5171972 C73.641,47.7541972 74.867,49.4181972 74.905,51.7861972 C74.972,55.4561972 74.03,58.7751972 71.092,61.2381972 L71.092,61.2381972 Z M70.236,49.7701972 C72.49,51.2061972 72.899,53.7641972 71.501,56.3031972 C70.293,58.4991972 67.783,59.4881972 65.824,58.4041972 C65.405,58.1661972 64.939,57.1011972 65.12,56.8351972 C66.746,54.4201972 68.515,52.0991972 70.236,49.7701972 L70.236,49.7701972 Z M54.726,59.6971972 C53.699,59.9161972 52.32,59.6211972 51.417,59.0701972 C48.326,57.1581972 45.369,55.0381972 42.383,52.9741972 C41.042,52.0421972 39.768,51.4911972 38.142,52.4421972 C36.763,53.2501972 35.299,53.9731972 33.777,54.4391972 C31.485,55.1421972 30.021,54.4671972 29.289,52.6801972 C28.357,50.4071972 29.06,48.0771972 31.086,47.0211972 C32.322,46.3751972 33.625,45.8331972 35.27,45.0621972 C31.523,43.4361972 30.316,40.0991972 28.547,37.2461972 C27.472,35.5251972 27.472,33.6131972 28.766,31.9971972 C32.142,27.7931972 33.796,22.9531972 34.291,17.6561972 C34.338,17.1521972 34.452,16.6391972 34.595,16.1441972 C34.7,15.7831972 34.89,15.4411972 35.137,14.8891972 C35.822,15.2891972 36.478,15.6311972 37.105,16.0401972 C40.624,18.3511972 44.39,18.6451972 48.545,18.1511972 C51.74,17.7801972 52.454,15.9351972 52.948,13.4441972 C53.167,12.3791972 53.395,11.3041972 53.813,10.3061972 C53.985,9.8781972 54.612,9.4501972 55.078,9.4021972 C55.411,9.3641972 56.02,9.8971972 56.143,10.2871972 C56.99,13.0441972 57.807,15.8121972 58.492,18.6071972 C58.616,19.1021972 58.178,19.8151972 57.836,20.3101972 C57.341,21.0421972 56.704,21.6791972 55.848,22.6771972 C59.624,22.6301972 60.499,25.7011972 62.191,27.7651972 C64.512,30.5891972 66.585,33.6231972 68.81,36.5331972 C70.93,39.3091972 71.273,42.2951972 69.732,45.3951972 C68.458,47.9721972 67.165,50.5781972 65.586,52.9841972 C63.038,56.8451972 59.12,58.7751972 54.726,59.6971972 L54.726,59.6971972 Z M25.789,10.2011972 C27.254,4.8281972 33.587,2.5941972 37.429,6.3591972 C32.446,5.1521972 28.68,6.4921972 25.789,10.2011972 L25.789,10.2011972 Z M84.738,92.5141972 C84.529,92.4571972 84.31,92.3911972 84.091,92.3151972 C83.873,92.2391972 83.644,92.1531972 83.407,92.0581972 C78.642,90.0901972 77.425,86.5521972 77.977,81.9021972 C78.119,80.7611972 78.31,79.6101972 78.357,78.4601972 C78.481,75.5311972 80.212,73.9901972 82.912,73.0771972 L82.912,76.8431972 C82.38,76.6151972 82.018,76.4631972 81.609,76.2911972 C81.571,76.5201972 81.476,76.7291972 81.533,76.8811972 C81.581,77.0051972 81.628,77.1191972 81.676,77.2331972 C81.705,77.2991972 81.733,77.3661972 81.762,77.4231972 C81.8,77.4991972 81.838,77.5661972 81.876,77.6321972 C81.961,77.7841972 82.047,77.9371972 82.151,78.0701972 C82.208,78.1461972 82.256,78.2121972 82.313,78.2791972 C82.418,78.4021972 82.522,78.5261972 82.636,78.6311972 C82.865,78.8401972 83.112,79.0211972 83.388,79.1731972 C83.483,79.2301972 83.578,79.2771972 83.673,79.3151972 C83.901,79.4201972 84.148,79.4961972 84.415,79.5721972 L84.386,78.4121972 L84.205,71.2611972 L83.207,31.2641972 C83.169,31.8921972 83.131,32.5291972 83.093,33.1661972 C83.064,33.7271972 83.026,34.2881972 82.998,34.8591972 C82.95,35.5911972 82.912,36.3521972 82.865,37.1221972 C80.773,35.0871972 79.242,33.1661972 78.918,30.4371972 C78.728,28.8581972 78.072,27.3471972 77.796,25.7771972 C77.34,23.0861972 76.893,20.3761972 76.664,17.6471972 C76.512,15.7261972 77.891,14.6131972 79.489,13.8911972 C80.554,13.4061972 81.666,13.0251972 82.751,13.1011972 L82.722,11.8841972 C81.743,12.1031972 80.991,12.2461972 80.24,12.4451972 C76.474,13.4441972 75.029,15.4031972 75.362,19.3111972 C75.542,21.4791972 75.818,23.6661972 76.284,25.7871972 C76.598,27.1851972 76.265,27.8981972 74.972,28.4591972 C72.205,29.6381972 70.731,31.6921972 71.092,34.8211972 C71.121,35.1061972 71.054,35.4011972 71.016,35.8291972 C70.702,35.6291972 70.521,35.5631972 70.417,35.4391972 C67.089,31.1881972 63.732,26.9571972 60.489,22.6491972 C60.071,22.1071972 60.023,21.1181972 60.118,20.3671972 C60.641,16.3351972 59.966,12.5311972 57.769,9.1171972 C56.276,6.7971972 54.08,6.7871972 52.397,8.8981972 C51.94,9.4691972 51.522,10.0681972 50.961,10.8381972 C50.2,8.9931972 49.629,7.4341972 48.945,5.9221972 C47.271,2.2891972 45.883,2.0041972 42.916,4.6101972 C42.84,4.6761972 42.687,4.6761972 42.469,4.7431972 C42.003,4.1911972 41.613,3.4591972 41.004,3.0591972 C39.435,2.0321972 37.866,0.644197204 36.107,0.302197204 C31.561,-0.620802796 27.377,0.549197204 24.201,4.1061972 C22.585,5.9031972 20.977,7.8711972 19.988,10.0391972 C17.602,15.2791972 15.472,20.6421972 13.456,26.0441972 C12.371,28.9351972 10.593,31.0551972 7.874,32.3481972 C6.086,33.1951972 4.155,33.7271972 2.32,34.4691972 C1.512,34.8021972 0.77,35.2871972 0,35.7051972 C0.066,35.9051972 0.123,36.1051972 0.19,36.3041972 C3.937,37.4171972 7.807,36.1711972 11.829,36.5611972 C11.449,37.0371972 11.268,37.4171972 10.983,37.5981972 C9.167,38.6721972 7.293,39.6421972 5.525,40.7741972 C4.935,41.1451972 4.583,41.8861972 4.127,42.4661972 C4.745,42.8471972 5.373,43.5891972 5.962,43.5601972 C8.691,43.4271972 11.459,43.3321972 14.102,42.7231972 C16.318,42.2191972 18.362,40.9831972 20.521,40.1651972 C21.006,39.9751972 21.881,39.9651972 22.157,40.2701972 C24.144,42.4001972 26.027,44.6351972 28.014,46.9261972 C26.312,50.6731972 26.54,54.0581972 29.232,55.7321972 C33.501,58.3661972 36.887,56.0081972 39.892,53.2121972 C43.172,55.6461972 46.301,58.1001972 49.582,60.3541972 C51.997,62.0181972 54.679,62.3221972 57.446,61.0291972 C58.254,60.6391972 59.148,60.4301972 60.28,60.0491972 C57.503,64.7181972 57.56,65.9171972 61.221,69.3971972 C66.185,74.1141972 70.598,79.4681972 76.598,82.7481972 C76.531,83.7561972 76.36,84.6411972 76.436,85.4961972 C76.674,88.3971972 77.958,90.5651972 80.773,91.7731972 C82.418,92.4861972 81.657,92.2391972 84.767,93.7321972 L84.738,92.5141972 Z M84.643,88.7771972 C84.614,88.7681972 84.576,88.7581972 84.548,88.7391972 C84.424,88.7011972 84.301,88.6541972 84.186,88.6061972 C84.072,88.5591972 83.949,88.5021972 83.835,88.4351972 C83.559,88.2921972 83.293,88.1211972 83.045,87.9311972 C82.361,87.3891972 81.762,86.7421972 80.982,86.2861972 C81.343,88.3591972 82.817,89.6901972 84.662,90.0041972 L84.671,90.0041972 L84.643,88.7771972 Z M84.557,85.4581972 C84.015,85.2491972 83.502,84.9071972 83.017,84.4501972 C82.437,83.9081972 81.79,83.4331972 81.172,82.9291972 C81.628,83.8041972 82.037,84.5081972 82.465,85.0691972 C82.551,85.1731972 82.636,85.2781972 82.722,85.3821972 C82.865,85.5541972 83.007,85.7061972 83.159,85.8391972 C83.216,85.8961972 83.283,85.9431972 83.35,85.9911972 C83.597,86.2001972 83.863,86.3521972 84.148,86.4761972 C84.234,86.5141972 84.329,86.5521972 84.415,86.5811972 C84.443,86.5901972 84.462,86.6001972 84.491,86.6091972 C84.519,86.6191972 84.557,86.6281972 84.586,86.6381972 L84.586,86.6281972 L84.557,85.4581972 Z M84.462,81.4171972 C84.367,81.3791972 84.282,81.3311972 84.186,81.2841972 C84.091,81.2461972 83.996,81.1981972 83.901,81.1411972 C83.797,81.0941972 83.701,81.0371972 83.597,80.9801972 C83.502,80.9321972 83.397,80.8651972 83.283,80.7991972 C83.197,80.7421972 83.102,80.6851972 83.007,80.6281972 C82.636,80.3991972 82.237,80.1331972 81.8,79.8291972 C81.838,80.0861972 81.895,80.3231972 81.971,80.5611972 C82.009,80.6751972 82.047,80.7891972 82.104,80.8941972 C82.161,81.0271972 82.228,81.1601972 82.304,81.2841972 C82.541,81.6641972 82.836,81.9971972 83.188,82.2731972 C83.283,82.3491972 83.388,82.4251972 83.502,82.4921972 C83.635,82.5771972 83.768,82.6531972 83.911,82.7201972 C84.101,82.8151972 84.291,82.9001972 84.5,82.9571972 L84.462,81.4171972 Z M83.102,27.1851972 C82.389,27.4131972 81.619,27.7741972 80.925,27.9461972 C80.963,28.1741972 81.01,28.4021972 81.048,28.6401972 C81.714,28.5831972 82.38,28.5261972 83.14,28.4591972 L83.102,27.1851972 Z M82.969,21.8311972 L82.95,21.8311972 C82.846,21.8311972 82.751,21.8411972 82.646,21.8501972 C82.541,21.8601972 82.437,21.8691972 82.332,21.8881972 C82.237,21.9071972 82.132,21.9361972 82.028,21.9641972 C81.923,21.9931972 81.819,22.0211972 81.714,22.0691972 C81.628,22.0971972 81.552,22.1351972 81.467,22.1831972 C80.982,22.4111972 80.535,22.7821972 80.154,23.2671972 C80.031,23.4291972 79.917,23.6001972 79.812,23.7901972 C79.708,23.9801972 79.603,24.1801972 79.517,24.3891972 C80.154,23.9711972 80.754,23.6761972 81.296,23.4951972 C81.429,23.4481972 81.562,23.4101972 81.695,23.3721972 C81.828,23.3341972 81.961,23.3051972 82.085,23.2861972 C82.408,23.2291972 82.713,23.2101972 83.007,23.2191972 L82.969,21.8311972 Z M82.893,18.6171972 C82.018,18.5411972 81.086,18.6931972 80.078,19.1781972 C80.345,19.2061972 80.611,19.2451972 80.868,19.2921972 C81.334,19.3681972 81.8,19.4541972 82.237,19.5581972 C82.465,19.6151972 82.693,19.6721972 82.922,19.7391972 L82.893,18.6171972 Z M82.808,15.1461972 C82.77,15.1551972 82.731,15.1651972 82.693,15.1741972 C82.085,15.3081972 81.486,15.6401972 80.896,16.1541972 C81.267,16.1161972 81.619,16.0871972 81.961,16.0871972 C82.161,16.0871972 82.361,16.0971972 82.56,16.1161972 C82.655,16.1251972 82.741,16.1351972 82.827,16.1441972 L82.808,15.1461972 Z M91.471,81.9111972 C91.471,79.5341972 90.491,78.5171972 88.104,78.4221972 C86.906,78.3741972 85.698,78.4121972 84.386,78.4121972 L84.415,79.5721972 C84.472,79.5821972 84.519,79.5911972 84.576,79.6011972 L84.843,79.6481972 C85.033,79.6861972 85.223,79.7051972 85.423,79.7151972 C85.499,79.7151972 85.584,79.7241972 85.66,79.7241972 C85.775,79.7341972 85.889,79.7341972 86.003,79.7341972 C86.202,79.7341972 86.402,79.7241972 86.611,79.7051972 C87.848,79.6101972 89.188,79.2301972 89.987,80.7231972 C89.455,81.0081972 88.97,81.2461972 88.523,81.4261972 C88.371,81.4931972 88.228,81.5501972 88.076,81.5881972 C87.933,81.6451972 87.8,81.6831972 87.657,81.7121972 C87.524,81.7591972 87.382,81.7881972 87.248,81.8071972 C86.83,81.8921972 86.421,81.9111972 86.012,81.8541972 C85.965,81.8541972 85.917,81.8451972 85.87,81.8351972 C85.765,81.8261972 85.66,81.8071972 85.556,81.7781972 C85.47,81.7591972 85.375,81.7401972 85.29,81.7121972 C85.166,81.6831972 85.042,81.6451972 84.919,81.5981972 C84.767,81.5501972 84.614,81.4931972 84.462,81.4171972 C84.367,81.3791972 84.282,81.3311972 84.186,81.2841972 C84.091,81.2461972 83.996,81.1981972 83.901,81.1411972 C83.797,81.0941972 83.701,81.0371972 83.597,80.9801972 C83.502,80.9321972 83.397,80.8651972 83.283,80.7991972 C83.197,80.7421972 83.102,80.6851972 83.007,80.6281972 C82.636,80.3991972 82.237,80.1331972 81.8,79.8291972 C81.838,80.0861972 81.895,80.3231972 81.971,80.5611972 C82.009,80.6751972 82.047,80.7891972 82.104,80.8941972 C82.161,81.0271972 82.228,81.1601972 82.304,81.2841972 C82.541,81.6641972 82.836,81.9971972 83.188,82.2731972 C83.283,82.3491972 83.388,82.4251972 83.502,82.4921972 C83.635,82.5771972 83.768,82.6531972 83.911,82.7201972 C84.101,82.8151972 84.291,82.9001972 84.5,82.9571972 C84.671,83.0151972 84.843,83.0621972 85.033,83.0911972 C85.204,83.1291972 85.394,83.1571972 85.584,83.1671972 C86.145,83.2141972 86.744,83.1671972 87.344,83.0151972 C88.237,82.7861972 89.474,81.5501972 90.016,83.3191972 C90.577,85.1541972 88.894,85.0691972 87.819,85.4391972 C86.935,85.7531972 86.098,85.8291972 85.309,85.6771972 C85.261,85.6681972 85.213,85.6681972 85.175,85.6491972 C84.966,85.6111972 84.757,85.5441972 84.557,85.4581972 C84.015,85.2491972 83.502,84.9071972 83.017,84.4501972 C82.437,83.9081972 81.79,83.4331972 81.172,82.9291972 C81.628,83.8041972 82.037,84.5081972 82.465,85.0691972 C82.551,85.1731972 82.636,85.2781972 82.722,85.3821972 C82.865,85.5541972 83.007,85.7061972 83.159,85.8391972 C83.216,85.8961972 83.283,85.9431972 83.35,85.9911972 C83.597,86.2001972 83.863,86.3521972 84.148,86.4761972 C84.234,86.5141972 84.329,86.5521972 84.415,86.5811972 C84.443,86.5901972 84.462,86.6001972 84.491,86.6091972 C84.519,86.6191972 84.557,86.6281972 84.586,86.6381972 C84.614,86.6381972 84.633,86.6471972 84.662,86.6571972 C84.738,86.6661972 84.824,86.6851972 84.9,86.7041972 C85.014,86.7231972 85.128,86.7421972 85.242,86.7611972 C85.356,86.7711972 85.48,86.7801972 85.603,86.7901972 C85.832,86.7991972 86.079,86.7991972 86.345,86.7901972 C86.621,86.7711972 86.916,86.7421972 87.229,86.7041972 L87.248,86.7041972 C87.572,86.6571972 87.905,86.6091972 88.266,86.5431972 C88.818,86.4471972 89.417,86.3241972 90.082,86.1721972 C90.444,88.4351972 87.306,89.6431972 84.643,88.7771972 C84.614,88.7681972 84.576,88.7581972 84.548,88.7391972 C84.424,88.7011972 84.301,88.6541972 84.186,88.6061972 C84.072,88.5591972 83.949,88.5021972 83.835,88.4351972 C83.559,88.2921972 83.293,88.1211972 83.045,87.9311972 C82.361,87.3891972 81.762,86.7421972 80.982,86.2861972 C81.343,88.3591972 82.817,89.6901972 84.662,90.0041972 L84.671,90.0041972 C86.421,90.2991972 88.304,89.7571972 90.035,89.6051972 C89.978,89.7571972 89.911,89.9091972 89.845,90.0511972 C89.806,90.1561972 89.759,90.2611972 89.702,90.3561972 C89.578,90.6221972 89.436,90.8601972 89.283,91.0781972 C89.112,91.3451972 88.922,91.5731972 88.722,91.7631972 C88.409,92.0771972 88.057,92.3151972 87.667,92.4671972 C87.534,92.5241972 87.391,92.5711972 87.248,92.6101972 C87.134,92.6381972 87.02,92.6671972 86.897,92.6861972 C86.84,92.6951972 86.783,92.7051972 86.716,92.7051972 C86.649,92.7141972 86.592,92.7241972 86.516,92.7241972 C86.44,92.7331972 86.355,92.7331972 86.279,92.7331972 C86.107,92.7331972 85.946,92.7241972 85.775,92.7051972 C85.698,92.7051972 85.613,92.6951972 85.537,92.6761972 C85.28,92.6381972 85.014,92.5911972 84.738,92.5141972 L84.767,93.7321972 C86.041,93.3801972 87.163,93.9981972 88.066,93.5601972 C89.816,92.7331972 91.271,91.5161972 91.385,89.4141972 C91.509,86.9231972 91.471,84.4121972 91.471,81.9111972 L91.471,81.9111972 Z M90.776,28.2501972 C90.548,27.2701972 90.672,26.2051972 90.624,25.1881972 C90.425,21.1271972 90.33,17.0381972 86.83,14.1001972 C84.329,12.0081972 83.968,12.2931972 82.722,11.8841972 L82.751,13.1011972 C83.197,13.1391972 83.644,13.2541972 84.072,13.4721972 C84.139,13.5011972 84.205,13.5391972 84.272,13.5771972 C84.434,13.6621972 84.605,13.7771972 84.767,13.9101972 C86.107,14.9751972 87.277,16.2591972 88.285,17.7421972 C87.134,16.9721972 86.041,16.0871972 84.824,15.4601972 C84.148,15.1171972 83.473,15.0131972 82.808,15.1461972 C82.77,15.1551972 82.731,15.1651972 82.693,15.1741972 C82.085,15.3081972 81.486,15.6401972 80.896,16.1541972 C81.267,16.1161972 81.619,16.0871972 81.961,16.0871972 C82.161,16.0871972 82.361,16.0971972 82.56,16.1161972 C82.655,16.1251972 82.741,16.1351972 82.827,16.1441972 C83.007,16.1631972 83.188,16.1921972 83.359,16.2211972 C83.53,16.2591972 83.701,16.2971972 83.863,16.3441972 C84.072,16.4011972 84.282,16.4681972 84.481,16.5531972 C84.605,16.6011972 84.719,16.6481972 84.833,16.7061972 C85.137,16.8481972 85.423,17.0191972 85.698,17.2091972 C85.984,17.4091972 86.26,17.6281972 86.516,17.8751972 C86.602,17.9511972 86.678,18.0271972 86.754,18.1131972 C87.657,19.0351972 88.409,20.2521972 89.112,21.6981972 C88.684,21.4321972 88.256,21.1461972 87.848,20.8801972 C87.477,20.6421972 87.115,20.4051972 86.764,20.1761972 C86.526,20.0241972 86.298,19.8821972 86.06,19.7481972 C85.908,19.6631972 85.746,19.5681972 85.584,19.4921972 C85.451,19.4161972 85.328,19.3491972 85.194,19.2921972 C85.09,19.2351972 84.976,19.1871972 84.862,19.1401972 C84.709,19.0641972 84.538,19.0071972 84.377,18.9501972 C84.215,18.8931972 84.044,18.8361972 83.882,18.7981972 C83.778,18.7691972 83.673,18.7401972 83.568,18.7221972 C83.35,18.6641972 83.121,18.6361972 82.893,18.6171972 C82.018,18.5411972 81.086,18.6931972 80.078,19.1781972 C80.345,19.2061972 80.611,19.2451972 80.868,19.2921972 C81.334,19.3681972 81.8,19.4541972 82.237,19.5581972 C82.465,19.6151972 82.693,19.6721972 82.922,19.7391972 L83.464,19.9101972 C83.644,19.9671972 83.825,20.0341972 83.996,20.1001972 C84.205,20.1761972 84.415,20.2621972 84.614,20.3481972 C85.29,20.6421972 85.927,20.9941972 86.516,21.4221972 C86.659,21.5171972 86.802,21.6221972 86.944,21.7361972 C87.134,21.8791972 87.315,22.0311972 87.486,22.2021972 C87.6,22.2971972 87.714,22.4021972 87.819,22.5251972 C87.838,22.5351972 87.857,22.5541972 87.876,22.5821972 C87.924,22.6301972 87.981,22.6771972 88.028,22.7341972 C88.675,23.4291972 89.236,24.2371972 89.711,25.1781972 C89.559,25.3781972 89.417,25.5781972 89.274,25.7771972 C87.99,24.7601972 86.706,23.7421972 85.413,22.7341972 C84.652,22.1351972 83.797,21.8311972 82.969,21.8311972 L82.95,21.8311972 C82.846,21.8311972 82.751,21.8411972 82.646,21.8501972 C82.541,21.8601972 82.437,21.8691972 82.332,21.8881972 C82.237,21.9071972 82.132,21.9361972 82.028,21.9641972 C81.923,21.9931972 81.819,22.0211972 81.714,22.0691972 C81.628,22.0971972 81.552,22.1351972 81.467,22.1831972 C80.982,22.4111972 80.535,22.7821972 80.154,23.2671972 C80.031,23.4291972 79.917,23.6001972 79.812,23.7901972 C79.708,23.9801972 79.603,24.1801972 79.517,24.3891972 C80.154,23.9711972 80.754,23.6761972 81.296,23.4951972 C81.429,23.4481972 81.562,23.4101972 81.695,23.3721972 C81.828,23.3341972 81.961,23.3051972 82.085,23.2861972 C82.408,23.2291972 82.713,23.2101972 83.007,23.2191972 C83.112,23.2191972 83.207,23.2191972 83.293,23.2381972 C83.369,23.2481972 83.435,23.2571972 83.502,23.2671972 C83.587,23.2761972 83.654,23.2861972 83.73,23.3141972 C83.806,23.3241972 83.882,23.3431972 83.958,23.3721972 C84.034,23.3811972 84.11,23.4101972 84.177,23.4381972 C84.244,23.4571972 84.31,23.4861972 84.377,23.5141972 C84.396,23.5141972 84.405,23.5141972 84.415,23.5241972 C84.529,23.5621972 84.633,23.6191972 84.738,23.6761972 C84.852,23.7231972 84.947,23.7811972 85.052,23.8471972 L85.061,23.8571972 C85.185,23.9231972 85.299,23.9991972 85.413,24.0751972 C85.546,24.1701972 85.67,24.2561972 85.803,24.3611972 C86.012,24.5131972 86.212,24.6931972 86.402,24.8741972 C86.526,24.9881972 86.649,25.1021972 86.773,25.2261972 C87.619,26.0531972 88.418,26.9851972 89.264,27.7271972 C89.864,28.2501972 89.483,29.8951972 89.55,30.9981972 C87.81,29.5051972 86.497,27.8701972 84.795,27.0801972 C84.548,26.9661972 84.263,26.9471972 83.939,26.9851972 C83.863,26.9951972 83.778,27.0141972 83.692,27.0331972 C83.597,27.0521972 83.502,27.0711972 83.397,27.0991972 C83.302,27.1281972 83.207,27.1561972 83.102,27.1851972 C82.389,27.4131972 81.619,27.7741972 80.925,27.9461972 C80.963,28.1741972 81.01,28.4021972 81.048,28.6401972 C81.714,28.5831972 82.38,28.5261972 83.14,28.4591972 C83.216,28.4501972 83.293,28.4501972 83.369,28.4401972 C83.331,29.1151972 83.293,29.7901972 83.255,30.4661972 C83.236,30.7321972 83.216,30.9981972 83.207,31.2641972 L84.205,71.2611972 C84.234,61.8751972 84.272,52.4801972 84.282,43.0941972 C84.291,38.6631972 84.205,34.2221972 84.224,29.7901972 C84.224,29.2961972 84.586,28.7921972 84.776,28.2971972 C85.223,28.5921972 85.765,28.8201972 86.107,29.2101972 C87.039,30.3231972 87.895,31.5021972 88.77,32.6431972 C90.634,31.5021972 91.214,30.1421972 90.776,28.2501972 L90.776,28.2501972 Z M84.205,71.2611972 C84.205,72.2781972 84.196,73.2861972 84.196,74.3041972 L84.196,78.4121972 L84.386,78.4121972 L84.205,71.2611972 Z" id="Fill-1" fill="#231F20" mask="url(#mask-2)"></path>
                </g>
                <path d="M37.6855,36.7705972 C37.3905,38.9105972 38.2565,40.1085972 40.1955,40.4125972 C40.4625,38.5015972 39.8155,37.5125972 37.6855,36.7705972 M45.3505,28.7545972 C45.1025,28.7065972 44.6175,28.9065972 44.5705,29.0865972 C44.4845,29.3915972 44.5515,29.8955972 44.7605,30.0855972 C45.7495,30.9695972 46.8335,31.7305972 48.4785,31.0365972 C47.9275,29.3535972 46.6815,28.9725972 45.3505,28.7545972" id="Fill-4" fill="#FEFEFE"></path>
                <path d="M40.196,40.4126972 C38.256,40.1086972 37.391,38.9096972 37.686,36.7706972 C39.816,37.5126972 40.462,38.5016972 40.196,40.4126972" id="Fill-6" fill="#FEFEFE"></path>
                <path d="M48.4787,31.0363972 C46.8337,31.7303972 45.7497,30.9693972 44.7607,30.0853972 C44.5517,29.8953972 44.4847,29.3913972 44.5707,29.0873972 C44.6177,28.9063972 45.1027,28.7063972 45.3497,28.7543972 C46.6817,28.9723972 47.9267,29.3533972 48.4787,31.0363972" id="Fill-8" fill="#FEFEFE"></path>
                <path d="M82.8604,37.1176972 C80.7714,35.0856972 79.2424,33.1676972 78.9164,30.4326972 C78.7284,28.8606972 78.0704,27.3496972 77.8004,25.7806972 C77.3364,23.0846972 76.8904,20.3746972 76.6664,17.6506972 C76.5084,15.7296972 77.8964,14.6166972 79.4874,13.8916972 C81.2244,13.0996972 83.0844,12.5796972 84.7674,13.9086972 C86.1114,14.9706972 87.2764,16.2606972 88.2854,17.7456972 C87.1354,16.9746972 86.0444,16.0886972 84.8204,15.4636972 C83.4954,14.7866972 82.1634,15.0536972 80.9004,16.1516972 C85.0144,15.6836972 87.2664,17.8876972 89.1114,21.6966972 C86.0724,19.7926972 83.6004,17.5056972 80.0794,19.1776972 C84.3454,19.7036972 87.7904,21.3496972 89.7064,25.1796972 C89.5634,25.3796972 89.4204,25.5786972 89.2764,25.7786972 C87.9894,24.7636972 86.7054,23.7416972 85.4124,22.7336972 C83.3474,21.1226972 80.6484,21.6736972 79.5164,24.3846972 C84.4884,21.1366972 86.5814,25.3836972 89.2614,27.7256972 C89.8604,28.2496972 89.4804,29.8926972 89.5494,31.0016972 C87.8134,29.5006972 86.4974,27.8676972 84.7904,27.0826972 C83.8364,26.6426972 82.2344,27.6106972 80.9254,27.9436972 C80.9654,28.1756972 81.0054,28.4066972 81.0464,28.6376972 C81.7804,28.5746972 82.5144,28.5116972 83.3714,28.4386972 C83.2064,31.2436972 83.0424,34.0286972 82.8604,37.1176972" id="Fill-10" fill="#FEFEFE"></path>
                <path d="M81.1679,82.9251972 C83.2999,87.0271972 84.5309,87.4181972 90.0819,86.1711972 C90.5169,88.9181972 85.8189,90.1081972 83.0469,87.9311972 C82.3609,87.3921972 81.7599,86.7431972 80.9809,86.2821972 C81.3389,88.3641972 82.8159,89.6901972 84.6589,90.0021972 C86.4119,90.2991972 88.3049,89.7611972 90.0329,89.6001972 C88.8039,92.8131972 86.6969,93.4091972 83.4099,92.0551972 C78.6399,90.0911972 77.4279,86.5491972 77.9789,81.9041972 C78.1159,80.7571972 78.3129,79.6131972 78.3609,78.4631972 C78.4839,75.5261972 80.2119,73.9931972 82.9149,73.0781972 L82.9149,76.8441972 C82.3769,76.6191972 82.0139,76.4671972 81.6059,76.2961972 C81.5739,76.5171972 81.4759,76.7261972 81.5319,76.8801972 C82.3029,78.9971972 83.9649,79.9061972 86.6079,79.7041972 C87.8489,79.6091972 89.1909,79.2331972 89.9849,80.7201972 C86.7309,82.4701972 85.3589,82.3141972 81.7989,79.8261972 C82.1189,82.2901972 84.6359,83.7031972 87.3389,83.0171972 C88.2389,82.7881972 89.4729,81.5521972 90.0149,83.3161972 C90.5799,85.1531972 88.8949,85.0701972 87.8229,85.4411972 C86.0249,86.0631972 84.4249,85.7771972 83.0149,84.4541972 C82.4329,83.9081972 81.7859,83.4321972 81.1679,82.9251972" id="Fill-12" fill="#FEFEFE"></path>
                <path d="M70.3627,47.9976972 C70.8097,47.4696972 71.1737,47.0386972 71.6147,46.5166972 C73.6387,47.7556972 74.8627,49.4216972 74.9047,51.7826972 C74.9697,55.4596972 74.0337,58.7746972 71.0877,61.2386972 C68.7687,63.1776972 65.4487,63.0706972 63.6637,60.8776972 C63.1107,60.1966972 63.0647,59.1036972 63.0017,58.1326972 C68.2497,60.7026972 69.9507,60.5766972 72.2167,57.3796972 C74.4807,54.1866972 73.9597,51.3586972 70.3627,47.9976972" id="Fill-14" fill="#FEFEFE"></path>
                <path d="M70.2341,49.7720972 C72.4861,51.2030972 72.8981,53.7600972 71.5011,56.3000972 C70.2931,58.4960972 67.7781,59.4900972 65.8271,58.4030972 C65.4041,58.1670972 64.9401,57.1000972 65.1171,56.8370972 C66.7501,54.4220972 68.5191,52.1010972 70.2341,49.7720972" id="Fill-16" fill="#FEFEFE"></path>
                <path d="M25.7857,10.2051972 C27.2527,4.8311972 33.5917,2.5921972 37.4257,6.3581972 C32.4417,5.1511972 28.6847,6.4941972 25.7857,10.2051972" id="Fill-18" fill="#FEFEFE"></path>
                <path d="M44.7605,30.0853972 C44.5515,29.8953972 44.4845,29.3913972 44.5705,29.0873972 C44.6175,28.9063972 45.1025,28.7063972 45.3505,28.7543972 C46.6815,28.9723972 47.9275,29.3533972 48.4785,31.0363972 C46.8335,31.7303972 45.7495,30.9693972 44.7605,30.0853972 M40.1965,40.4123972 C38.2565,40.1083972 37.3905,38.9103972 37.6855,36.7703972 C39.8155,37.5123972 40.4625,38.5013972 40.1965,40.4123972 M68.8095,36.5323972 C66.5845,33.6233972 64.5115,30.5893972 62.1915,27.7653972 C60.4985,25.7013972 59.6235,22.6303972 55.8485,22.6773972 C56.7045,21.6793972 57.3415,21.0423972 57.8355,20.3093972 C58.1785,19.8153972 58.6155,19.1023972 58.4925,18.6073972 C57.8075,15.8113972 56.9895,13.0443972 56.1435,10.2863972 C56.0195,9.8973972 55.4115,9.3643972 55.0785,9.4023972 C54.6125,9.4503972 53.9845,9.8783972 53.8135,10.3053972 C53.3955,11.3043972 53.1665,12.3793972 52.9485,13.4443972 C52.4535,15.9353972 51.7405,17.7803972 48.5455,18.1513972 C44.3895,18.6453972 40.6235,18.3503972 37.1055,16.0403972 C36.4775,15.6313972 35.8215,15.2883972 35.1365,14.8893972 C34.8895,15.4413972 34.6995,15.7833972 34.5945,16.1443972 C34.4525,16.6393972 34.3385,17.1523972 34.2905,17.6563972 C33.7965,22.9533972 32.1415,27.7933972 28.7655,31.9963972 C27.4725,33.6133972 27.4725,35.5243972 28.5465,37.2463972 C30.3155,40.0983972 31.5235,43.4363972 35.2705,45.0623972 C33.6255,45.8333972 32.3225,46.3753972 31.0855,47.0213972 C29.0605,48.0773972 28.3565,50.4073972 29.2885,52.6793972 C30.0205,54.4673972 31.4855,55.1423972 33.7775,54.4393972 C35.2985,53.9733972 36.7635,53.2503972 38.1425,52.4423972 C39.7685,51.4913972 41.0425,52.0423972 42.3835,52.9743972 C45.3695,55.0383972 48.3265,57.1583972 51.4175,59.0703972 C52.3205,59.6213972 53.6995,59.9163972 54.7265,59.6973972 C59.1195,58.7753972 63.0375,56.8443972 65.5865,52.9843972 C67.1645,50.5783972 68.4575,47.9723972 69.7325,45.3953972 C71.2725,42.2953972 70.9305,39.3093972 68.8095,36.5323972" id="Fill-20" fill="#FEFEFE"></path>
                <path d="M48.4787,31.0363972 C46.8337,31.7303972 45.7497,30.9693972 44.7607,30.0853972 C44.5517,29.8953972 44.4847,29.3913972 44.5707,29.0873972 C44.6177,28.9063972 45.1027,28.7063972 45.3497,28.7543972 C46.6817,28.9723972 47.9267,29.3533972 48.4787,31.0363972" id="Fill-22" fill="#231F20"></path>
                <path d="M40.196,40.4126972 C38.256,40.1086972 37.391,38.9096972 37.686,36.7706972 C39.816,37.5126972 40.462,38.5016972 40.196,40.4126972" id="Fill-24" fill="#231F20"></path>
                <path d="M47.7703,39.2545972 C47.8933,40.5945972 47.6493,41.9425972 47.3803,43.2505972 C47.2583,43.8425972 47.0813,44.4635972 47.4243,45.0185972 C47.7053,45.4725972 48.2323,45.7205972 48.7353,45.8345972 C49.8553,46.0875972 50.9983,45.7195972 52.0253,45.2905972 C52.9513,44.9045972 53.8553,44.4065972 54.8843,44.4165972 C55.1963,44.4195972 55.6483,44.1715972 55.6833,43.8315972 C55.7213,43.4505972 55.2993,43.3595972 55.0133,43.3565972 C53.9603,43.3465972 52.9703,43.7495972 52.0203,44.1625972 C51.2593,44.4945972 50.4093,44.9365972 49.5523,44.8395972 C49.2333,44.8035972 48.8713,44.6585972 48.7353,44.3445972 C48.6263,44.0925972 48.7133,43.7895972 48.7653,43.5345972 C48.8273,43.2265972 48.8943,42.9185972 48.9543,42.6105972 C49.1933,41.3695972 49.3343,40.1295972 49.2193,38.8665972 C49.1863,38.5095972 48.6023,38.5005972 48.3623,38.5645972 C48.0303,38.6535972 47.7373,38.8915972 47.7703,39.2545972" id="Fill-26" fill="#231F20"></path>
                <path d="M40.8003,28.1042972 C40.9263,27.7292972 41.0813,27.4132972 41.3023,27.0832972 C41.5503,26.7122972 41.7413,26.4962972 42.0543,26.2202972 C42.1293,26.1542972 42.2073,26.0892972 42.2863,26.0282972 C42.3223,25.9992972 42.3593,25.9722972 42.3953,25.9452972 C42.4313,25.9182972 42.4243,25.9232972 42.3743,25.9602972 C42.3973,25.9442972 42.4203,25.9292972 42.4423,25.9132972 C42.5263,25.8572972 42.6103,25.8042972 42.6973,25.7532972 C42.7443,25.7252972 42.7923,25.6982972 42.8403,25.6722972 C42.8583,25.6622972 42.9963,25.5912972 42.9043,25.6372972 C42.8113,25.6832972 42.9513,25.6152972 42.9703,25.6072972 C43.0193,25.5842972 43.0693,25.5622972 43.1203,25.5412972 C43.1703,25.5202972 43.2213,25.4992972 43.2723,25.4802972 C43.2953,25.4712972 43.4453,25.4182972 43.3323,25.4572972 C43.2193,25.4962972 43.3703,25.4462972 43.3933,25.4392972 C43.4463,25.4232972 43.4983,25.4082972 43.5513,25.3942972 C43.6043,25.3802972 43.6583,25.3682972 43.7113,25.3552972 C43.8653,25.3182972 43.5603,25.3822972 43.7303,25.3512972 C43.9983,25.3032972 44.4843,25.1852972 44.5543,24.8632972 C44.6223,24.5512972 44.1143,24.5272972 43.9313,24.5602972 C41.8833,24.9292972 40.0303,26.2742972 39.3523,28.2892972 C39.2483,28.5972972 39.8093,28.6162972 39.9763,28.5922972 C40.2663,28.5492972 40.6943,28.4192972 40.8003,28.1042972" id="Fill-28" fill="#231F20"></path>
                <path d="M35.4804,37.5441972 C35.5254,37.4141972 35.5804,37.2711972 35.6554,37.1021972 C35.7304,36.9351972 35.8114,36.7701972 35.8994,36.6091972 C35.9834,36.4561972 36.0724,36.3061972 36.1684,36.1601972 C36.2184,36.0831972 36.2694,36.0071972 36.3224,35.9321972 C36.3494,35.8941972 36.3764,35.8571972 36.4034,35.8201972 C36.4634,35.7381972 36.3924,35.8321972 36.4304,35.7841972 C36.6524,35.5031972 36.8934,35.2381972 37.1564,34.9941972 C37.2234,34.9311972 37.2924,34.8701972 37.3614,34.8101972 C37.4084,34.7691972 37.4064,34.7731972 37.3594,34.8111972 C37.4024,34.7761972 37.4454,34.7421972 37.4894,34.7081972 C37.6344,34.5951972 37.7844,34.4891972 37.9374,34.3891972 C38.1564,34.2451972 38.3434,33.8961972 38.0394,33.7291972 C37.7254,33.5571972 37.2924,33.6531972 37.0074,33.8401972 C35.6094,34.7571972 34.5644,36.1111972 34.0214,37.6891972 C33.9804,37.8101972 34.0934,37.9461972 34.1834,38.0021972 C34.3164,38.0831972 34.5204,38.1021972 34.6704,38.0841972 C35.0104,38.0421972 35.3624,37.8861972 35.4804,37.5441972" id="Fill-30" fill="#231F20"></path>
                <path d="M71.7763,37.8430972 C71.8203,37.1550972 71.8753,36.4860972 71.9193,35.7980972 C72.0283,34.0660972 71.5903,31.9570972 72.9173,30.6620972 C74.1203,29.4890972 75.0903,29.4240972 76.6543,28.7440972 C76.5873,31.0940972 76.5533,33.6540972 78.4953,35.3490972 C79.3543,36.0980972 80.2453,36.7920972 81.0713,37.5840972 C81.2753,37.7800972 82.4533,38.6540972 82.4533,38.9530972 L82.4533,72.8820972 C82.4533,72.8820972 81.3983,71.3880972 79.4643,72.8820972 C77.5303,74.3760972 76.9593,77.6290972 76.9593,77.6290972 L76.3003,82.4630972 L59.7753,67.2570972 C59.7753,67.2570972 57.8413,64.7080972 59.7753,62.5980972 C61.7093,60.4880972 61.7993,60.2910972 61.7993,60.2910972 C61.7993,60.2910972 64.8973,66.1700972 71.0263,62.6130972 C73.8933,60.9490972 75.7343,58.5490972 76.0653,54.3090972 C76.3233,51.0040972 75.3973,48.6430972 73.5363,47.0210972 C72.8353,46.4110972 72.0693,45.9230972 71.7283,45.0240972 C71.2213,43.6820972 71.5463,43.0430972 71.6333,41.6470972 C71.7123,40.4000972 71.6963,39.0910972 71.7763,37.8430972" id="Fill-32" fill="#FBB016"></path>
                <path d="M71.7763,37.8430972 C71.8203,37.1550972 71.8753,36.4860972 71.9193,35.7980972 C72.0283,34.0660972 71.5903,31.9570972 72.9173,30.6620972 C74.1203,29.4890972 75.0903,29.4240972 76.6543,28.7440972 C76.5873,31.0940972 76.5533,33.6540972 78.4953,35.3490972 C79.3543,36.0980972 80.2453,36.7920972 81.0713,37.5840972 C81.2753,37.7800972 82.4533,38.6540972 82.4533,38.9530972 L82.4533,72.8820972 C82.4533,72.8820972 81.3983,71.3880972 79.4643,72.8820972 C77.5303,74.3760972 76.9593,77.6290972 76.9593,77.6290972 L76.3003,82.4630972 L59.7753,67.2570972 C59.7753,67.2570972 57.8413,64.7080972 59.7753,62.5980972 C61.7093,60.4880972 61.7993,60.2910972 61.7993,60.2910972 C61.7993,60.2910972 64.8973,66.1700972 71.0263,62.6130972 C73.8933,60.9490972 75.7343,58.5490972 76.0653,54.3090972 C76.3233,51.0040972 75.3973,48.6430972 73.5363,47.0210972 C72.8353,46.4110972 72.0693,45.9230972 71.7283,45.0240972 C71.2213,43.6820972 71.5463,43.0430972 71.6333,41.6470972 C71.7123,40.4000972 71.6963,39.0910972 71.7763,37.8430972 Z" id="Stroke-34" stroke="#1F180E" stroke-width="0.25"></path>
                <path d="M60.6648,41.5117972 C60.5648,45.4057972 57.9338,49.1097972 54.0908,49.9887972 C53.8138,50.0527972 53.0338,50.3267972 53.1248,50.7297972 C53.2168,51.1367972 54.1088,50.9397972 54.3318,50.8887972 C56.6458,50.3587972 58.8248,49.1317972 60.3918,47.3367972 C61.9448,45.5577972 62.7778,43.2787972 62.8378583,40.9297972 C62.8508,40.4177972 60.6838,40.7597972 60.6648,41.5117972" id="Fill-36" fill="#231F20"></path>
                <path d="M56.4105,16.5923972 C56.0195,16.6473972 55.5865,16.7073972 55.0875,16.7773972 C55.0195,17.5433972 54.9545,18.2803972 54.8875,19.0273972 C53.8045,19.2713972 53.3135,18.8773972 53.5425,17.8693972 C53.8435,16.5413972 54.2095,15.2223972 54.6545,13.9373972 C54.7635,13.6213972 55.2875,13.4493972 55.6205,13.2113972 C55.7965,13.5203972 56.0685,13.8113972 56.1295,14.1413972 C56.2735,14.9193972 56.3165,15.7153972 56.4105,16.5923972" id="Fill-38" fill="#231F20"></path>
                <path d="M34.5734,49.3465972 C34.1694,49.7795972 33.8514,50.1205972 33.4774,50.5215972 C33.8814,50.7215972 34.2664,50.9125972 34.7514,51.1535972 C34.1084,52.0845972 33.5024,51.9795972 32.7404,51.4595972 C32.2994,51.1585972 31.6874,51.1145972 31.2294,50.8305972 C30.9894,50.6825972 30.7134,50.1465972 30.8044,49.9875972 C31.3254,49.0795972 33.4074,48.7005972 34.5734,49.3465972" id="Fill-40" fill="#231F20"></path>
            </g>
        </g>
    </g>
</svg>