<?xml version="1.0" encoding="UTF-8"?>
<svg width="68px" height="67px" viewBox="0 0 68 67" version="1.1" xmlns="http://www.w3.org/2000/svg" xmlns:xlink="http://www.w3.org/1999/xlink">
    <title>Group 42</title>
    <defs>
        <polygon id="path-1" points="0 0 65.4529764 0 65.4529764 67.0668273 0 67.0668273"></polygon>
    </defs>
    <g id="Mobile" stroke="none" stroke-width="1" fill="none" fill-rule="evenodd">
        <g id="19.-Login" transform="translate(-233.000000, -277.000000)">
            <g id="Group-42" transform="translate(266.726488, 310.533414) rotate(-90.000000) translate(-266.726488, -310.533414) translate(234.000000, 277.000000)">
                <g id="Group-3">
                    <mask id="mask-2" fill="white">
                        <use xlink:href="#path-1"></use>
                    </mask>
                    <g id="Clip-2"></g>
                    <path d="M50.8678,43.8170273 C49.2078,45.2050273 46.8328,45.1300273 45.5538,43.5580273 C45.1588,43.0750273 45.1248,42.2930273 45.0778,41.5920273 C48.8338,43.4360273 50.0508,43.3410273 51.6708,41.0550273 C53.2898,38.7680273 52.9228,36.7480273 50.3438,34.3460273 C50.6638,33.9650273 50.9288,33.6580273 51.2418,33.2840273 C52.6918,34.1690273 53.5688,35.3590273 53.5958,37.0540273 C53.6438,39.6800273 52.9698,42.0550273 50.8678,43.8170273 L50.8678,43.8170273 Z M50.2558,35.6110273 C51.8678,36.6390273 52.1608,38.4690273 51.1608,40.2860273 C50.2958,41.8570273 48.4998,42.5650273 47.0988,41.7890273 C46.7988,41.6190273 46.4658,40.8570273 46.5948,40.6670273 C47.7588,38.9380273 49.0238,37.2780273 50.2558,35.6110273 L50.2558,35.6110273 Z M39.1578,42.7150273 C38.4228,42.8710273 37.4368,42.6600273 36.7898,42.2660273 C34.5788,40.8980273 32.4628,39.3810273 30.3258,37.9040273 C29.3668,37.2370273 28.4548,36.8430273 27.2918,37.5230273 C26.3048,38.1020273 25.2568,38.6190273 24.1688,38.9520273 C22.5288,39.4560273 21.4808,38.9720273 20.9568,37.6930273 C20.2898,36.0670273 20.7938,34.4000273 22.2428,33.6450273 C23.1278,33.1820273 24.0598,32.7940273 25.2368,32.2430273 C22.5558,31.0800273 21.6918,28.6910273 20.4258,26.6500273 C19.6568,25.4190273 19.6568,24.0510273 20.5828,22.8940273 C22.9978,19.8870273 24.1818,16.4230273 24.5358,12.6340273 C24.5698,12.2730273 24.6518,11.9060273 24.7538,11.5520273 C24.8288,11.2930273 24.9648,11.0480273 25.1408,10.6540273 C25.6308,10.9390273 26.1008,11.1840273 26.5498,11.4770273 C29.0678,13.1300273 31.7618,13.3410273 34.7348,12.9870273 C37.0218,12.7220273 37.5318,11.4020273 37.8858,9.6190273 C38.0418,8.8570273 38.2048,8.0880273 38.5048,7.3740273 C38.6268,7.0680273 39.0758,6.7620273 39.4098,6.7280273 C39.6478,6.7000273 40.0828,7.0810273 40.1718,7.3600273 C40.7768,9.3340273 41.3628,11.3140273 41.8518,13.3140273 C41.9408,13.6680273 41.6278,14.1780273 41.3828,14.5320273 C41.0288,15.0560273 40.5728,15.5120273 39.9608,16.2260273 C42.6618,16.1920273 43.2878,18.3900273 44.4988,19.8660273 C46.1598,21.8870273 47.6428,24.0580273 49.2348,26.1400273 C50.7518,28.1270273 50.9968,30.2630273 49.8948,32.4810273 C48.9828,34.3250273 48.0578,36.1900273 46.9278,37.9110273 C45.1048,40.6730273 42.3018,42.0550273 39.1578,42.7150273 L39.1578,42.7150273 Z M18.4528,7.2990273 C19.5008,3.4550273 24.0318,1.8560273 26.7808,4.5500273 C23.2158,3.6860273 20.5218,4.6450273 18.4528,7.2990273 L18.4528,7.2990273 Z M60.6318,66.1960273 C60.4818,66.1550273 60.3258,66.1070273 60.1688,66.0530273 C60.0128,65.9990273 59.8488,65.9370273 59.6788,65.8690273 C56.2698,64.4610273 55.3998,61.9300273 55.7938,58.6020273 C55.8958,57.7860273 56.0318,56.9630273 56.0658,56.1390273 C56.1548,54.0440273 57.3928,52.9410273 59.3258,52.2880273 L59.3258,54.9830273 C58.9448,54.8190273 58.6858,54.7100273 58.3928,54.5880273 C58.3658,54.7510273 58.2978,54.9010273 58.3388,55.0100273 C58.3728,55.0980273 58.4068,55.1800273 58.4408,55.2620273 C58.4608,55.3090273 58.4818,55.3570273 58.5018,55.3980273 C58.5288,55.4520273 58.5568,55.5000273 58.5838,55.5470273 C58.6448,55.6560273 58.7058,55.7650273 58.7808,55.8600273 C58.8218,55.9150273 58.8558,55.9620273 58.8968,56.0100273 C58.9718,56.0980273 59.0468,56.1870273 59.1278,56.2620273 C59.2918,56.4110273 59.4678,56.5410273 59.6658,56.6500273 C59.7338,56.6900273 59.8018,56.7250273 59.8698,56.7520273 C60.0328,56.8270273 60.2098,56.8810273 60.4008,56.9350273 L60.3798,56.1050273 L60.2508,50.9890273 L59.5358,22.3700273 C59.5088,22.8190273 59.4818,23.2750273 59.4548,23.7310273 C59.4338,24.1330273 59.4068,24.5340273 59.3868,24.9420273 C59.3528,25.4660273 59.3258,26.0110273 59.2918,26.5620273 C57.7948,25.1060273 56.6988,23.7310273 56.4678,21.7780273 C56.3318,20.6490273 55.8618,19.5670273 55.6648,18.4440273 C55.3378,16.5190273 55.0188,14.5800273 54.8548,12.6270273 C54.7458,11.2520273 55.7328,10.4560273 56.8758,9.9390273 C57.6378,9.5920273 58.4338,9.3200273 59.2098,9.3740273 L59.1898,8.5030273 C58.4888,8.6600273 57.9508,8.7620273 57.4138,8.9050273 C54.7188,9.6190273 53.6848,11.0210273 53.9228,13.8180273 C54.0518,15.3690273 54.2498,16.9340273 54.5828,18.4510273 C54.8078,19.4510273 54.5688,19.9620273 53.6438,20.3630273 C51.6638,21.2070273 50.6088,22.6760273 50.8678,24.9150273 C50.8878,25.1190273 50.8408,25.3300273 50.8138,25.6360273 C50.5888,25.4930273 50.4598,25.4460273 50.3848,25.3570273 C48.0028,22.3160273 45.6018,19.2880273 43.2808,16.2060273 C42.9818,15.8180273 42.9478,15.1100273 43.0158,14.5730273 C43.3898,11.6880273 42.9068,8.9660273 41.3348,6.5230273 C40.2668,4.8630273 38.6948,4.8560273 37.4908,6.3670273 C37.1638,6.7750273 36.8648,7.2040273 36.4638,7.7550273 C35.9188,6.4350273 35.5108,5.3190273 35.0208,4.2370273 C33.8238,1.6380273 32.8298,1.4340273 30.7068,3.2980273 C30.6528,3.3460273 30.5438,3.3460273 30.3878,3.3940273 C30.0538,2.9990273 29.7748,2.4750273 29.3398,2.1890273 C28.2168,1.4540273 27.0938,0.461027302 25.8358,0.216027302 C22.5828,-0.443972698 19.5888,0.393027302 17.3168,2.9380273 C16.1598,4.2240273 15.0098,5.6320273 14.3018,7.1830273 C12.5948,10.9330273 11.0708,14.7700273 9.6278,18.6350273 C8.8518,20.7030273 7.5798,22.2210273 5.6338,23.1460273 C4.3548,23.7520273 2.9738,24.1330273 1.6598,24.6630273 C1.0818,24.9010273 0.5508,25.2480273 -0.0002,25.5480273 C0.0478,25.6910273 0.0888,25.8340273 0.1358,25.9770273 C2.8168,26.7730273 5.5858,25.8810273 8.4648,26.1600273 C8.1918,26.5000273 8.0628,26.7730273 7.8588,26.9020273 C6.5588,27.6710273 5.2188,28.3650273 3.9528,29.1740273 C3.5318,29.4400273 3.2798,29.9710273 2.9528,30.3860273 C3.3948,30.6580273 3.8448,31.1880273 4.2658,31.1680273 C6.2188,31.0730273 8.1988,31.0050273 10.0908,30.5690273 C11.6758,30.2090273 13.1388,29.3240273 14.6838,28.7390273 C15.0308,28.6030273 15.6568,28.5960273 15.8538,28.8140273 C17.2758,30.3380273 18.6228,31.9370273 20.0448,33.5770273 C18.8268,36.2580273 18.9908,38.6800273 20.9158,39.8770273 C23.9708,41.7620273 26.3928,40.0750273 28.5438,38.0740273 C30.8908,39.8160273 33.1298,41.5720273 35.4768,43.1840273 C37.2048,44.3750273 39.1238,44.5930273 41.1038,43.6670273 C41.6818,43.3880273 42.3218,43.2390273 43.1318,42.9660273 C41.1448,46.3070273 41.1858,47.1650273 43.8048,49.6550273 C47.3568,53.0300273 50.5138,56.8610273 54.8078,59.2080273 C54.7598,59.9290273 54.6378,60.5620273 54.6918,61.1740273 C54.8618,63.2500273 55.7808,64.8010273 57.7948,65.6650273 C58.9718,66.1750273 58.4268,65.9990273 60.6518,67.0670273 L60.6318,66.1960273 Z M60.5638,63.5220273 C60.5438,63.5150273 60.5158,63.5080273 60.4958,63.4950273 C60.4068,63.4670273 60.3188,63.4330273 60.2368,63.3990273 C60.1558,63.3650273 60.0668,63.3250273 59.9858,63.2770273 C59.7878,63.1750273 59.5978,63.0520273 59.4208,62.9160273 C58.9308,62.5280273 58.5018,62.0660273 57.9438,61.7390273 C58.2028,63.2220273 59.2578,64.1750273 60.5778,64.4000273 L60.5838,64.4000273 L60.5638,63.5220273 Z M60.5028,61.1470273 C60.1148,60.9970273 59.7468,60.7530273 59.3998,60.4260273 C58.9848,60.0380273 58.5228,59.6980273 58.0798,59.3370273 C58.4068,59.9630273 58.6998,60.4670273 59.0058,60.8680273 C59.0668,60.9430273 59.1278,61.0180273 59.1898,61.0930273 C59.2918,61.2150273 59.3938,61.3240273 59.5018,61.4190273 C59.5428,61.4600273 59.5908,61.4940273 59.6388,61.5280273 C59.8148,61.6780273 60.0058,61.7870273 60.2098,61.8750273 C60.2708,61.9020273 60.3388,61.9300273 60.4008,61.9500273 C60.4208,61.9570273 60.4348,61.9640273 60.4548,61.9700273 C60.4748,61.9770273 60.5028,61.9840273 60.5228,61.9910273 L60.5228,61.9840273 L60.5028,61.1470273 Z M60.4348,58.2550273 C60.3668,58.2280273 60.3048,58.1940273 60.2368,58.1600273 C60.1688,58.1330273 60.1008,58.0990273 60.0328,58.0580273 C59.9578,58.0240273 59.8898,57.9830273 59.8148,57.9420273 C59.7468,57.9080273 59.6728,57.8610273 59.5908,57.8130273 C59.5298,57.7720273 59.4618,57.7320273 59.3938,57.6910273 C59.1278,57.5270273 58.8418,57.3370273 58.5288,57.1190273 C58.5568,57.3030273 58.5978,57.4730273 58.6518,57.6430273 C58.6788,57.7250273 58.7058,57.8060273 58.7468,57.8810273 C58.7878,57.9760273 58.8358,58.0720273 58.8898,58.1600273 C59.0598,58.4320273 59.2708,58.6700273 59.5228,58.8680273 C59.5908,58.9220273 59.6658,58.9770273 59.7468,59.0240273 C59.8428,59.0860273 59.9378,59.1400273 60.0398,59.1880273 C60.1758,59.2560273 60.3118,59.3170273 60.4618,59.3580273 L60.4348,58.2550273 Z M59.4618,19.4510273 C58.9508,19.6150273 58.3998,19.8730273 57.9038,19.9960273 C57.9308,20.1590273 57.9648,20.3220273 57.9918,20.4920273 C58.4678,20.4520273 58.9448,20.4110273 59.4888,20.3630273 L59.4618,19.4510273 Z M59.3658,15.6210273 L59.3528,15.6210273 C59.2778,15.6210273 59.2098,15.6270273 59.1348,15.6340273 C59.0598,15.6410273 58.9848,15.6480273 58.9108,15.6610273 C58.8418,15.6750273 58.7678,15.6950273 58.6928,15.7160273 C58.6178,15.7360273 58.5428,15.7570273 58.4678,15.7910273 C58.4068,15.8110273 58.3528,15.8380273 58.2908,15.8720273 C57.9438,16.0360273 57.6248,16.3010273 57.3518,16.6480273 C57.2638,16.7640273 57.1818,16.8860273 57.1068,17.0220273 C57.0328,17.1580273 56.9578,17.3010273 56.8958,17.4510273 C57.3518,17.1520273 57.7808,16.9410273 58.1688,16.8110273 C58.2638,16.7770273 58.3588,16.7500273 58.4548,16.7230273 C58.5498,16.6960273 58.6448,16.6750273 58.7338,16.6620273 C58.9648,16.6210273 59.1828,16.6070273 59.3938,16.6140273 L59.3658,15.6210273 Z M59.3118,13.3210273 C58.6858,13.2660273 58.0188,13.3750273 57.2978,13.7220273 C57.4878,13.7430273 57.6788,13.7700273 57.8628,13.8040273 C58.1958,13.8580273 58.5288,13.9200273 58.8418,13.9940273 C59.0058,14.0350273 59.1688,14.0760273 59.3318,14.1240273 L59.3118,13.3210273 Z M59.2508,10.8370273 C59.2238,10.8440273 59.1958,10.8510273 59.1688,10.8580273 C58.7338,10.9530273 58.3048,11.1910273 57.8828,11.5590273 C58.1478,11.5310273 58.3998,11.5110273 58.6448,11.5110273 C58.7878,11.5110273 58.9308,11.5180273 59.0738,11.5310273 C59.1418,11.5380273 59.2028,11.5450273 59.2638,11.5520273 L59.2508,10.8370273 Z M65.4488,58.6090273 C65.4488,56.9080273 64.7478,56.1800273 63.0408,56.1120273 C62.1828,56.0780273 61.3188,56.1050273 60.3798,56.1050273 L60.4008,56.9350273 C60.4408,56.9420273 60.4748,56.9490273 60.5158,56.9560273 L60.7068,56.9900273 C60.8428,57.0170273 60.9788,57.0310273 61.1218,57.0370273 C61.1758,57.0370273 61.2378,57.0440273 61.2918,57.0440273 C61.3738,57.0510273 61.4548,57.0510273 61.5368,57.0510273 C61.6798,57.0510273 61.8228,57.0440273 61.9718,57.0310273 C62.8568,56.9630273 63.8158,56.6900273 64.3878,57.7590273 C64.0068,57.9630273 63.6598,58.1330273 63.3398,58.2620273 C63.2308,58.3100273 63.1288,58.3510273 63.0198,58.3780273 C62.9178,58.4190273 62.8228,58.4460273 62.7208,58.4660273 C62.6258,58.5000273 62.5238,58.5210273 62.4278,58.5340273 C62.1288,58.5960273 61.8358,58.6090273 61.5438,58.5680273 C61.5098,58.5680273 61.4758,58.5620273 61.4418,58.5550273 C61.3668,58.5480273 61.2918,58.5340273 61.2168,58.5140273 C61.1558,58.5000273 61.0878,58.4870273 61.0268,58.4660273 C60.9378,58.4460273 60.8498,58.4190273 60.7608,58.3850273 C60.6518,58.3510273 60.5438,58.3100273 60.4348,58.2550273 C60.3668,58.2280273 60.3048,58.1940273 60.2368,58.1600273 C60.1688,58.1330273 60.1008,58.0990273 60.0328,58.0580273 C59.9578,58.0240273 59.8898,57.9830273 59.8148,57.9420273 C59.7468,57.9080273 59.6728,57.8610273 59.5908,57.8130273 C59.5298,57.7720273 59.4618,57.7320273 59.3938,57.6910273 C59.1278,57.5270273 58.8418,57.3370273 58.5288,57.1190273 C58.5568,57.3030273 58.5978,57.4730273 58.6518,57.6430273 C58.6788,57.7250273 58.7058,57.8060273 58.7468,57.8810273 C58.7878,57.9760273 58.8358,58.0720273 58.8898,58.1600273 C59.0598,58.4320273 59.2708,58.6700273 59.5228,58.8680273 C59.5908,58.9220273 59.6658,58.9770273 59.7468,59.0240273 C59.8428,59.0860273 59.9378,59.1400273 60.0398,59.1880273 C60.1758,59.2560273 60.3118,59.3170273 60.4618,59.3580273 C60.5838,59.3990273 60.7068,59.4330273 60.8428,59.4530273 C60.9648,59.4800273 61.1008,59.5010273 61.2378,59.5070273 C61.6388,59.5410273 62.0678,59.5070273 62.4958,59.3990273 C63.1358,59.2350273 64.0198,58.3510273 64.4078,59.6160273 C64.8098,60.9290273 63.6048,60.8680273 62.8368,61.1340273 C62.2038,61.3580273 61.6048,61.4130273 61.0398,61.3040273 C61.0058,61.2970273 60.9718,61.2970273 60.9448,61.2830273 C60.7948,61.2560273 60.6458,61.2080273 60.5028,61.1470273 C60.1148,60.9970273 59.7468,60.7530273 59.3998,60.4260273 C58.9848,60.0380273 58.5228,59.6980273 58.0798,59.3370273 C58.4068,59.9630273 58.6998,60.4670273 59.0058,60.8680273 C59.0668,60.9430273 59.1278,61.0180273 59.1898,61.0930273 C59.2918,61.2150273 59.3938,61.3240273 59.5018,61.4190273 C59.5428,61.4600273 59.5908,61.4940273 59.6388,61.5280273 C59.8148,61.6780273 60.0058,61.7870273 60.2098,61.8750273 C60.2708,61.9020273 60.3388,61.9300273 60.4008,61.9500273 C60.4208,61.9570273 60.4348,61.9640273 60.4548,61.9700273 C60.4748,61.9770273 60.5028,61.9840273 60.5228,61.9910273 C60.5438,61.9910273 60.5568,61.9980273 60.5778,62.0050273 C60.6318,62.0110273 60.6928,62.0250273 60.7478,62.0390273 C60.8288,62.0520273 60.9108,62.0660273 60.9928,62.0790273 C61.0738,62.0860273 61.1628,62.0930273 61.2508,62.1000273 C61.4138,62.1070273 61.5908,62.1070273 61.7818,62.1000273 C61.9788,62.0860273 62.1898,62.0660273 62.4148,62.0390273 L62.4278,62.0390273 C62.6598,62.0050273 62.8978,61.9700273 63.1558,61.9230273 C63.5508,61.8550273 63.9798,61.7660273 64.4558,61.6580273 C64.7138,63.2770273 62.4688,64.1410273 60.5638,63.5220273 C60.5438,63.5150273 60.5158,63.5080273 60.4958,63.4950273 C60.4068,63.4670273 60.3188,63.4330273 60.2368,63.3990273 C60.1558,63.3650273 60.0668,63.3250273 59.9858,63.2770273 C59.7878,63.1750273 59.5978,63.0520273 59.4208,62.9160273 C58.9308,62.5280273 58.5018,62.0660273 57.9438,61.7390273 C58.2028,63.2220273 59.2578,64.1750273 60.5778,64.4000273 L60.5838,64.4000273 C61.8358,64.6100273 63.1838,64.2230273 64.4218,64.1140273 C64.3808,64.2230273 64.3328,64.3320273 64.2858,64.4340273 C64.2588,64.5080273 64.2248,64.5830273 64.1838,64.6510273 C64.0948,64.8420273 63.9928,65.0120273 63.8838,65.1680273 C63.7618,65.3590273 63.6258,65.5220273 63.4828,65.6580273 C63.2578,65.8830273 63.0068,66.0530273 62.7278,66.1620273 C62.6318,66.2030273 62.5298,66.2370273 62.4278,66.2640273 C62.3468,66.2840273 62.2648,66.3050273 62.1768,66.3180273 C62.1358,66.3250273 62.0948,66.3320273 62.0468,66.3320273 C61.9998,66.3390273 61.9588,66.3460273 61.9038,66.3460273 C61.8498,66.3520273 61.7888,66.3520273 61.7338,66.3520273 C61.6118,66.3520273 61.4958,66.3460273 61.3738,66.3320273 C61.3188,66.3320273 61.2578,66.3250273 61.2038,66.3120273 C61.0198,66.2840273 60.8288,66.2500273 60.6318,66.1960273 L60.6518,67.0670273 C61.5638,66.8150273 62.3668,67.2570273 63.0128,66.9440273 C64.2648,66.3520273 65.3058,65.4810273 65.3878,63.9780273 C65.4768,62.1950273 65.4488,60.3990273 65.4488,58.6090273 L65.4488,58.6090273 Z M64.9528,20.2130273 C64.7888,19.5130273 64.8778,18.7510273 64.8438,18.0220273 C64.7008,15.1170273 64.6328,12.1910273 62.1288,10.0890273 C60.3388,8.5920273 60.0808,8.7960273 59.1898,8.5030273 L59.2098,9.3740273 C59.5298,9.4020273 59.8488,9.4830273 60.1558,9.6400273 C60.2028,9.6600273 60.2508,9.6870273 60.2988,9.7150273 C60.4138,9.7760273 60.5368,9.8570273 60.6518,9.9530273 C61.6118,10.7150273 62.4488,11.6330273 63.1698,12.6950273 C62.3468,12.1440273 61.5638,11.5110273 60.6928,11.0620273 C60.2098,10.8170273 59.7268,10.7420273 59.2508,10.8370273 C59.2238,10.8440273 59.1958,10.8510273 59.1688,10.8580273 C58.7338,10.9530273 58.3048,11.1910273 57.8828,11.5590273 C58.1478,11.5310273 58.3998,11.5110273 58.6448,11.5110273 C58.7878,11.5110273 58.9308,11.5180273 59.0738,11.5310273 C59.1418,11.5380273 59.2028,11.5450273 59.2638,11.5520273 C59.3938,11.5650273 59.5228,11.5860273 59.6448,11.6060273 C59.7678,11.6330273 59.8898,11.6610273 60.0058,11.6950273 C60.1558,11.7350273 60.3048,11.7830273 60.4478,11.8440273 C60.5368,11.8780273 60.6178,11.9120273 60.6998,11.9530273 C60.9178,12.0550273 61.1218,12.1780273 61.3188,12.3140273 C61.5228,12.4570273 61.7208,12.6130273 61.9038,12.7900273 C61.9658,12.8450273 62.0198,12.8990273 62.0738,12.9600273 C62.7208,13.6200273 63.2578,14.4910273 63.7618,15.5250273 C63.4558,15.3350273 63.1488,15.1310273 62.8568,14.9400273 C62.5918,14.7700273 62.3328,14.6000273 62.0808,14.4370273 C61.9108,14.3280273 61.7478,14.2260273 61.5778,14.1300273 C61.4688,14.0690273 61.3528,14.0010273 61.2378,13.9470273 C61.1418,13.8920273 61.0538,13.8450273 60.9588,13.8040273 C60.8838,13.7630273 60.8018,13.7290273 60.7198,13.6950273 C60.6118,13.6410273 60.4888,13.6000273 60.3728,13.5590273 C60.2578,13.5180273 60.1348,13.4770273 60.0198,13.4500273 C59.9448,13.4300273 59.8698,13.4090273 59.7948,13.3960273 C59.6388,13.3550273 59.4748,13.3340273 59.3118,13.3210273 C58.6858,13.2660273 58.0188,13.3750273 57.2978,13.7220273 C57.4878,13.7430273 57.6788,13.7700273 57.8628,13.8040273 C58.1958,13.8580273 58.5288,13.9200273 58.8418,13.9940273 C59.0058,14.0350273 59.1688,14.0760273 59.3318,14.1240273 L59.7198,14.2460273 C59.8488,14.2870273 59.9788,14.3350273 60.1008,14.3820273 C60.2508,14.4370273 60.4008,14.4980273 60.5438,14.5590273 C61.0268,14.7700273 61.4828,15.0220273 61.9038,15.3280273 C62.0058,15.3960273 62.1078,15.4710273 62.2108,15.5530273 C62.3468,15.6550273 62.4758,15.7640273 62.5978,15.8860273 C62.6798,15.9540273 62.7618,16.0290273 62.8368,16.1170273 C62.8498,16.1240273 62.8638,16.1380273 62.8768,16.1580273 C62.9108,16.1920273 62.9518,16.2260273 62.9858,16.2670273 C63.4488,16.7640273 63.8498,17.3420273 64.1908,18.0160273 C64.0818,18.1590273 63.9798,18.3010273 63.8778,18.4440273 C62.9588,17.7160273 62.0398,16.9880273 61.1148,16.2670273 C60.5708,15.8380273 59.9578,15.6210273 59.3658,15.6210273 L59.3528,15.6210273 C59.2778,15.6210273 59.2098,15.6270273 59.1348,15.6340273 C59.0598,15.6410273 58.9848,15.6480273 58.9108,15.6610273 C58.8418,15.6750273 58.7678,15.6950273 58.6928,15.7160273 C58.6178,15.7360273 58.5428,15.7570273 58.4678,15.7910273 C58.4068,15.8110273 58.3528,15.8380273 58.2908,15.8720273 C57.9438,16.0360273 57.6248,16.3010273 57.3518,16.6480273 C57.2638,16.7640273 57.1818,16.8860273 57.1068,17.0220273 C57.0328,17.1580273 56.9578,17.3010273 56.8958,17.4510273 C57.3518,17.1520273 57.7808,16.9410273 58.1688,16.8110273 C58.2638,16.7770273 58.3588,16.7500273 58.4548,16.7230273 C58.5498,16.6960273 58.6448,16.6750273 58.7338,16.6620273 C58.9648,16.6210273 59.1828,16.6070273 59.3938,16.6140273 C59.4678,16.6140273 59.5358,16.6140273 59.5978,16.6280273 C59.6518,16.6340273 59.6998,16.6410273 59.7468,16.6480273 C59.8088,16.6550273 59.8558,16.6620273 59.9108,16.6820273 C59.9648,16.6890273 60.0198,16.7020273 60.0738,16.7230273 C60.1278,16.7300273 60.1828,16.7500273 60.2308,16.7710273 C60.2778,16.7840273 60.3258,16.8050273 60.3728,16.8250273 C60.3868,16.8250273 60.3938,16.8250273 60.4008,16.8320273 C60.4818,16.8590273 60.5568,16.9000273 60.6318,16.9410273 C60.7138,16.9750273 60.7818,17.0150273 60.8558,17.0630273 L60.8628,17.0700273 C60.9518,17.1180273 61.0328,17.1720273 61.1148,17.2260273 C61.2098,17.2940273 61.2988,17.3560273 61.3938,17.4310273 C61.5438,17.5390273 61.6868,17.6690273 61.8228,17.7980273 C61.9108,17.8800273 61.9998,17.9610273 62.0878,18.0500273 C62.6938,18.6420273 63.2648,19.3080273 63.8708,19.8390273 C64.2988,20.2130273 64.0268,21.3910273 64.0748,22.1800273 C62.8298,21.1120273 61.8908,19.9410273 60.6728,19.3760273 C60.4958,19.2950273 60.2918,19.2810273 60.0598,19.3080273 C60.0058,19.3150273 59.9448,19.3290273 59.8838,19.3420273 C59.8148,19.3560273 59.7468,19.3700273 59.6728,19.3900273 C59.6048,19.4110273 59.5358,19.4310273 59.4618,19.4510273 C58.9508,19.6150273 58.3998,19.8730273 57.9038,19.9960273 C57.9308,20.1590273 57.9648,20.3220273 57.9918,20.4920273 C58.4678,20.4520273 58.9448,20.4110273 59.4888,20.3630273 C59.5428,20.3560273 59.5978,20.3560273 59.6518,20.3490273 C59.6248,20.8330273 59.5978,21.3160273 59.5708,21.7990273 C59.5568,21.9890273 59.5428,22.1800273 59.5358,22.3700273 L60.2508,50.9890273 C60.2708,44.2730273 60.2988,37.5500273 60.3048,30.8350273 C60.3118,27.6640273 60.2508,24.4860273 60.2648,21.3160273 C60.2648,20.9620273 60.5228,20.6010273 60.6588,20.2470273 C60.9788,20.4580273 61.3668,20.6220273 61.6118,20.9010273 C62.2788,21.6970273 62.8908,22.5400273 63.5168,23.3570273 C64.8508,22.5400273 65.2658,21.5670273 64.9528,20.2130273 L64.9528,20.2130273 Z M60.2508,50.9890273 C60.2508,51.7170273 60.2438,52.4380273 60.2438,53.1660273 L60.2438,56.1050273 L60.3798,56.1050273 L60.2508,50.9890273 Z" id="Fill-1" fill="#231F20" mask="url(#mask-2)"></path>
                </g>
                <path d="M26.9649,26.3099273 C26.7539,27.8409273 27.3729,28.6979273 28.7609,28.9159273 C28.9519,27.5479273 28.4889,26.8409273 26.9649,26.3099273 M32.4489,20.5739273 C32.2719,20.5399273 31.9249,20.6829273 31.8909,20.8119273 C31.8299,21.0299273 31.8779,21.3909273 32.0269,21.5269273 C32.7349,22.1589273 33.5109,22.7039273 34.6879,22.2069273 C34.2929,21.0029273 33.4019,20.7309273 32.4489,20.5739273" id="Fill-4" fill="#FEFEFE"></path>
                <path d="M28.7612,28.9159273 C27.3732,28.6979273 26.7542,27.8409273 26.9652,26.3099273 C28.4892,26.8409273 28.9522,27.5479273 28.7612,28.9159273" id="Fill-6" fill="#FEFEFE"></path>
                <path d="M34.6876,22.2070273 C33.5106,22.7040273 32.7346,22.1590273 32.0276,21.5270273 C31.8776,21.3910273 31.8296,21.0300273 31.8906,20.8120273 C31.9256,20.6830273 32.2726,20.5400273 32.4486,20.5740273 C33.4016,20.7300273 34.2926,21.0030273 34.6876,22.2070273" id="Fill-8" fill="#FEFEFE"></path>
                <path d="M59.2883,26.5583273 C57.7943,25.1043273 56.6993,23.7323273 56.4663,21.7753273 C56.3323,20.6503273 55.8613,19.5693273 55.6673,18.4463273 C55.3353,16.5173273 55.0163,14.5783273 54.8563,12.6293273 C54.7433,11.2553273 55.7363,10.4583273 56.8743,9.9393273 C58.1173,9.3733273 59.4483,9.0003273 60.6523,9.9513273 C61.6143,10.7113273 62.4473,11.6343273 63.1703,12.6973273 C62.3473,12.1453273 61.5663,11.5123273 60.6913,11.0643273 C59.7423,10.5803273 58.7893,10.7713273 57.8853,11.5563273 C60.8293,11.2213273 62.4403,12.7993273 63.7613,15.5243273 C61.5863,14.1623273 59.8183,12.5253273 57.2983,13.7223273 C60.3513,14.0983273 62.8153,15.2753273 64.1873,18.0163273 C64.0843,18.1593273 63.9823,18.3023273 63.8793,18.4453273 C62.9583,17.7183273 62.0403,16.9883273 61.1143,16.2663273 C59.6363,15.1133273 57.7063,15.5083273 56.8953,17.4483273 C60.4533,15.1233273 61.9503,18.1623273 63.8683,19.8383273 C64.2973,20.2133273 64.0253,21.3893273 64.0743,22.1823273 C62.8323,21.1083273 61.8903,19.9393273 60.6693,19.3773273 C59.9863,19.0633273 58.8403,19.7553273 57.9033,19.9943273 C57.9323,20.1603273 57.9613,20.3253273 57.9903,20.4913273 C58.5153,20.4463273 59.0413,20.4003273 59.6543,20.3483273 C59.5363,22.3553273 59.4183,24.3483273 59.2883,26.5583273" id="Fill-10" fill="#FEFEFE"></path>
                <path d="M58.0773,59.3344273 C59.6023,62.2694273 60.4843,62.5494273 64.4553,61.6564273 C64.7673,63.6224273 61.4053,64.4744273 59.4223,62.9164273 C58.9303,62.5304273 58.5013,62.0664273 57.9433,61.7364273 C58.1993,63.2254273 59.2563,64.1744273 60.5753,64.3984273 C61.8293,64.6104273 63.1843,64.2254273 64.4203,64.1104273 C63.5413,66.4094273 62.0333,66.8364273 59.6813,65.8674273 C56.2683,64.4624273 55.4013,61.9274273 55.7963,58.6034273 C55.8933,57.7834273 56.0343,56.9644273 56.0683,56.1414273 C56.1563,54.0404273 57.3933,52.9434273 59.3273,52.2884273 L59.3273,54.9834273 C58.9423,54.8224273 58.6833,54.7134273 58.3913,54.5914273 C58.3683,54.7494273 58.2973,54.8994273 58.3373,55.0084273 C58.8893,56.5244273 60.0783,57.1744273 61.9703,57.0294273 C62.8583,56.9624273 63.8183,56.6924273 64.3863,57.7564273 C62.0573,59.0084273 61.0763,58.8974273 58.5283,57.1174273 C58.7583,58.8804273 60.5583,59.8914273 62.4933,59.4004273 C63.1363,59.2364273 64.0193,58.3514273 64.4073,59.6134273 C64.8113,60.9284273 63.6063,60.8694273 62.8393,61.1344273 C61.5523,61.5794273 60.4073,61.3754273 59.3993,60.4284273 C58.9823,60.0374273 58.5193,59.6974273 58.0773,59.3344273" id="Fill-12" fill="#FEFEFE"></path>
                <path d="M50.346,34.3432273 C50.666,33.9652273 50.926,33.6572273 51.242,33.2832273 C52.69,34.1702273 53.566,35.3622273 53.596,37.0512273 C53.642,39.6822273 52.973,42.0542273 50.865,43.8172273 C49.206,45.2042273 46.83,45.1282273 45.553,43.5592273 C45.157,43.0722273 45.124,42.2892273 45.079,41.5952273 C48.834,43.4342273 50.051,43.3442273 51.673,41.0562273 C53.293,38.7712273 52.92,36.7482273 50.346,34.3432273" id="Fill-14" fill="#FEFEFE"></path>
                <path d="M50.254,35.6127273 C51.866,36.6367273 52.16,38.4657273 51.16,40.2837273 C50.296,41.8547273 48.497,42.5667273 47.101,41.7887273 C46.798,41.6197273 46.466,40.8557273 46.593,40.6677273 C47.761,38.9397273 49.027,37.2787273 50.254,35.6127273" id="Fill-16" fill="#FEFEFE"></path>
                <path d="M18.4504,7.3019273 C19.4994,3.4569273 24.0354,1.8539273 26.7794,4.5489273 C23.2134,3.6859273 20.5244,4.6469273 18.4504,7.3019273" id="Fill-18" fill="#FEFEFE"></path>
                <path d="M32.0271,21.5266273 C31.8771,21.3906273 31.8301,21.0296273 31.8911,20.8126273 C31.9251,20.6826273 32.2721,20.5396273 32.4491,20.5736273 C33.4011,20.7306273 34.2931,21.0026273 34.6871,22.2066273 C33.5101,22.7036273 32.7351,22.1596273 32.0271,21.5266273 M28.7611,28.9156273 C27.3731,28.6986273 26.7541,27.8406273 26.9651,26.3096273 C28.4891,26.8406273 28.9521,27.5486273 28.7611,28.9156273 M49.2351,26.1396273 C47.6431,24.0576273 46.1591,21.8876273 44.4991,19.8666273 C43.2881,18.3896273 42.6621,16.1926273 39.9611,16.2266273 C40.5731,15.5116273 41.0291,15.0556273 41.3831,14.5316273 C41.6281,14.1786273 41.9411,13.6676273 41.8521,13.3136273 C41.3621,11.3136273 40.7771,9.3336273 40.1721,7.3606273 C40.0831,7.0816273 39.6481,6.7006273 39.4101,6.7276273 C39.0761,6.7616273 38.6271,7.0676273 38.5051,7.3736273 C38.2051,8.0886273 38.0421,8.8576273 37.8851,9.6196273 C37.5321,11.4016273 37.0211,12.7216273 34.7351,12.9876273 C31.7621,13.3416273 29.0671,13.1306273 26.5501,11.4766273 C26.1011,11.1846273 25.6311,10.9396273 25.1411,10.6536273 C24.9641,11.0486273 24.8281,11.2936273 24.7531,11.5516273 C24.6511,11.9056273 24.5701,12.2726273 24.5361,12.6336273 C24.1821,16.4236273 22.9981,19.8866273 20.5821,22.8946273 C19.6571,24.0506273 19.6571,25.4186273 20.4261,26.6506273 C21.6911,28.6916273 22.5561,31.0796273 25.2361,32.2436273 C24.0591,32.7946273 23.1271,33.1826273 22.2431,33.6446273 C20.7931,34.3996273 20.2901,36.0676273 20.9571,37.6936273 C21.4811,38.9726273 22.5281,39.4556273 24.1681,38.9516273 C25.2571,38.6186273 26.3051,38.1016273 27.2911,37.5236273 C28.4551,36.8426273 29.3671,37.2376273 30.3261,37.9046273 C32.4621,39.3806273 34.5791,40.8976273 36.7901,42.2656273 C37.4361,42.6606273 38.4231,42.8716273 39.1581,42.7146273 C42.3011,42.0546273 45.1051,40.6736273 46.9281,37.9106273 C48.0581,36.1896273 48.9831,34.3256273 49.8951,32.4816273 C50.9971,30.2636273 50.7521,28.1266273 49.2351,26.1396273" id="Fill-20" fill="#FEFEFE"></path>
                <path d="M34.6876,22.2070273 C33.5106,22.7040273 32.7346,22.1590273 32.0276,21.5270273 C31.8776,21.3910273 31.8296,21.0300273 31.8906,20.8120273 C31.9256,20.6830273 32.2726,20.5400273 32.4486,20.5740273 C33.4016,20.7300273 34.2926,21.0030273 34.6876,22.2070273" id="Fill-22" fill="#231F20"></path>
                <path d="M28.7612,28.9159273 C27.3732,28.6979273 26.7542,27.8409273 26.9652,26.3099273 C28.4892,26.8409273 28.9522,27.5479273 28.7612,28.9159273" id="Fill-24" fill="#231F20"></path>
                <path d="M34.2644,28.0649273 C34.3524,29.0299273 34.1804,29.9979273 33.9864,30.9399273 C33.9014,31.3509273 33.7724,31.7889273 34.0094,32.1749273 C34.2024,32.4869273 34.5644,32.6589273 34.9094,32.7369273 C35.6844,32.9119273 36.4784,32.6529273 37.1884,32.3569273 C37.8644,32.0749273 38.5264,31.7119273 39.2784,31.7189273 C39.4664,31.7209273 39.7364,31.5729273 39.7574,31.3679273 C39.7814,31.1399273 39.5264,31.0849273 39.3564,31.0839273 C38.6174,31.0769273 37.9244,31.3589273 37.2594,31.6489273 C36.6914,31.8959273 36.0644,32.2169273 35.4264,32.1439273 C35.1754,32.1159273 34.8924,31.9999273 34.7874,31.7519273 C34.7084,31.5649273 34.7694,31.3449273 34.8074,31.1559273 C34.8524,30.9359273 34.9004,30.7159273 34.9424,30.4949273 C35.1134,29.6129273 35.2154,28.7299273 35.1334,27.8319273 C35.1144,27.6179273 34.7634,27.6119273 34.6194,27.6509273 C34.4204,27.7039273 34.2444,27.8469273 34.2644,28.0649273" id="Fill-26" fill="#231F20"></path>
                <path d="M29.3995,20.0828273 C29.4245,20.0088273 29.4515,19.9348273 29.4815,19.8628273 C29.4935,19.8318273 29.5065,19.8028273 29.5205,19.7728273 C29.5355,19.7388273 29.5575,19.6968273 29.5285,19.7538273 C29.5945,19.6258273 29.6645,19.5008273 29.7445,19.3818273 C29.8245,19.2628273 29.9115,19.1478273 30.0055,19.0398273 C30.0225,19.0198273 30.0395,18.9998273 30.0575,18.9808273 C30.0435,18.9958273 30.0305,19.0108273 30.0165,19.0258273 C30.0245,19.0258273 30.0915,18.9478273 30.0985,18.9408273 C30.1495,18.8908273 30.2015,18.8418273 30.2555,18.7938273 C30.3095,18.7458273 30.3655,18.7008273 30.4215,18.6558273 C30.4475,18.6358273 30.4735,18.6168273 30.4995,18.5968273 C30.5475,18.5608273 30.3775,18.6818273 30.4965,18.6018273 C30.5555,18.5618273 30.6165,18.5228273 30.6785,18.4868273 C30.7125,18.4668273 30.7465,18.4478273 30.7805,18.4288273 C30.8045,18.4158273 30.9125,18.3598273 30.8025,18.4158273 C30.6935,18.4718273 30.8015,18.4168273 30.8265,18.4058273 C30.8625,18.3888273 30.8985,18.3738273 30.9345,18.3578273 C30.9705,18.3428273 31.0065,18.3288273 31.0435,18.3148273 C31.0725,18.3038273 31.1895,18.2628273 31.0595,18.3068273 C30.9285,18.3518273 31.0465,18.3128273 31.0765,18.3038273 C31.1135,18.2918273 31.1515,18.2818273 31.1895,18.2718273 C31.2275,18.2618273 31.2655,18.2528273 31.3035,18.2438273 C31.4355,18.2118273 31.1175,18.2778273 31.2615,18.2518273 C31.4525,18.2178273 31.6415,18.1698273 31.8095,18.0668273 C31.9115,18.0038273 32.0575,17.8918273 32.0855,17.7638273 C32.1535,17.4518273 31.6455,17.4278273 31.4625,17.4608273 C29.9055,17.7418273 28.4705,18.7268273 27.9515,20.2678273 C27.9135,20.3798273 28.0095,20.4778273 28.0985,20.5228273 C28.2315,20.5898273 28.4335,20.5918273 28.5755,20.5708273 C28.8655,20.5278273 29.2935,20.3978273 29.3995,20.0828273" id="Fill-28" fill="#231F20"></path>
                <path d="M25.5946,26.8428273 C25.5956,26.8408273 25.6356,26.7228273 25.6116,26.7928273 C25.5876,26.8618273 25.6256,26.7568273 25.6306,26.7438273 C25.6546,26.6818273 25.6806,26.6218273 25.7066,26.5618273 C25.7606,26.4418273 25.8186,26.3238273 25.8816,26.2088273 C25.9416,26.0988273 26.0056,25.9918273 26.0736,25.8868273 C26.1096,25.8318273 26.1466,25.7778273 26.1846,25.7238273 C26.2036,25.6968273 26.2226,25.6708273 26.2426,25.6438273 C26.3046,25.5578273 26.1906,25.7078273 26.2356,25.6518273 C26.3976,25.4528273 26.5666,25.2618273 26.7556,25.0858273 C26.8036,25.0418273 26.8526,24.9978273 26.9016,24.9548273 C26.9676,24.8978273 26.8866,24.9698273 26.8646,24.9858273 C26.8956,24.9628273 26.9256,24.9358273 26.9566,24.9118273 C27.0606,24.8318273 27.1676,24.7558273 27.2776,24.6838273 C27.4966,24.5398273 27.6836,24.1908273 27.3796,24.0238273 C27.0646,23.8518273 26.6326,23.9478273 26.3466,24.1348273 C25.3096,24.8158273 24.5386,25.8168273 24.1356,26.9878273 C24.0946,27.1088273 24.2076,27.2448273 24.2976,27.3008273 C24.4306,27.3818273 24.6346,27.4008273 24.7846,27.3828273 C25.1246,27.3408273 25.4766,27.1848273 25.5946,26.8428273" id="Fill-30" fill="#231F20"></path>
                <path d="M51.3575,27.0773273 C51.3895,26.5853273 51.4285,26.1063273 51.4595,25.6143273 C51.5375,24.3743273 51.2245,22.8653273 52.1745,21.9393273 C53.0345,21.1003273 53.7285,21.0533273 54.8475,20.5673273 C54.7995,22.2483273 54.7755,24.0803273 56.1655,25.2923273 C56.7795,25.8283273 57.4165,26.3253273 58.0075,26.8923273 C58.1545,27.0323273 58.9965,27.6573273 58.9965,27.8713273 L58.9965,52.1483273 C58.9965,52.1483273 58.2425,51.0793273 56.8585,52.1483273 C55.4745,53.2173273 55.0665,55.5443273 55.0665,55.5443273 L54.5945,59.0033273 L42.7705,48.1233273 C42.7705,48.1233273 41.3865,46.2993273 42.7705,44.7903273 C44.1545,43.2803273 44.2185,43.1393273 44.2185,43.1393273 C44.2185,43.1393273 46.4355,47.3453273 50.8215,44.8003273 C52.8725,43.6103273 54.1895,41.8933273 54.4265,38.8593273 C54.6105,36.4943273 53.9485,34.8053273 52.6165,33.6443273 C52.1155,33.2083273 51.5665,32.8593273 51.3235,32.2153273 C50.9605,31.2553273 51.1925,30.7983273 51.2555,29.7993273 C51.3115,28.9063273 51.3005,27.9703273 51.3575,27.0773273" id="Fill-32" fill="#FBB016"></path>
                <path d="M51.3575,27.0773273 C51.3895,26.5853273 51.4285,26.1063273 51.4595,25.6143273 C51.5375,24.3743273 51.2245,22.8653273 52.1745,21.9393273 C53.0345,21.1003273 53.7285,21.0533273 54.8475,20.5673273 C54.7995,22.2483273 54.7755,24.0803273 56.1655,25.2923273 C56.7795,25.8283273 57.4165,26.3253273 58.0075,26.8923273 C58.1545,27.0323273 58.9965,27.6573273 58.9965,27.8713273 L58.9965,52.1483273 C58.9965,52.1483273 58.2425,51.0793273 56.8585,52.1483273 C55.4745,53.2173273 55.0665,55.5443273 55.0665,55.5443273 L54.5945,59.0033273 L42.7705,48.1233273 C42.7705,48.1233273 41.3865,46.2993273 42.7705,44.7903273 C44.1545,43.2803273 44.2185,43.1393273 44.2185,43.1393273 C44.2185,43.1393273 46.4355,47.3453273 50.8215,44.8003273 C52.8725,43.6103273 54.1895,41.8933273 54.4265,38.8593273 C54.6105,36.4943273 53.9485,34.8053273 52.6165,33.6443273 C52.1155,33.2083273 51.5665,32.8593273 51.3235,32.2153273 C50.9605,31.2553273 51.1925,30.7983273 51.2555,29.7993273 C51.3115,28.9063273 51.3005,27.9703273 51.3575,27.0773273 Z" id="Stroke-34" stroke="#1F180E" stroke-width="0.25"></path>
                <path d="M43.0979,29.7852273 C43.0609,31.2132273 42.5369,32.6472273 41.6329,33.7522273 C41.2419,34.2302273 40.7239,34.6952273 40.2429,34.9972273 C40.1599,35.0492273 39.9769,35.1522273 39.8469,35.2212273 C39.7699,35.2612273 39.6929,35.3012273 39.6139,35.3382273 C39.7639,35.2682273 39.5549,35.3612273 39.5279,35.3722273 C39.4469,35.4052273 39.3659,35.4372273 39.2849,35.4682273 C39.2589,35.4772273 38.9949,35.5632273 39.1309,35.5232273 C39.2679,35.4812273 38.9989,35.5582273 38.9729,35.5652273 C38.8719,35.5922273 38.7709,35.6172273 38.6689,35.6402273 C38.3919,35.7032273 37.6119,35.9772273 37.7029,36.3812273 C37.7949,36.7882273 38.6869,36.5902273 38.9099,36.5392273 C40.6549,36.1402273 42.3139,35.2182273 43.4959,33.8632273 C44.6279,32.5662273 45.2269,30.9142273 45.2709583,29.2032273 C45.2839,28.6912273 43.1169,29.0332273 43.0979,29.7852273" id="Fill-36" fill="#231F20"></path>
                <path d="M40.363,11.8721273 C40.083,11.9111273 39.773,11.9551273 39.416,12.0051273 C39.368,12.5521273 39.321,13.0791273 39.273,13.6141273 C38.499,13.7891273 38.147,13.5071273 38.311,12.7851273 C38.526,11.8351273 38.788,10.8921273 39.106,9.9721273 C39.184,9.7461273 39.559,9.6231273 39.798,9.4531273 C39.924,9.6741273 40.118,9.8821273 40.162,10.1181273 C40.265,10.6751273 40.296,11.2441273 40.363,11.8721273" id="Fill-38" fill="#231F20"></path>
                <path d="M24.7381,35.3083273 C24.4491,35.6183273 24.2211,35.8623273 23.9541,36.1493273 C24.2431,36.2923273 24.5181,36.4293273 24.8651,36.6013273 C24.4051,37.2673273 23.9721,37.1923273 23.4271,36.8203273 C23.1111,36.6053273 22.6731,36.5733273 22.3451,36.3703273 C22.1741,36.2643273 21.9761,35.8813273 22.0411,35.7673273 C22.4141,35.1173273 23.9041,34.8463273 24.7381,35.3083273" id="Fill-40" fill="#231F20"></path>
            </g>
        </g>
    </g>
</svg>