<?xml version="1.0" encoding="UTF-8"?>
<svg width="133px" height="128px" viewBox="0 0 133 128" version="1.1" xmlns="http://www.w3.org/2000/svg" xmlns:xlink="http://www.w3.org/1999/xlink">
    <title>Group 6</title>
    <defs>
        <polygon id="path-1" points="-3.01061259e-15 0 126.267574 0 126.267574 76.0988889 -3.01061259e-15 76.0988889"></polygon>
    </defs>
    <g id="Tablet" stroke="none" stroke-width="1" fill="none" fill-rule="evenodd">
        <g id="6a.-Offer-Full-Modal-Loading" transform="translate(-313.000000, -122.000000)">
            <g id="Group-7-Copy" transform="translate(164.000000, 122.000000)">
                <g id="Group-2" transform="translate(149.000000, 0.000000)">
                    <rect id="Rectangle" fill="#ECF4FC" x="2" y="0" width="131" height="124" rx="62"></rect>
                    <g id="Group-56" transform="translate(0.000000, 51.000000)">
                        <g id="Group-3">
                            <mask id="mask-2" fill="white">
                                <use xlink:href="#path-1"></use>
                            </mask>
                            <g id="Clip-2"></g>
                            <path d="M125.397476,51.8888889 C125.397476,54.4688889 124.837476,54.9988889 122.217476,54.9988889 L95.0974758,54.9988889 C86.1774758,54.9888889 77.2474758,54.9888889 68.3274758,54.9888889 C65.6574758,54.9888889 65.2974758,54.6088889 65.2974758,51.8488889 C65.2974758,40.3488889 65.3074758,28.8488889 65.2974758,17.3588889 C65.2974758,12.6888889 65.2874758,8.01888889 65.2674758,3.34888889 C65.2674758,1.23888889 65.6674758,0.808888889 67.7374758,0.808888889 C85.7574758,0.808888889 103.787476,0.808888889 121.807476,0.818888889 C124.917476,0.818888889 125.397476,1.26888889 125.397476,4.28888889 C125.407476,20.1588889 125.407476,36.0188889 125.397476,51.8888889 L125.397476,51.8888889 Z M118.657476,61.7388889 C118.657476,62.7788889 118.157476,63.1588889 117.117476,63.2888889 C115.007476,63.5488889 113.557476,62.8388889 112.697476,60.8788889 C112.017476,59.3488889 111.257476,57.8488889 110.377476,56.0088889 C112.847476,56.0088889 114.997476,55.9888889 117.137476,56.0188889 C118.107476,56.0388889 118.677476,56.5288889 118.657476,57.6088889 C118.617476,58.9888889 118.647476,60.3688889 118.657476,61.7388889 L118.657476,61.7388889 Z M111.987476,63.3888889 C111.517476,62.9488889 110.907476,62.5988889 110.597476,62.0588889 C108.837476,59.0388889 106.717476,56.5588889 102.887476,56.4188889 C98.7874758,56.2688889 96.4774758,58.7688889 94.6374758,62.0088889 C94.3074758,62.5888889 93.6774758,63.0088889 93.1774758,63.4988889 C92.9374758,63.3288889 92.6974758,63.1588889 92.4674758,62.9788889 C93.5674758,60.7888889 94.6274758,58.5688889 95.8074758,56.4288889 C95.9874758,56.1088889 96.7574758,56.0188889 97.2574758,56.0088889 C100.727476,55.9788889 104.187476,55.9288889 107.647476,56.0388889 C108.317476,56.0588889 109.237476,56.6088889 109.577476,57.1888889 C110.667476,59.0188889 111.547476,60.9788889 112.497476,62.8788889 C112.327476,63.0488889 112.157476,63.2188889 111.987476,63.3888889 L111.987476,63.3888889 Z M102.417476,71.2188889 C99.9374758,71.1588889 98.0974758,68.9788889 98.1774758,66.1988889 C98.2474758,63.4888889 100.317476,61.1888889 102.627476,61.2488889 C104.897476,61.3088889 106.807476,63.7188889 106.737476,66.4488889 C106.677476,69.1688889 104.757476,71.2888889 102.417476,71.2188889 L102.417476,71.2188889 Z M96.1574758,70.4188889 C94.4774758,68.3088889 94.5574758,64.3288889 96.3274758,61.3288889 C98.0374758,58.4288889 100.637476,57.1988889 103.777476,57.7888889 C98.2974758,57.6988889 94.1574758,63.5488889 96.1574758,70.4188889 L96.1574758,70.4188889 Z M89.5274758,63.2488889 C81.1474758,63.2688889 72.7674758,63.2788889 64.3874758,63.1988889 C63.6774758,63.1888889 62.6674758,62.6188889 62.3174758,62.0188889 C61.2774758,60.2388889 60.4974758,58.3088889 59.4774758,56.1488889 L94.6474758,56.1488889 C93.3674758,58.4888889 92.2274758,60.6788889 90.9674758,62.7888889 C90.7674758,63.1188889 90.0174758,63.2388889 89.5274758,63.2488889 L89.5274758,63.2488889 Z M60.8574758,63.3588889 C60.4274758,63.0488889 59.8974758,62.8188889 59.5974758,62.4088889 C58.8774758,61.4588889 58.3874758,60.3288889 57.6174758,59.4288889 C53.8874758,55.0188889 47.5274758,55.5788889 44.3674758,60.5488889 C43.8274758,61.3988889 43.2874758,62.2588889 42.7274758,63.0888889 C42.6574758,63.1888889 42.3974758,63.1588889 41.7774758,63.2588889 C42.3774758,61.0988889 42.7774758,59.1788889 43.4474758,57.3488889 C44.1874758,55.3188889 45.7774758,54.1588889 47.9574758,54.0688889 C50.7074758,53.9488889 53.4674758,53.8988889 56.2174758,53.9788889 C56.7774758,53.9888889 57.5574758,54.5688889 57.8174758,55.0988889 C59.0674758,57.6688889 60.1674758,60.3088889 61.3174758,62.9188889 C61.1674758,63.0688889 61.0174758,63.2088889 60.8574758,63.3588889 L60.8574758,63.3588889 Z M51.3874758,71.2088889 C48.8474758,71.2288889 47.0674758,69.2188889 47.0674758,66.3288889 C47.0674758,63.5488889 48.9574758,61.2988889 51.3374758,61.2488889 C53.5274758,61.1988889 55.6374758,63.6988889 55.6374758,66.3388889 C55.6374758,68.9988889 53.7274758,71.1888889 51.3874758,71.2088889 L51.3874758,71.2088889 Z M44.6574758,70.1688889 C43.4474758,66.9588889 43.4574758,63.8088889 45.4674758,60.8688889 C47.1974758,58.3588889 49.5474758,57.0988889 52.7074758,57.7888889 C46.6074758,58.2888889 44.2274758,62.0088889 44.6574758,70.1688889 L44.6574758,70.1688889 Z M27.4274758,54.3888889 C27.5274758,55.7588889 27.4974758,57.1488889 27.4374758,58.5188889 C27.4174758,58.9388889 27.2474758,59.5488889 26.9374758,59.7188889 C24.1774758,61.2988889 20.7874758,59.3388889 20.7974758,56.2188889 C20.7974758,55.5688889 20.8074758,54.9088889 20.7974758,54.2488889 C20.7774758,52.8188889 21.5974758,51.8288889 22.8574758,51.7088889 C25.0074758,51.4988889 27.1874758,51.6488889 29.3574758,51.6488889 C29.4074758,51.9088889 29.4474758,52.1588889 29.4974758,52.4188889 C27.5574758,51.9788889 27.3274758,52.9588889 27.4274758,54.3888889 L27.4274758,54.3888889 Z M20.0374758,56.6288889 L20.0374758,57.1188889 L13.2574758,57.1188889 C13.2474758,56.9588889 13.2474758,56.7888889 13.2374758,56.6288889 L20.0374758,56.6288889 Z M19.3074758,55.0688889 C16.7474758,55.4588889 13.7974758,55.0888889 13.0874758,54.1188889 L19.9974758,54.1188889 C20.0674758,54.2388889 20.1274758,54.3588889 20.1874758,54.4788889 C19.8974758,54.6788889 19.6274758,55.0188889 19.3074758,55.0688889 L19.3074758,55.0688889 Z M40.2874758,58.7488889 C39.7574758,60.6588889 39.4374758,62.6188889 38.8474758,64.4988889 C38.6574758,65.0788889 37.8774758,65.8588889 37.3374758,65.8888889 C34.4874758,66.0288889 31.6174758,65.9488889 28.6474758,65.9488889 C28.3274758,62.6688889 27.3874758,61.8388889 24.2374758,61.8288889 C19.4374758,61.8088889 14.6474758,61.7988889 9.85747576,61.8288889 C8.97747576,61.8288889 8.09747576,61.9988889 7.05747576,62.1088889 C6.75747576,61.3388889 6.71747576,60.6888889 7.95747576,60.8488889 C10.0674758,61.1288889 11.8774758,60.7488889 13.1474758,58.8288889 C13.3174758,58.5788889 13.8674758,58.4988889 14.2474758,58.4888889 C15.3874758,58.4388889 16.5274758,58.5188889 17.6674758,58.4588889 C18.9674758,58.3788889 20.0674758,58.4588889 20.8974758,59.7388889 C21.2674758,60.2988889 22.1974758,60.7188889 22.8974758,60.7688889 C24.9274758,60.9088889 26.9774758,60.9888889 28.9874758,60.7988889 C30.8174758,60.6288889 31.8174758,59.1388889 31.7674758,57.2188889 C31.7474758,56.2588889 31.7074758,55.2988889 31.7174758,54.3488889 C31.7174758,52.2788889 30.6374758,50.9288889 28.5374758,50.7688889 C26.7474758,50.6288889 24.9474758,50.6788889 23.1574758,50.7888889 C22.4774758,50.8288889 21.5674758,51.0888889 21.2174758,51.5788889 C19.9374758,53.3788889 18.1274758,52.7788889 16.4774758,52.8188889 C14.8474758,52.8688889 13.1974758,53.1788889 11.8874758,51.5488889 C11.4174758,50.9488889 10.1674758,50.9188889 9.25747576,50.7488889 C8.63747576,50.6388889 7.97747576,50.7288889 7.13747576,50.7288889 C7.24747576,49.5288889 7.35747576,48.4388889 7.41747576,47.7788889 C12.9674758,47.8688889 18.2574758,47.9088889 23.5374758,48.0988889 C24.4074758,48.1288889 25.2674758,48.7488889 26.0974758,49.1488889 C27.3174758,49.7488889 27.4874758,49.2288889 27.1674758,48.0688889 C29.8774758,48.0688889 32.5574758,47.9988889 35.2274758,48.0888889 C37.3274758,48.1588889 39.0774758,47.5088889 40.1374758,45.7088889 C42.4674758,41.7388889 45.8274758,40.2988889 50.3674758,40.8188889 C53.0074758,41.1188889 54.2674758,39.8588889 54.3474758,37.1388889 C54.4574758,33.1888889 54.4174758,29.2288889 54.2274758,25.2888889 C54.1974758,24.6188889 53.2274758,23.7188889 52.4874758,23.4288889 C51.5974758,23.0688889 50.4874758,23.1888889 49.4774758,23.1888889 C39.8874758,23.1688889 30.3074758,23.1688889 20.7174758,23.1888889 C19.4874758,23.1888889 18.2674758,23.3088889 16.7974758,23.3888889 C18.0674758,20.9488889 19.9174758,19.6788889 22.2974758,19.5588889 C27.2574758,19.3288889 32.2274758,19.2788889 37.1974758,19.2388889 C42.1674758,19.2088889 47.1374758,19.2888889 52.1074758,19.3188889 C52.4074758,19.3188889 52.7074758,19.2988889 53.0074758,19.3188889 C56.3974758,19.5788889 57.0774758,20.0588889 57.3074758,23.4188889 C57.5574758,27.0488889 57.4974758,30.7088889 57.4774758,34.3588889 C57.4474758,39.3888889 57.3374758,44.4188889 57.2574758,49.4488889 C57.2274758,51.6888889 57.0574758,51.8588889 54.7574758,51.8688889 C52.9574758,51.8788889 51.1574758,51.8788889 49.3674758,51.8788889 C43.6174758,51.8788889 41.8174758,53.2188889 40.2874758,58.7488889 L40.2874758,58.7488889 Z M24.6774758,67.4288889 C19.4074758,67.4588889 14.1374758,67.4488889 8.86747576,67.4288889 C7.44747576,67.4188889 6.22747576,67.0688889 6.21747576,65.2488889 C6.21747576,63.7288889 7.01747576,62.8388889 8.87747576,62.7688889 C11.5674758,62.6588889 14.2674758,62.7388889 16.9674758,62.7388889 L16.9674758,62.7188889 C19.4774758,62.7188889 21.9974758,62.6988889 24.5074758,62.7288889 C26.5474758,62.7488889 27.3774758,63.4788889 27.4074758,65.1088889 C27.4474758,67.0188889 26.1774758,67.4188889 24.6774758,67.4288889 L24.6774758,67.4288889 Z M8.95747576,54.0488889 C8.96747576,54.0588889 8.97747576,54.0588889 8.98747576,54.0588889 C9.69747576,54.3088889 9.95747576,55.3688889 9.87747576,56.0288889 C9.79747576,56.6888889 9.06747576,57.0488889 8.46747576,56.9288889 C7.91747576,56.8188889 7.42747576,56.3788889 7.29747576,55.8288889 C7.11747576,55.0288889 8.09747576,53.7788889 8.95747576,54.0488889 L8.95747576,54.0488889 Z M6.92747576,51.6488889 C8.60747576,51.6488889 10.7474758,50.8088889 11.5174758,52.5388889 C12.2774758,54.2388889 12.4174758,56.5488889 11.9574758,58.3688889 C11.3574758,60.7188889 8.81747576,59.5788889 6.96747576,60.2388889 L6.96747576,57.1788889 C8.06747576,58.0288889 9.39747576,58.5188889 10.2374758,57.2088889 C10.7174758,56.4788889 10.7874758,55.0588889 10.3874758,54.2988889 C9.60747576,52.8188889 8.21747576,53.1788889 6.92747576,54.1588889 L6.92747576,51.6488889 Z M23.7874758,41.5288889 C22.7374758,41.5788889 21.7274758,40.9788889 21.3974758,39.9788889 C20.8274758,38.2288889 21.6174758,34.5088889 23.8974758,34.4788889 C25.1774758,34.4588889 25.8974758,36.4188889 25.9674758,38.0588889 C26.0474758,39.7688889 25.3874758,41.4488889 23.7874758,41.5288889 L23.7874758,41.5288889 Z M33.1674758,24.1988889 C39.7774758,24.1988889 45.7574758,24.1988889 51.7374758,24.2088889 C52.7874758,24.2088889 53.4874758,24.6888889 53.4775815,25.8088889 C53.4074758,29.6388889 53.3474758,33.4588889 53.2074758,37.2788889 C53.1374758,39.0788889 52.1174758,39.9688889 50.2774758,39.9088889 C49.3874758,39.8788889 48.4574758,40.0988889 47.5974758,39.9488889 C44.5274758,39.4388889 42.3274758,40.7088889 40.7774758,43.2088889 C39.0174758,46.0688889 36.6874758,47.5888889 33.1974758,47.0988889 C31.9074758,46.9188889 30.5674758,47.1288889 29.2574758,47.1088889 C28.3574758,47.0888889 27.9874758,46.5988889 28.1974758,45.6788889 C29.8574758,38.5388889 31.5074758,31.3988889 33.1674758,24.1988889 L33.1674758,24.1988889 Z M9.66747576,39.4088889 C11.5374758,34.6888889 13.5474758,30.0188889 15.5674758,25.3688889 C15.7774758,24.8688889 16.4474758,24.2488889 16.9074758,24.2388889 C22.1074758,24.1588889 27.3074758,24.1888889 32.4474758,24.1888889 C31.2674758,28.5688889 30.0474758,32.7988889 28.9974758,37.0788889 C28.3074758,39.9188889 27.7674758,42.7988889 27.3174758,45.6888889 C27.0974758,47.0688889 26.2674758,47.4488889 25.3874758,46.8288889 C24.6974758,46.3388889 24.3074758,45.2088889 24.1274758,44.2988889 C23.9574758,43.4788889 23.7574758,42.4988889 25.1374758,41.9988889 C25.8774758,41.7388889 26.4974758,40.5788889 26.7574758,39.6988889 C27.0274758,38.7588889 26.8874758,37.6688889 26.7974758,36.6688889 C26.6274758,34.7388889 25.6574758,33.8988889 23.7474758,33.8888889 C21.9074758,33.8688889 20.7274758,34.7988889 20.6674758,36.6688889 C20.6074758,38.7788889 19.8974758,41.2488889 22.7874758,42.3288889 C22.9974758,42.4088889 23.0774758,42.9388889 23.1174758,43.2788889 C23.2774758,44.3988889 23.3974758,45.5188889 23.5874758,47.0788889 C18.3374758,46.9488889 13.0574758,47.4688889 7.49747576,46.2288889 C8.25747576,43.7988889 8.81747576,41.5488889 9.66747576,39.4088889 L9.66747576,39.4088889 Z M38.8574758,2.57888889 C38.8774758,1.11888889 39.9974758,0.808888889 41.2774758,0.808888889 C47.6874758,0.818888889 54.0974758,0.808888889 60.5074758,0.808888889 L64.6174758,0.808888889 L64.6174758,54.9888889 C62.9174758,54.9888889 61.3074758,55.0488889 59.7074758,54.9688889 C58.8074758,54.9188889 58.4874758,54.4488889 58.9374758,53.4988889 C59.2974758,52.7788889 59.6074758,51.9388889 59.6174758,51.1588889 C59.6674758,42.5888889 59.7074758,34.0188889 59.6274758,25.4588889 C59.5774758,20.4888889 57.3974758,18.4588889 52.3774758,18.4188889 C48.0674758,18.3888889 43.7474758,18.4088889 39.4374758,18.3988889 C39.3274758,18.3988889 39.2074758,18.3388889 38.8274758,18.2288889 C38.8274758,12.9788889 38.7874758,7.77888889 38.8574758,2.57888889 L38.8574758,2.57888889 Z M1.60747576,41.0888889 C0.957475763,40.6188889 0.697475763,39.6688889 0.567475763,38.9188889 C0.517475763,38.6788889 0.497475763,38.4388889 0.487475763,38.1888889 C0.467475763,37.5888889 0.537475763,36.9688889 0.687475763,36.3988889 C0.797475763,35.9788889 0.957475763,35.5588889 1.22747576,35.2188889 C1.57747576,34.8088889 2.15747576,34.5788889 2.68747576,34.5188889 C3.31747576,34.4488889 3.71747576,34.7088889 4.21747576,35.0688889 C4.87747576,35.5488889 5.19747576,35.9488889 5.18747576,36.7988889 C5.18747576,38.2088889 4.96747576,39.6488889 4.47747576,40.9788889 C4.32747576,41.3588889 2.25747576,41.5488889 1.60747576,41.0888889 L1.60747576,41.0888889 Z M126.257476,3.72888889 C126.257476,0.788888889 125.517476,0.0588888889 122.547476,0.00888888889 C121.647476,-0.0111111111 120.747476,0.00888888889 119.847476,0.00888888889 L42.0274758,0.00888888889 C38.6374758,0.00888888889 37.9474758,0.708888889 37.9474758,4.12888889 L37.9474758,18.4588889 C33.3674758,18.4588889 29.0074758,18.4888889 24.6474758,18.4488889 C20.2474758,18.3988889 17.0174758,20.2188889 15.1874758,24.2588889 C13.4374758,28.1288889 11.6274758,31.9788889 10.0974758,35.9288889 C8.64747576,39.6988889 7.52747576,43.5888889 6.20747576,47.5988889 C5.60747576,47.1788889 4.85747576,46.7888889 4.29747576,46.2288889 C2.75747576,44.6988889 3.02747576,43.0488889 4.79747576,41.8488889 C5.34747576,41.4888889 5.87747576,40.8088889 6.00747576,40.1788889 C6.21747576,39.1488889 6.13747576,38.0388889 6.11747576,36.9588889 C6.07747576,34.9688889 5.05747576,33.9488889 3.14747576,33.9188889 C1.11747576,33.8888889 0.067475763,34.8988889 0.017475763,36.9688889 C-0.00252423698,37.6888889 0.047475763,38.4088889 0.00747576302,39.1288889 C-0.072524237,40.5388889 0.487475763,41.5188889 1.78747576,42.1488889 C2.11747576,42.3088889 2.52747576,42.8188889 2.49747576,43.1388889 C2.25747576,45.6888889 3.64747576,47.1288889 5.67747576,48.2688889 C6.02747576,48.4688889 6.33747576,49.0888889 6.33747576,49.5088889 C6.29747576,53.6388889 6.19747576,57.7688889 6.08747576,61.8888889 C6.06747576,62.4688889 5.93747576,63.0688889 5.73747576,63.6088889 C4.76747576,66.2188889 5.98747576,68.2088889 8.74747576,68.3988889 C9.75747576,68.4588889 10.7874758,68.4088889 11.7974758,68.4088889 L22.7574758,68.4088889 C23.1774758,69.5888889 23.4074758,70.5988889 23.8774758,71.4888889 C25.2274758,74.0688889 27.1474758,75.9288889 30.2574758,76.0588889 C33.9674758,76.2288889 37.1374758,73.5588889 38.1474758,69.5388889 C38.2974758,68.9188889 38.6674758,68.0588889 39.1474758,67.8888889 C40.3274758,67.4588889 40.8974758,66.7488889 41.0674758,65.5688889 C41.2174758,64.5188889 41.7574758,64.1288889 42.7674758,64.6188889 C43.0274758,71.7688889 46.0674758,75.9288889 51.0974758,76.0688889 C56.5074758,76.2188889 59.5174758,72.4088889 60.1174758,64.5388889 L73.6574758,64.5388889 C73.5174758,71.9188889 76.2774758,76.0788889 81.2474758,76.0989076 C86.2474758,76.1088889 88.9374758,72.1188889 88.9874758,64.5588889 L94.0674758,64.5588889 C93.8274758,70.9288889 96.9274758,75.5988889 101.567476,76.0388889 C103.757476,76.2488889 105.747476,75.7788889 107.447476,74.3788889 C110.547476,71.8488889 111.387476,68.3988889 111.107476,64.4188889 C113.127476,64.4188889 114.977476,64.3588889 116.817476,64.4288889 C118.557476,64.4988889 119.747476,63.9688889 120.127476,62.2088889 C120.987476,61.6488889 122.047476,60.9988889 122.237476,60.1488889 C122.737476,57.9488889 122.407476,57.6288889 119.857476,55.8488889 L122.437476,55.8488889 C125.527476,55.8488889 126.277476,55.0988889 126.267574,52.0788889 L126.267574,27.0888889 C126.257476,19.2988889 126.267574,11.5088889 126.257476,3.72888889 L126.257476,3.72888889 Z" id="Fill-1" fill="#231F20" mask="url(#mask-2)"></path>
                        </g>
                        <path d="M9.87747576,56.0288889 C9.79747576,56.6888889 9.06747576,57.0488889 8.46747576,56.9288889 C7.91747576,56.8188889 7.42747576,56.3788889 7.29747576,55.8288889 C7.11747576,55.0288889 8.09747576,53.7788889 8.95747576,54.0488889 C8.96747576,54.0588889 8.97747576,54.0588889 8.98747576,54.0588889 C9.69747576,54.3088889 9.95747576,55.3688889 9.87747576,56.0288889" id="Fill-4" fill="#FBB016"></path>
                        <path d="M9.87747576,56.0288889 C9.79747576,56.6888889 9.06747576,57.0488889 8.46747576,56.9288889 C7.91747576,56.8188889 7.42747576,56.3788889 7.29747576,55.8288889 C7.11747576,55.0288889 8.09747576,53.7788889 8.95747576,54.0488889 C8.96747576,54.0588889 8.97747576,54.0588889 8.98747576,54.0588889 C9.69747576,54.3088889 9.95747576,55.3688889 9.87747576,56.0288889 Z" id="Stroke-6" stroke="#1F180E" stroke-width="0.25"></path>
                        <path d="M95.0939758,54.9928889 C86.1729758,54.9898889 77.2509758,54.9918889 68.3299758,54.9888889 C65.6549758,54.9888889 65.2939758,54.6058889 65.2949758,51.8448889 C65.2979758,40.3488889 65.3029758,28.8518889 65.3009758,17.3558889 C65.2999758,12.6878889 65.2849758,8.01988889 65.2719303,3.35188889 C65.2669758,1.24188889 65.6719758,0.812888889 67.7389758,0.812888889 C85.7619758,0.812290813 103.783976,0.812290813 121.806976,0.814888889 C124.913976,0.815888889 125.400976,1.27288889 125.401976,4.28688889 C125.409976,20.1548889 125.408976,36.0218889 125.401976,51.8888889 C125.400976,54.4678889 124.837976,54.9958889 122.217976,54.9958889 C113.175976,54.9948889 104.134976,54.9958889 95.0939758,54.9928889" id="Fill-8" fill="#FBB016"></path>
                        <path d="M95.0939758,54.9928889 C86.1729758,54.9898889 77.2509758,54.9918889 68.3299758,54.9888889 C65.6549758,54.9888889 65.2939758,54.6058889 65.2949758,51.8448889 C65.2979758,40.3488889 65.3029758,28.8518889 65.3009758,17.3558889 C65.2999758,12.6878889 65.2849758,8.01988889 65.2719303,3.35188889 C65.2669758,1.24188889 65.6719758,0.812888889 67.7389758,0.812888889 C85.7619758,0.812290813 103.783976,0.812290813 121.806976,0.814888889 C124.913976,0.815888889 125.400976,1.27288889 125.401976,4.28688889 C125.409976,20.1548889 125.408976,36.0218889 125.401976,51.8888889 C125.400976,54.4678889 124.837976,54.9958889 122.217976,54.9958889 C113.175976,54.9948889 104.134976,54.9958889 95.0939758,54.9928889 Z" id="Stroke-10" stroke="#1F180E" stroke-width="0.25"></path>
                        <path d="M51.2458758,46.2392889 L51.2458758,46.2482889 C51.5438758,46.2482889 51.9058758,46.3562889 52.1288758,46.2262889 C52.6698758,45.9132889 53.1468758,45.4892889 53.6488758,45.1102889 C53.1538758,44.7072889 52.7148758,44.1412889 52.1478758,43.9472889 C51.5608758,43.7472889 50.7998758,43.7572889 50.2088758,43.9562889 C49.6888758,44.1312889 49.2998758,44.6942889 48.8528758,45.0852889 C49.2918758,45.4702889 49.6918758,45.9232889 50.1878758,46.2112889 C50.4558758,46.3672889 50.8878758,46.2392889 51.2458758,46.2392889 M28.6438758,65.9512889 C28.3278758,62.6732889 27.3898758,61.8352889 24.2328758,61.8262889 C19.4408758,61.8132889 14.6488758,61.8032889 9.85687576,61.8272889 C8.97387576,61.8312889 8.09287576,62.0002889 7.05887576,62.1092889 C6.75987576,61.3352889 6.71887576,60.6862889 7.95987576,60.8492889 C10.0718758,61.1272889 11.8768758,60.7462889 13.1468758,58.8282889 C13.3138758,58.5762889 13.8698758,58.5012889 14.2518758,58.4862889 C15.3878758,58.4422889 16.5298758,58.5222889 17.6648758,58.4552889 C18.9638758,58.3792889 20.0648758,58.4612889 20.9018758,59.7422889 C21.2638758,60.2972889 22.1958758,60.7172889 22.8998758,60.7672889 C24.9228758,60.9122889 26.9758758,60.9892889 28.9898758,60.8022889 C30.8188758,60.6322889 31.8168758,59.1352889 31.7688758,57.2182889 C31.7448758,56.2602889 31.7098758,55.3022889 31.7128758,54.3452889 C31.7198758,52.2742889 30.6408758,50.9332889 28.5378758,50.7692889 C26.7528758,50.6302889 24.9428758,50.6752889 23.1538758,50.7852889 C22.4808758,50.8262889 21.5678758,51.0912889 21.2198758,51.5782889 C19.9368758,53.3802889 18.1268758,52.7752889 16.4748758,52.8222889 C14.8488758,52.8692889 13.1948758,53.1782889 11.8918758,51.5452889 C11.4178758,50.9512889 10.1708758,50.9202889 9.25387576,50.7502889 C8.63387576,50.6362889 7.97487576,50.7282889 7.13987576,50.7282889 C7.25187576,49.5252889 7.35287576,48.4372889 7.41487576,47.7742889 C12.9678758,47.8692889 18.2548758,47.9122889 23.5378758,48.0962889 C24.4038758,48.1272889 25.2638758,48.7462889 26.0978758,49.1522889 C27.3178758,49.7452889 27.4858758,49.2292889 27.1708758,48.0652889 C29.8778758,48.0652889 32.5548758,47.9942889 35.2258758,48.0872889 C37.3318758,48.1602889 39.0758758,47.5072889 40.1338758,45.7092889 C42.4708758,41.7352889 45.8258758,40.2952889 50.3678758,40.8172889 C53.0078758,41.1202889 54.2678758,39.8542889 54.3458758,37.1372889 C54.4598758,33.1892889 54.4168758,29.2312889 54.2318758,25.2872889 C54.1998758,24.6182889 53.2278758,23.7222889 52.4918758,23.4282889 C51.5958758,23.0702889 50.4898758,23.1872889 49.4748758,23.1862889 C39.8898758,23.1722889 30.3058758,23.1702889 20.7208758,23.1862889 C19.4918758,23.1882889 18.2628758,23.3102889 16.8008758,23.3892889 C18.0658758,20.9512889 19.9138758,19.6742889 22.2968758,19.5622889 C27.2588758,19.3312889 32.2298758,19.2772889 37.1978758,19.2432889 C42.1688758,19.2102889 47.1408758,19.2902889 52.1118758,19.3202889 C52.4108758,19.3222889 52.7128758,19.2942889 53.0098758,19.3172889 C56.3948758,19.5812889 57.0758758,20.0542889 57.3058758,23.4162889 C57.5548758,27.0502889 57.4958758,30.7092889 57.4778758,34.3562889 C57.4518758,39.3872889 57.3398758,44.4162889 57.2608758,49.4462889 C57.2258758,51.6932889 57.0538758,51.8612889 54.7548758,51.8732889 C52.9578758,51.8822889 51.1608758,51.8752889 49.3638758,51.8752889 C43.6218758,51.8782889 41.8188758,53.2232889 40.2888758,58.7522889 C39.7618758,60.6552889 39.4418758,62.6182889 38.8428758,64.4952889 C38.6558758,65.0802889 37.8798758,65.8602889 37.3418758,65.8862889 C34.4838758,66.0242889 31.6158758,65.9512889 28.6438758,65.9512889" id="Fill-12" fill="#FEFEFE"></path>
                        <path d="M38.8301758,18.2306889 C38.8301758,12.9826889 38.7901758,7.78168889 38.8551758,2.58168889 C38.8741758,1.11868889 39.9991758,0.806688889 41.2741758,0.808679362 C47.6851758,0.822688889 54.0961758,0.812688889 60.5071758,0.811688889 C61.9361758,0.811688889 63.3661758,0.811688889 64.6181758,0.811688889 L64.6181758,54.9876889 C62.9151758,54.9876889 61.3081758,55.0446889 59.7081758,54.9656889 C58.8081758,54.9206889 58.4821758,54.4456889 58.9421758,53.4986889 C59.2931758,52.7746889 59.6081758,51.9426889 59.6131758,51.1566889 C59.6631758,42.5896889 59.7101758,34.0226889 59.6291758,25.4566889 C59.5811758,20.4846889 57.3981758,18.4586889 52.3761758,18.4226889 C48.0631758,18.3916889 43.7491758,18.4056889 39.4361758,18.3946889 C39.3231758,18.3936889 39.2111758,18.3356889 38.8301758,18.2306889" id="Fill-14" fill="#FBB016"></path>
                        <path d="M38.8301758,18.2306889 C38.8301758,12.9826889 38.7901758,7.78168889 38.8551758,2.58168889 C38.8741758,1.11868889 39.9991758,0.806688889 41.2741758,0.808679362 C47.6851758,0.822688889 54.0961758,0.812688889 60.5071758,0.811688889 C61.9361758,0.811688889 63.3661758,0.811688889 64.6181758,0.811688889 L64.6181758,54.9876889 C62.9151758,54.9876889 61.3081758,55.0446889 59.7081758,54.9656889 C58.8081758,54.9206889 58.4821758,54.4456889 58.9421758,53.4986889 C59.2931758,52.7746889 59.6081758,51.9426889 59.6131758,51.1566889 C59.6631758,42.5896889 59.7101758,34.0226889 59.6291758,25.4566889 C59.5811758,20.4846889 57.3981758,18.4586889 52.3761758,18.4226889 C48.0631758,18.3916889 43.7491758,18.4056889 39.4361758,18.3946889 C39.3231758,18.3936889 39.2111758,18.3356889 38.8301758,18.2306889 Z" id="Stroke-16" stroke="#1F180E" stroke-width="0.25"></path>
                        <path d="M33.1689758,24.2013889 C39.7789758,24.2013889 45.7599758,24.1973889 51.7409758,24.2053889 C52.7919758,24.2063889 53.4919758,24.6903889 53.4739758,25.8123889 C53.4099758,29.6353889 53.3469758,33.4583889 53.2059758,37.2793889 C53.1389758,39.0753889 52.1199758,39.9673889 50.2789758,39.9063889 C49.3839758,39.8763889 48.4609758,40.0983889 47.5929758,39.9533889 C44.5279758,39.4403889 42.3249758,40.7103889 40.7819758,43.2053889 C39.0129758,46.0673889 36.6909758,47.5873889 33.1979758,47.0963889 C31.9109758,46.9153889 30.5719758,47.1303889 29.2579758,47.1053889 C28.3549758,47.0873889 27.9839758,46.5983889 28.1969758,45.6793889 C29.8549758,38.5413889 31.5029758,31.4023889 33.1689758,24.2013889" id="Fill-18" fill="#FEFEFE"></path>
                        <path d="M32.4505758,24.1931889 C31.2705758,28.5671889 30.0525758,32.8021889 29.0015758,37.0781889 C28.3035758,39.9151889 27.7675758,42.7991889 27.3145758,45.6861889 C27.0985758,47.0681889 26.2645758,47.4461889 25.3885758,46.8241889 C24.6995758,46.3351889 24.3045758,45.2071889 24.1225758,44.2941889 C23.9605758,43.4761889 23.7575758,42.5011889 25.1355758,42.0021889 C25.8755758,41.7351889 26.4965758,40.5751889 26.7555758,39.6951889 C27.0305758,38.7601889 26.8875758,37.6731889 26.7965758,36.6651889 C26.6225758,34.7381889 25.6555758,33.8991889 23.7465758,33.8851889 C21.9105758,33.8711889 20.7305758,34.7991889 20.6725758,36.6641889 C20.6065758,38.7801889 19.8965758,41.2441889 22.7895758,42.3281889 C22.9935758,42.4041889 23.0725758,42.9421889 23.1205758,43.2791889 C23.2815758,44.3971889 23.4005758,45.5211889 23.5895758,47.0831889 C18.3415758,46.9481889 13.0545758,47.4691889 7.49757576,46.2261889 C8.25757576,43.8001889 8.81257576,41.5471889 9.66357576,39.4101889 C11.5405758,34.6921889 13.5435758,30.0241889 15.5635758,25.3651889 C15.7775758,24.8721889 16.4465758,24.2501889 16.9125758,24.2431889 C22.1105758,24.1641889 27.3105758,24.1931889 32.4505758,24.1931889" id="Fill-20" fill="#FEFEFE"></path>
                        <path d="M59.4816758,56.1522889 L94.6466758,56.1522889 C93.3666758,58.4912889 92.2246758,60.6742889 90.9626758,62.7862889 C90.7666758,63.1142889 90.0206758,63.2432889 89.5286758,63.2452889 C81.1476758,63.2672889 72.7666758,63.2832889 64.3856758,63.1972889 C63.6736758,63.1892889 62.6706758,62.6222889 62.3166758,62.0152889 C61.2776758,60.2372889 60.4976758,58.3072889 59.4816758,56.1522889" id="Fill-22" fill="#FEFEFE"></path>
                        <path d="M16.9630758,62.7186889 C19.4790758,62.7186889 21.9950758,62.6946889 24.5110758,62.7266889 C26.5440758,62.7516889 27.3750758,63.4806889 27.4100758,65.1106889 C27.4500758,67.0156889 26.1730758,67.4176889 24.6810758,67.4266889 C19.4110758,67.4586889 14.1410758,67.4506889 8.87107576,67.4246889 C7.44807576,67.4166889 6.22507576,67.0696889 6.22106732,65.2496889 C6.21807576,63.7286889 7.01407576,62.8366889 8.87707576,62.7646889 C11.5690758,62.6596889 14.2670758,62.7376889 16.9630758,62.7376889 C16.9630758,62.7316889 16.9630758,62.7246889 16.9630758,62.7186889" id="Fill-24" fill="#FEFEFE"></path>
                        <path d="M106.740476,66.4480889 C106.672476,69.1680889 104.756476,71.2870889 102.421476,71.2230889 C99.9414758,71.1560889 98.0994758,68.9750889 98.1744758,66.1960889 C98.2484758,63.4910889 100.319476,61.1880889 102.623476,61.2460889 C104.894476,61.3040889 106.808476,63.7230889 106.740476,66.4480889" id="Fill-26" fill="#FEFEFE"></path>
                        <path d="M47.067669,66.3243889 C47.0716758,63.5443889 48.9576758,61.3033889 51.3396758,61.2483889 C53.5316758,61.1973889 55.6406758,63.6953889 55.637679,66.3403889 C55.6356758,69.0003889 53.7296758,71.1843889 51.3906758,71.2073889 C48.8466758,71.2333889 47.0636758,69.2193889 47.067669,66.3243889" id="Fill-28" fill="#FEFEFE"></path>
                        <path d="M41.7742758,63.2600889 C42.3732758,61.0970889 42.7782758,59.1760889 43.4432758,57.3510889 C44.1832758,55.3210889 45.7802758,54.1600889 47.9572758,54.0650889 C50.7082758,53.9440889 53.4672758,53.9000889 56.2192758,53.9760889 C56.7752758,53.9920889 57.5622758,54.5710889 57.8172758,55.0960889 C59.0632758,57.6660889 60.1652758,60.3070889 61.3172758,62.9220889 C61.1652758,63.0670889 61.0132758,63.2120889 60.8602758,63.3570889 C60.4312758,63.0470889 59.8962758,62.8150889 59.5942758,62.4100889 C58.8822758,61.4550889 58.3832758,60.3310889 57.6182758,59.4280889 C53.8832758,55.0160889 47.5252758,55.5760889 44.3702758,60.5480889 C43.8282758,61.4010889 43.2912758,62.2570889 42.7232758,63.0920889 C42.6572758,63.1890889 42.4012758,63.1570889 41.7742758,63.2600889" id="Fill-30" fill="#FEFEFE"></path>
                        <path d="M110.381676,56.0114889 C112.845676,56.0114889 114.992676,55.9844889 117.138676,56.0234889 C118.110676,56.0414889 118.681676,56.5324889 118.653676,57.6094889 C118.618676,58.9864889 118.647676,60.3644889 118.653676,61.7424889 C118.658676,62.7764889 118.158676,63.1634889 117.120676,63.2914889 C115.009676,63.5514889 113.560676,62.8364889 112.692676,60.8734889 C112.016676,59.3454889 111.260676,57.8524889 110.381676,56.0114889" id="Fill-32" fill="#FEFEFE"></path>
                        <path d="M111.988276,63.3926889 C111.515276,62.9526889 110.902276,62.5946889 110.592276,62.0606889 C108.840276,59.0416889 106.716276,56.5636889 102.891276,56.4226889 C98.7922758,56.2706889 96.4762758,58.7646889 94.6382758,62.0056889 C94.3062758,62.5906889 93.6742758,63.0056889 93.1812758,63.4986889 C92.9412758,63.3266889 92.7022758,63.1546889 92.4622758,62.9826889 C93.5632758,60.7896889 94.6242758,58.5736889 95.8112758,56.4276889 C95.9852758,56.1116889 96.7622758,56.0176889 97.2622758,56.0126889 C100.724276,55.9746889 104.190276,55.9256889 107.649276,56.0366889 C108.321276,56.0576889 109.236276,56.6086889 109.581276,57.1876889 C110.671276,59.0166889 111.542276,60.9736889 112.498276,62.8816889 C112.328276,63.0516889 112.158276,63.2226889 111.988276,63.3926889" id="Fill-34" fill="#FEFEFE"></path>
                        <path d="M26.2782758,55.5577889 C26.1922758,54.3887889 25.5982758,53.4577889 24.1642758,53.3457889 C23.0032758,53.2547889 21.8962758,54.4047889 21.9592758,55.6557889 C22.0222758,56.9197889 22.6682758,57.7977889 23.9932758,57.9577889 C25.1552758,58.0967889 26.2262758,57.0117889 26.2782758,55.5577889 M29.4962758,52.4137889 C27.5622758,51.9777889 27.3252758,52.9587889 27.4292758,54.3937889 C27.5282758,55.7637889 27.4962758,57.1477889 27.4382758,58.5217889 C27.4212758,58.9377889 27.2442758,59.5487889 26.9422758,59.7207889 C24.1752758,61.2947889 20.7872758,59.3397889 20.7942649,56.2227889 C20.7952758,55.5647889 20.8072758,54.9057889 20.7962758,54.2477889 C20.7732758,52.8187889 21.5992758,51.8297889 22.8552758,51.7077889 C25.0032758,51.4987889 27.1872758,51.6497889 29.3552758,51.6497889 C29.4022758,51.9047889 29.4492758,52.1597889 29.4962758,52.4137889" id="Fill-36" fill="#FEFEFE"></path>
                        <path d="M6.92287576,54.1556889 L6.92287576,51.6446889 C8.60587576,51.6506889 10.7448758,50.8116889 11.5158758,52.5406889 C12.2738758,54.2396889 12.4198758,56.5516889 11.9568758,58.3696889 C11.3578758,60.7196889 8.81787576,59.5796889 6.96787576,60.2436889 L6.96787576,57.1766889 C8.06987576,58.0306889 9.39387576,58.5136889 10.2418758,57.2086889 C10.7128758,56.4816889 10.7868758,55.0616889 10.3858758,54.2976889 C9.60987576,52.8176889 8.21887576,53.1826889 6.92287576,54.1556889" id="Fill-38" fill="#FEFEFE"></path>
                        <path d="M52.7041758,57.7848889 C46.6071758,58.2878889 44.2241758,62.0128889 44.6591758,70.1708889 C43.4491758,66.9568889 43.4551758,63.8048889 45.4701758,60.8708889 C47.1971758,58.3568889 49.5511758,57.1028889 52.7041758,57.7848889" id="Fill-40" fill="#FEFEFE"></path>
                        <path d="M103.778176,57.7935889 C98.3011758,57.7035889 94.1571758,63.5455889 96.1621758,70.4185889 C94.4811758,68.3135889 94.5561758,64.3325889 96.3321758,61.3275889 C98.0421758,58.4335889 100.640176,57.2005889 103.778176,57.7935889" id="Fill-42" fill="#FEFEFE"></path>
                        <path d="M13.0866758,54.1178889 L20.0016758,54.1178889 C20.0626758,54.2378889 20.1236758,54.3588889 20.1846758,54.4788889 C19.8936758,54.6818889 19.6236758,55.0198889 19.3086758,55.0678889 C16.7496758,55.4578889 13.7966758,55.0838889 13.0866758,54.1178889" id="Fill-44" fill="#FEFEFE"></path>
                        <path d="M13.2370758,56.6289889 L20.0400758,56.6289889 C20.0400758,56.7939889 20.0410758,56.9589889 20.0410758,57.1239889 L13.2570758,57.1239889 C13.2500758,56.9589889 13.2440758,56.7939889 13.2370758,56.6289889" id="Fill-46" fill="#FEFEFE"></path>
                        <path d="M51.2458758,46.2392889 C50.8878758,46.2392889 50.4558758,46.3672889 50.1878758,46.2112889 C50.1278758,46.1762889 50.0688758,46.1392889 50.0118758,46.1002889 C49.2268758,45.5632889 49.2918758,44.2872889 50.1858758,43.9642889 C50.1938758,43.9612889 50.2018758,43.9592889 50.2088758,43.9562889 C50.7998758,43.7572889 51.5608758,43.7472889 52.1478758,43.9472889 C52.1538758,43.9492889 52.1588758,43.9512889 52.1648758,43.9532889 C53.0808758,44.2792889 53.1368758,45.5872889 52.3188758,46.1112889 C52.2558758,46.1512889 52.1928758,46.1892889 52.1288758,46.2262889 C51.9058758,46.3562889 51.5438758,46.2482889 51.2458758,46.2482889 L51.2458758,46.2392889 Z" id="Fill-48" fill="#231F20"></path>
                        <path d="M23.6274758,57.1088889 C22.9474758,56.8988889 22.0874758,56.1988889 22.3974758,55.3888889 C22.3974758,55.3688889 22.4074758,55.3588889 22.4174758,55.3388889 C22.7474758,54.5888889 23.6474758,53.7988889 24.4974758,54.2088889 C25.0574758,54.4788889 25.6574758,55.1188889 25.6574758,55.7788889 C25.6574758,56.7588889 24.4774758,57.3688889 23.6274758,57.1088889 M24.1674758,53.3488889 C23.0074758,53.2588889 21.8974758,54.4088889 21.9574758,55.6588889 C22.0174758,56.9188889 22.6674758,57.7988889 23.9974758,57.9588889 C25.1574758,58.0988889 26.2274758,57.0088889 26.2774758,55.5588889 C26.1874758,54.3888889 25.5974758,53.4588889 24.1674758,53.3488889" id="Fill-50" fill="#231F20"></path>
                        <path d="M25.6574758,55.7788889 C25.6574758,56.7588889 24.4774758,57.3688889 23.6274758,57.1088889 C22.9474758,56.8988889 22.0874758,56.1988889 22.3974758,55.3888889 C22.3974758,55.3688889 22.4074758,55.3588889 22.4174758,55.3388889 C22.7474758,54.5888889 23.6474758,53.7988889 24.4974758,54.2088889 C25.0574758,54.4788889 25.6574758,55.1188889 25.6574758,55.7788889" id="Fill-52" fill="#FBB016"></path>
                        <path d="M25.6574758,55.7788889 C25.6574758,56.7588889 24.4774758,57.3688889 23.6274758,57.1088889 C22.9474758,56.8988889 22.0874758,56.1988889 22.3974758,55.3888889 C22.3974758,55.3688889 22.4074758,55.3588889 22.4174758,55.3388889 C22.7474758,54.5888889 23.6474758,53.7988889 24.4974758,54.2088889 C25.0574758,54.4788889 25.6574758,55.1188889 25.6574758,55.7788889 Z" id="Stroke-54" stroke="#1F180E" stroke-width="0.25"></path>
                    </g>
                </g>
            </g>
        </g>
    </g>
</svg>