<?xml version="1.0" encoding="UTF-8"?>
<svg width="222px" height="202px" viewBox="0 0 222 202" version="1.1" xmlns="http://www.w3.org/2000/svg" xmlns:xlink="http://www.w3.org/1999/xlink">
    <title>Group 112</title>
    <defs>
        <polygon id="path-1" points="0 201.767 221.599 201.767 221.599 0 0 0"></polygon>
    </defs>
    <g id="Desktop" stroke="none" stroke-width="1" fill="none" fill-rule="evenodd">
        <g id="9.-Shipping-Calculator--annex-2" transform="translate(-345.000000, -980.000000)">
            <g id="Group-112" transform="translate(345.000000, 980.000000)">
                <path d="M219.0091,61.9118 C219.5391,62.0318 219.8391,62.2618 219.829342,62.9318 C219.7991,69.0218 219.8091,75.1218 219.8191,81.2218 C219.8191,81.7018 219.7991,82.1918 219.1691,82.2018 C218.5791,82.2018 218.3291,81.8018 218.3691,81.2518 C218.5091,78.9018 215.9091,77.9618 214.3691,78.7618 C213.4091,79.2618 212.8791,80.2818 212.8991,81.4218 C212.9091,82.2618 212.3891,82.2118 211.8491,82.2118 C211.2691,82.2218 211.1091,81.9418 211.0891,81.3718 C211.0591,80.6218 210.8291,80.0118 210.2291,79.3618 C209.3891,78.4618 208.5991,78.4118 207.5991,78.6518 C206.5091,78.9218 205.6591,79.9518 205.6391,81.0718 C205.6291,81.7318 205.5991,82.2618 204.7191,82.2218 C203.9291,82.1818 203.6791,81.9718 203.6991,81.0618 C203.7391,78.9118 201.1491,77.9218 199.6191,78.8218 C198.6991,79.3718 198.2191,80.3418 198.2291,81.4418 C198.2391,82.2318 197.7691,82.2018 197.2391,82.2218 C196.6291,82.2318 196.4391,81.9718 196.4191,81.3518 C196.3891,80.6018 196.1391,79.9918 195.5391,79.3518 C194.7291,78.4818 193.9491,78.4118 192.9891,78.6418 C191.7991,78.9218 190.9691,79.9618 190.9691,81.1818 C190.9691,81.8518 190.8091,82.2518 190.0291,82.2218 C189.2791,82.2018 188.9891,81.8318 189.0191,81.1218 C189.1191,78.8618 186.3991,77.9318 184.9391,78.8318 C184.0191,79.4018 183.5591,80.3718 183.5591,81.4618 C183.5591,82.2518 183.0691,82.2118 182.5491,82.2118 C181.9991,82.2218 181.7691,82.0218 181.7491,81.4118 C181.7091,80.6718 181.5291,80.0418 180.9191,79.3918 C180.0891,78.5018 179.3091,78.4018 178.2991,78.6518 C177.1391,78.9418 176.3091,79.9418 176.2991,81.1218 C176.2991,81.8118 176.1791,82.2618 175.3391,82.2218 C174.5691,82.1918 174.3191,81.8018 174.3491,81.1018 C174.4491,78.9418 171.8791,77.9318 170.3091,78.7918 C169.3291,79.3418 168.8891,80.3618 168.8891,81.4918 C168.8891,82.2218 168.4391,82.2118 167.9391,82.2118 C167.4391,82.2118 167.0991,82.1218 167.0791,81.4718 C167.0491,80.7018 166.8191,80.0618 166.2391,79.3718 C165.2791,78.2518 164.2891,78.5018 163.2091,78.7018 C162.5091,78.8318 161.6191,80.2518 161.6291,81.1418 C161.6291,81.7818 161.5391,82.2518 160.7291,82.2218 C159.9291,82.1918 159.6391,81.9718 159.6991,81.0818 C159.7891,79.7118 158.4291,78.5718 157.1591,78.5118 C156.7091,78.5018 156.4491,78.4218 156.4491,77.8918 C156.4591,71.4218 156.4591,64.9518 156.4591,58.4318 C157.7391,58.2818 157.7091,58.2918 157.9191,59.4118 C158.3391,61.6018 159.8291,62.4418 161.9491,61.7318 C162.7191,61.4718 163.4291,60.3318 163.3791,59.3318 C163.3291,58.5418 163.6091,58.3418 164.3691,58.3318 C165.2091,58.3218 165.3491,58.6918 165.3391,59.3918 C165.3191,61.0918 166.3591,61.8318 168.0291,62.0218 C169.3491,62.1818 170.4291,61.2018 170.6491,59.8018 C170.6991,59.4718 170.7491,59.1318 170.8091,58.7918 C170.9291,58.1118 171.4691,58.4118 171.8391,58.3618 C172.1891,58.3218 172.6091,58.3218 172.5691,58.8418 C172.4891,59.8818 172.9291,60.7718 173.6091,61.4118 C174.0291,61.8118 174.8491,62.0118 175.4591,61.9518 C177.3691,61.7618 178.0291,60.9718 178.0491,59.0918 C178.0591,58.5218 178.2391,58.3018 178.7991,58.3518 C179.3191,58.4018 180.0191,58.1518 179.9891,59.0618 C179.9291,61.2518 181.0891,61.7518 182.7691,62.0518 C183.6191,62.2018 184.8891,61.3618 185.1491,60.5218 C185.2991,60.0218 185.4491,59.5018 185.4591,58.9818 C185.4691,58.1618 186.0391,58.4018 186.4791,58.3518 C186.9991,58.3018 187.2591,58.4518 187.2691,59.0518 C187.2891,60.4518 188.1291,61.9718 189.8191,61.9518 C190.5391,61.9418 191.1991,61.8818 191.8591,61.2218 C192.5991,60.4918 192.7291,59.7618 192.7291,58.8818 C192.7291,58.2918 193.1391,58.3418 193.5191,58.3618 C193.9891,58.3818 194.5891,58.1618 194.6691,58.9518 C194.7091,59.3918 194.7091,59.8518 194.8291,60.2818 C195.1291,61.3318 196.3891,62.1918 197.4891,62.0218 C199.0091,61.7918 199.7391,61.3218 199.9891,59.9218 C200.0291,59.6918 200.1591,59.4518 200.1291,59.2318 C199.9991,58.2918 200.5891,58.3518 201.2291,58.3418 C201.7491,58.3418 201.9191,58.5318 201.9291,59.0518 C201.9591,60.4518 202.7991,61.9818 204.4891,61.9518 C205.2091,61.9418 205.8691,61.8918 206.5291,61.2218 C207.2691,60.4918 207.3591,59.7618 207.4091,58.8818 C207.4591,58.0018 208.1691,58.4518 208.5891,58.3718 C209.1591,58.2518 209.3491,58.6118 209.3291,59.1118 C209.2991,59.9518 209.4491,60.7118 210.1391,61.2918 C211.0291,62.0318 212.0091,62.0818 213.0691,61.8118 C214.0491,61.5518 214.4991,60.8718 214.6591,59.9218 C214.6991,59.6918 214.8291,59.4518 214.7991,59.2318 C214.6691,58.2918 215.2591,58.3518 215.8891,58.3418 C216.4191,58.3418 216.5891,58.5318 216.5991,59.0518 C216.6591,60.7118 217.3991,61.5518 219.0091,61.9118 L219.0091,61.9118 Z M214.1291,82.8718 L217.2691,82.8718 L217.2691,79.6018 L214.1291,79.6018 L214.1291,82.8718 Z M206.7191,82.8818 L210.0491,82.8818 L210.0491,79.5918 L206.7191,79.5918 L206.7191,82.8818 Z M199.4591,82.8718 L202.5991,82.8718 L202.5991,79.6018 L199.4591,79.6018 L199.4591,82.8718 Z M192.0491,82.9018 L195.3791,82.9018 L195.3791,79.5918 L192.0491,79.5918 L192.0491,82.9018 Z M184.7791,82.8818 L187.9291,82.8818 L187.9291,79.5918 L184.7791,79.5918 L184.7791,82.8818 Z M177.3791,82.9018 L180.7091,82.9018 L180.7091,79.5918 L177.3791,79.5918 L177.3791,82.9018 Z M170.1191,82.8818 L173.2691,82.8818 L173.2691,79.5918 L170.1191,79.5918 L170.1191,82.8818 Z M162.7091,82.8918 L166.0391,82.8918 L166.0391,79.5918 L162.7091,79.5918 L162.7091,82.8918 Z M158.5891,82.9318 C157.5791,82.8618 156.5691,82.8018 155.6691,82.7418 L155.6691,79.6218 L158.5891,79.6218 L158.5891,82.9318 Z M158.9991,60.8118 L162.2991,60.8118 L162.2991,57.6718 L158.9991,57.6718 L158.9991,60.8118 Z M166.4791,60.7618 L169.5191,60.7618 L169.5191,57.7018 L166.4791,57.7018 L166.4791,60.7618 Z M173.6891,60.8118 L176.9691,60.8118 L176.9691,57.6718 L173.6891,57.6718 L173.6891,60.8118 Z M181.1291,60.7318 L184.1991,60.7318 L184.1991,57.7018 L181.1291,57.7018 L181.1291,60.7318 Z M188.3391,60.8118 L191.6391,60.8118 L191.6391,57.6718 L188.3391,57.6718 L188.3391,60.8118 Z M195.8091,60.7118 L198.8891,60.7118 L198.8891,57.6918 L195.8091,57.6918 L195.8091,60.7118 Z M203.0091,60.8018 L206.3091,60.8018 L206.3091,57.6718 L203.0091,57.6718 L203.0091,60.8018 Z M210.4691,60.7218 L213.5491,60.7218 L213.5491,57.7018 L210.4691,57.7018 L210.4691,60.7218 Z M220.1591,59.8918 C220.1791,60.0718 220.3391,60.2318 220.4891,60.4018 L220.4891,57.2718 L158.6091,57.2718 L158.6091,57.2918 C158.4791,57.2818 158.3591,57.2818 158.2291,57.2718 L154.8091,57.2718 C154.8291,57.7418 154.8391,58.2218 154.8391,58.6918 C154.8091,65.9918 154.7291,73.2818 154.6991,80.5818 C154.6891,81.4918 154.7391,82.4018 154.7891,83.3118 L203.0491,83.3118 L203.0491,83.3018 L206.2691,83.3018 L206.2691,83.3118 L220.4891,83.3118 L220.4891,60.7918 C220.4191,60.7718 220.3491,60.7718 220.2691,60.7718 L217.6791,60.7718 L217.6791,57.7018 L220.1391,57.7018 C220.1391,58.5118 220.0891,59.2118 220.1591,59.8918 L220.1591,59.8918 Z" id="Fill-1" fill="#231F20"></path>
                <path d="M169.6786,177.8691 C169.4346,183.1241 173.9216,187.1761 178.6386,187.3291 C184.3246,187.5151 188.5316,183.0941 188.540618,178.0361 C188.5506,172.5031 184.4806,168.7381 179.6196,168.4221 C173.8366,168.0461 169.3856,172.8751 169.6786,177.8691 M156.4366,183.5971 C156.0346,183.5971 155.7406,183.5971 155.4466,183.5971 L124.4176,183.5971 C104.2106,183.5971 84.0026,183.5851 63.7956,183.6171 C61.8026,183.6201 60.4636,182.3541 60.5266,180.3271 C60.6036,177.8321 60.5356,175.3321 60.5566,172.8341 C60.5586,172.5101 60.7196,172.1881 60.8076,171.8651 C61.1456,171.9611 61.5256,171.9881 61.8156,172.1631 C65.4306,174.3521 69.2806,175.8641 73.4776,176.5241 C77.4906,177.1561 81.5256,177.0291 85.5516,176.9581 C88.2796,176.9101 91.0126,176.6481 93.7246,176.3221 C97.4666,175.8741 101.2096,175.3811 104.9176,174.7151 C110.0096,173.8011 115.0966,172.8281 120.1346,171.6581 C125.1886,170.4831 130.1776,169.0301 135.1996,167.7161 C135.7306,167.5771 136.2926,167.4931 136.8406,167.4901 C140.7086,167.4711 144.5786,167.5201 148.4456,167.4651 C150.7966,167.4321 152.0426,168.7801 151.9636,170.9481 C151.8836,173.1421 151.9466,175.3421 151.9466,177.6321 C153.0706,177.6321 154.1356,177.6501 155.1996,177.6121 C155.3556,177.6061 155.6216,177.3411 155.6346,177.1811 C155.8436,174.5431 156.4346,171.9911 157.2186,169.4711 C157.3946,168.9051 157.3666,168.3421 156.6906,167.8971 C156.1026,167.5111 155.6016,166.9001 155.2336,166.2861 C154.3156,164.7501 153.1236,163.5861 151.3686,163.1141 C150.8686,162.9801 150.3216,163.0251 149.7986,162.9601 C149.5156,162.9251 149.1836,162.9041 148.9816,162.7421 C148.8586,162.6431 148.8336,162.1581 148.9436,162.0701 C150.4846,160.8391 151.7286,159.4141 152.2986,157.4711 C152.3696,157.2271 152.6596,156.9291 152.8996,156.8721 C154.8956,156.4021 156.2576,154.8461 157.9976,153.9531 C159.8166,153.0201 161.6346,152.0501 163.5476,151.3531 C164.4996,151.0061 165.6616,151.2341 166.7286,151.2001 C166.9406,151.1931 167.1516,151.1791 167.4496,151.1651 C167.3776,150.8231 167.3766,150.4931 167.2406,150.2341 C166.8696,149.5231 167.3736,149.3541 167.8486,149.2841 C169.2056,149.0831 170.5726,148.9401 171.9366,148.7871 C172.6416,148.7091 173.1206,149.0451 173.3526,149.6931 C173.5256,150.1781 173.6326,150.6861 173.7736,151.2011 C178.5546,151.2011 183.2816,151.2171 188.0076,151.1941 C190.9186,151.1801 193.5346,153.1371 194.1536,156.1061 C194.3106,156.8581 194.2176,157.6691 194.1856,158.4501 C194.1496,159.3221 194.1896,160.0841 194.9296,160.7651 C197.2306,162.8831 199.0206,165.3941 200.3536,168.2301 C201.3236,170.2921 201.9046,172.4631 202.2416,174.7061 C202.8306,178.6261 202.3166,182.4321 200.9376,186.1191 C200.0276,188.5511 198.6926,190.7491 197.0376,192.7631 C194.7596,195.5381 191.9676,197.6251 188.7276,199.1301 C186.6166,200.1101 184.4136,200.7781 182.0876,201.0081 C181.0886,201.1081 180.0766,201.3781 179.0936,201.2941 C177.1016,201.1241 175.0796,200.9441 173.1526,200.4481 C168.7256,199.3081 164.9326,197.0101 161.8676,193.5901 C159.2826,190.7051 157.3756,187.4351 156.4366,183.5971" id="Fill-3" fill="#231F20"></path>
                <path d="M33.3012,177.859 C33.5162,172.578 29.0562,168.578 24.3172,168.428 C18.4362,168.243 14.5122,172.706 14.4352,177.64 C14.3472,183.319 18.7152,187.146 23.5302,187.332 C29.0562,187.547 33.6152,182.93 33.3012,177.859 M47.3712,177.279 C47.2022,183.235 45.5952,188.055 42.2842,192.246 C39.2342,196.107 35.3532,198.846 30.6112,200.209 C28.8302,200.721 26.9492,200.915 25.1002,201.153 C22.2772,201.517 19.5192,200.963 16.8492,200.155 C14.2732,199.376 11.9272,198.063 9.7622,196.427 C6.9842,194.327 4.9022,191.689 3.2482,188.644 C1.9102,186.183 1.1132,183.584 0.7302,180.826 C-0.1718,174.325 1.6092,168.523 5.5652,163.437 C9.1432,158.838 13.8992,155.957 19.6872,154.908 C21.0322,154.664 22.3832,154.417 23.7432,154.296 C24.2852,154.248 24.9192,154.429 25.4032,154.699 C26.5012,155.311 27.5302,156.047 28.5922,156.723 C28.8312,156.876 29.0892,157 29.3432,157.126 C31.1362,158.016 33.1282,158.144 35.0302,158.618 C36.0212,158.865 37.0102,159.128 37.9832,159.438 C39.2672,159.847 40.1142,160.868 40.9132,161.842 C42.0952,163.282 43.1772,164.816 44.1902,166.383 C45.5612,168.501 46.3672,170.869 46.8262,173.338 C47.1062,174.843 47.2492,176.372 47.3712,177.279" id="Fill-5" fill="#FBB016"></path>
                <path d="M33.3012,177.859 C33.5162,172.578 29.0562,168.578 24.3172,168.428 C18.4362,168.243 14.5122,172.706 14.4352,177.64 C14.3472,183.319 18.7152,187.146 23.5302,187.332 C29.0562,187.547 33.6152,182.93 33.3012,177.859 Z M47.3712,177.279 C47.2022,183.235 45.5952,188.055 42.2842,192.246 C39.2342,196.107 35.3532,198.846 30.6112,200.209 C28.8302,200.721 26.9492,200.915 25.1002,201.153 C22.2772,201.517 19.5192,200.963 16.8492,200.155 C14.2732,199.376 11.9272,198.063 9.7622,196.427 C6.9842,194.327 4.9022,191.689 3.2482,188.644 C1.9102,186.183 1.1132,183.584 0.7302,180.826 C-0.1718,174.325 1.6092,168.523 5.5652,163.437 C9.1432,158.838 13.8992,155.957 19.6872,154.908 C21.0322,154.664 22.3832,154.417 23.7432,154.296 C24.2852,154.248 24.9192,154.429 25.4032,154.699 C26.5012,155.311 27.5302,156.047 28.5922,156.723 C28.8312,156.876 29.0892,157 29.3432,157.126 C31.1362,158.016 33.1282,158.144 35.0302,158.618 C36.0212,158.865 37.0102,159.128 37.9832,159.438 C39.2672,159.847 40.1142,160.868 40.9132,161.842 C42.0952,163.282 43.1772,164.816 44.1902,166.383 C45.5612,168.501 46.3672,170.869 46.8262,173.338 C47.1062,174.843 47.2492,176.372 47.3712,177.279 Z" id="Stroke-7" stroke="#1F180E"></path>
                <path d="M188.4031,177.859 C188.6181,172.578 184.1581,168.578 179.4191,168.428 C173.5381,168.243 169.6141,172.706 169.5371,177.64 C169.4491,183.319 173.8171,187.146 178.6321,187.332 C184.1581,187.547 188.7171,182.93 188.4031,177.859 M202.4731,177.279 C202.3041,183.235 200.6971,188.055 197.3861,192.246 C194.3361,196.107 190.4551,198.846 185.7131,200.209 C183.9321,200.721 182.0511,200.915 180.2021,201.153 C177.3791,201.517 174.6211,200.963 171.9511,200.155 C169.3751,199.376 167.0291,198.063 164.8641,196.427 C162.0861,194.327 160.0041,191.689 158.3501,188.644 C157.0121,186.183 156.2151,183.584 155.8321,180.826 C154.9301,174.325 156.7111,168.523 160.6671,163.437 C164.2451,158.838 169.0011,155.957 174.7891,154.908 C176.1341,154.664 177.4851,154.417 178.8451,154.296 C179.3871,154.248 180.0211,154.429 180.5051,154.699 C181.6031,155.311 182.6321,156.047 183.6941,156.723 C183.9331,156.876 184.1911,157 184.4451,157.126 C186.2381,158.016 188.2301,158.144 190.1321,158.618 C191.1231,158.865 192.1121,159.128 193.0851,159.438 C194.3691,159.847 195.2161,160.868 196.0151,161.842 C197.1971,163.282 198.2791,164.816 199.2921,166.383 C200.6631,168.501 201.4691,170.869 201.9281,173.338 C202.2081,174.843 202.3511,176.372 202.4731,177.279" id="Fill-9" fill="#FBB016"></path>
                <path d="M188.4031,177.859 C188.6181,172.578 184.1581,168.578 179.4191,168.428 C173.5381,168.243 169.6141,172.706 169.5371,177.64 C169.4491,183.319 173.8171,187.146 178.6321,187.332 C184.1581,187.547 188.7171,182.93 188.4031,177.859 Z M202.4731,177.279 C202.3041,183.235 200.6971,188.055 197.3861,192.246 C194.3361,196.107 190.4551,198.846 185.7131,200.209 C183.9321,200.721 182.0511,200.915 180.2021,201.153 C177.3791,201.517 174.6211,200.963 171.9511,200.155 C169.3751,199.376 167.0291,198.063 164.8641,196.427 C162.0861,194.327 160.0041,191.689 158.3501,188.644 C157.0121,186.183 156.2151,183.584 155.8321,180.826 C154.9301,174.325 156.7111,168.523 160.6671,163.437 C164.2451,158.838 169.0011,155.957 174.7891,154.908 C176.1341,154.664 177.4851,154.417 178.8451,154.296 C179.3871,154.248 180.0211,154.429 180.5051,154.699 C181.6031,155.311 182.6321,156.047 183.6941,156.723 C183.9331,156.876 184.1911,157 184.4451,157.126 C186.2381,158.016 188.2301,158.144 190.1321,158.618 C191.1231,158.865 192.1121,159.128 193.0851,159.438 C194.3691,159.847 195.2161,160.868 196.0151,161.842 C197.1971,163.282 198.2791,164.816 199.2921,166.383 C200.6631,168.501 201.4691,170.869 201.9281,173.338 C202.2081,174.843 202.3511,176.372 202.4731,177.279 Z" id="Stroke-11" stroke="#1F180E"></path>
                <path d="M78.4572,70.2415 C78.4042,69.7425 78.3242,69.2455 78.2202,68.7515 C78.1232,68.2905 77.9952,67.8135 77.6842,67.4595 C77.3362,67.0655 76.8132,66.8815 76.3152,66.7135 C73.9002,65.8985 71.4862,65.0845 69.0722,64.2695 C68.8972,64.2105 68.7072,64.1395 68.6132,63.9805 C68.4962,63.7805 68.5772,63.5285 68.6282,63.3025 C68.9262,61.9865 67.8742,61.1175 67.6702,59.9035 C69.0452,59.9425 70.6202,60.0815 71.4322,61.1915 C72.2702,62.3365 72.0282,64.2145 73.2452,64.9435 C73.6132,64.4095 73.4212,63.6865 73.2162,63.0705 C72.8502,61.9755 72.4852,60.8795 72.1192,59.7835 C72.0832,59.6765 72.0442,59.5625 71.9562,59.4905 C71.6072,59.2035 71.1502,59.8635 70.7062,59.7825 C70.6992,54.8125 70.6932,49.8425 70.6862,44.8725 C70.6862,44.5145 70.6132,44.0585 70.2652,43.9755 C70.0302,43.9195 69.7882,44.0905 69.6832,44.3085 C69.5772,44.5265 69.5752,44.7775 69.5742,45.0195 C69.5692,49.8895 69.5642,54.7595 69.5592,59.6295 C67.5252,58.5285 65.6652,57.0535 63.4912,58.7145 C62.8012,59.2445 62.0712,59.5945 61.1512,59.5045 C60.5112,59.4345 59.8612,59.4445 59.2122,59.4945 C57.2912,59.6245 55.9822,60.5245 56.0112,62.6845 C56.0612,67.3245 56.0412,71.9445 56.0312,76.4245 L56.0312,78.0245 C55.8612,78.2045 55.7122,78.3545 55.5722,78.4945 C55.3492,78.7165 57.1832,79.7865 57.3432,79.8565 C58.1452,80.2105 59.0352,80.3705 59.9102,80.3015 C60.0272,80.2915 60.1492,80.2775 60.2482,80.2145 C60.5392,80.0315 60.4462,79.5435 60.1632,79.3495 C59.8792,79.1565 59.5072,79.1715 59.1652,79.1985 C58.8232,79.2255 58.4542,79.2505 58.1612,79.0715 C57.6922,78.7855 57.6402,78.1365 57.6402,77.5875 C57.6422,72.5475 57.6442,67.5085 57.6462,62.4685 C57.6472,62.1385 57.6612,61.7725 57.8922,61.5385 C58.0812,61.3465 58.3672,61.2945 58.6332,61.2525 L61.3522,60.8235 C61.3512,67.0365 61.3512,73.2495 61.3512,79.4625 C61.3512,80.0295 61.4552,80.7445 62.0012,80.9015 C62.0892,80.9265 62.1942,80.9295 62.2622,80.8675 C62.3262,80.8095 62.3372,80.7145 62.3432,80.6275 C62.4472,79.2005 62.5052,77.7695 62.5172,76.3395 C62.5242,75.6495 62.5092,74.9605 62.5042,74.2715 C62.5022,73.9925 62.6662,72.7625 62.5072,72.6195 C63.1902,73.2075 63.9892,73.8325 64.8842,73.7265 C65.2502,73.6825 65.5892,73.5175 65.9202,73.3555 C66.4822,73.0785 67.0442,72.8025 67.6072,72.5255 C67.7362,72.4625 67.8772,72.3975 68.0182,72.4265 C68.2292,72.4695 68.3392,72.6955 68.4412,72.8855 C68.8552,73.6615 69.6392,74.2285 70.5062,74.3805 C71.2342,74.5075 72.0982,74.3985 72.5972,74.9435 C72.9492,75.3285 73.0502,75.9865 73.5482,76.1415 C73.8062,76.2225 74.0832,76.1285 74.3372,76.0355 C75.3952,75.6475 76.4532,75.2605 77.5102,74.8725 C77.7222,74.7945 77.9442,74.7105 78.0892,74.5375 C78.2212,74.3805 78.2702,74.1715 78.3102,73.9705 C78.5562,72.7345 78.5892,71.4825 78.4572,70.2415 L78.4572,70.2415 Z M57.6412,77.5445 C57.2712,76.9545 56.5612,76.3945 56.1922,76.3945 C56.1312,76.3945 56.0812,76.4045 56.0312,76.4245 C55.6412,76.6045 55.4822,77.4245 55.4822,78.0845 C55.4822,78.2245 55.5112,78.3645 55.5712,78.4945 C55.7322,78.8445 56.0612,79.1745 56.3912,79.3645 C56.5512,79.4645 56.7022,79.5245 56.8412,79.5445 C56.8812,79.5645 56.9212,79.5645 56.9622,79.5645 C57.3512,79.5645 57.6822,79.2245 57.8212,78.7445 C57.8612,78.5845 57.8912,78.4145 57.8912,78.2345 C57.8912,78.0245 57.7912,77.7845 57.6412,77.5445 L57.6412,77.5445 Z M62.5152,67.1145 C62.7392,67.0205 62.9162,66.9825 63.0502,66.8855 C63.7762,66.3625 64.4952,65.8305 65.2072,65.2885 C65.4402,65.1115 65.6422,64.8935 65.8572,64.6935 C65.6472,64.5155 65.4602,64.2955 65.2222,64.1675 C63.7442,63.3765 63.8252,62.0235 64.7932,61.1325 C65.1392,60.8145 65.5682,60.5865 65.9192,60.2735 C66.2262,59.9995 66.4782,59.6635 66.7542,59.3555 C66.6912,59.2545 66.6282,59.1525 66.5662,59.0515 C65.2112,59.5675 63.8572,60.0845 62.5152,60.5965 L62.5152,67.1145 Z" id="Fill-13" fill="#231F20"></path>
                <path d="M56.3916,79.3645 C56.0616,79.1745 55.7316,78.8445 55.5716,78.4945 L56.3916,79.3645 Z" id="Fill-15" fill="#231F20"></path>
                <path d="M161.8826,124.7675 C161.8746,124.7975 161.8666,124.8285 161.8576,124.8585 C161.1726,124.9345 160.4876,125.0755 159.8026,125.0745 C156.9816,125.0745 154.2186,125.5385 151.4626,126.0575 C147.7066,126.7645 144.0616,127.8845 140.6456,129.5815 C138.6576,130.5695 136.7436,131.7915 135.0056,133.1705 C133.8326,134.1015 132.8086,135.3745 132.0946,136.6985 C130.4146,139.8085 130.0586,143.1905 130.4816,146.7035 C130.8276,149.5755 131.7756,152.2205 133.1006,154.7475 C133.8236,156.1265 135.8396,156.2875 137.0166,155.2805 C138.6186,153.9095 140.2816,152.6015 141.9916,151.3685 C144.9256,149.2515 148.1196,147.5915 151.4586,146.1985 C155.7676,144.4005 160.2306,143.2085 164.8966,143.0125 C167.7516,142.8925 170.6216,143.0805 173.4836,143.1485 C174.1456,143.1645 174.8056,143.2495 175.4656,143.3145 C177.5456,143.5225 179.6256,143.7215 181.7026,143.9525 C183.2496,144.1245 184.7906,144.3455 186.3356,144.5365 C187.8296,144.7215 189.3226,144.9075 190.8196,145.0705 C191.4176,145.1355 192.0416,145.1105 192.3646,144.4975 C192.7276,143.8075 192.6436,143.0855 192.1486,142.4935 C190.0576,139.9955 188.0466,137.4175 185.7986,135.0675 C184.1216,133.3135 182.1916,131.7795 180.2576,130.3015 C177.4336,128.1425 174.2766,126.4955 170.7936,125.7955 C167.8716,125.2095 164.8566,125.0925 161.8826,124.7675 M161.9916,123.2725 C166.1106,123.4235 169.8826,123.7855 173.5136,125.0735 C176.7216,126.2125 179.6566,127.8615 182.2476,130.0395 C184.4896,131.9255 186.6996,133.8825 188.6866,136.0275 C190.5056,137.9925 192.1106,140.1815 193.6106,142.4065 C194.5806,143.8465 193.5786,145.7535 191.9146,146.3995 C190.8986,146.7945 189.9356,146.5725 188.9586,146.4775 C187.4376,146.3295 185.9276,146.0755 184.4106,145.8825 C182.6546,145.6605 180.8986,145.4415 179.1406,145.2485 C177.9016,145.1135 176.6606,144.9785 175.4166,144.9235 C172.3776,144.7875 169.3356,144.6295 166.2946,144.6065 C161.2706,144.5685 156.4896,145.7295 151.8456,147.6195 C147.8396,149.2495 144.1866,151.4565 140.7186,153.9985 C139.6956,154.7475 138.7466,155.6005 137.7836,156.4285 C135.4676,158.4195 132.9516,157.3605 131.6726,155.1115 C130.1676,152.4635 129.2836,149.5795 128.8876,146.5455 C128.3146,142.1575 129.3156,138.1585 131.7806,134.5125 C133.1286,132.5195 135.0606,131.1795 137.0396,129.8965 C139.5956,128.2385 142.3886,127.0605 145.2606,126.1305 C147.6496,125.3575 150.1166,124.7735 152.5886,124.3175 C154.8946,123.8925 157.2516,123.7385 159.5886,123.4805 C160.4866,123.3805 161.3896,123.3235 161.9916,123.2725" id="Fill-17" fill="#231F20"></path>
                <path d="M117.5562,67.3943 C117.6682,66.9403 117.7592,66.4803 117.8942,66.0343 C119.5492,60.5633 121.3052,55.1203 122.8352,49.6153 C123.7882,46.1853 124.5502,42.6843 124.3842,39.0673 C124.2722,36.6483 123.3522,34.6213 121.4432,33.1143 C120.5812,32.4333 119.6462,31.8273 118.6902,31.2843 C117.5802,30.6553 116.4622,30.9903 115.8502,32.1043 C115.6082,32.5453 115.3772,32.6933 115.0902,32.5453 C114.6742,33.3033 114.3172,34.0803 113.8472,34.7843 C112.9082,36.1923 112.4872,37.7603 112.1122,39.3873 C111.2042,43.3193 110.2892,47.2553 109.1682,51.1303 C108.6182,53.0313 107.6342,54.8133 106.7752,56.6153 C106.5942,56.9943 106.1012,57.2253 105.7522,57.5243 C105.6622,57.4523 105.5732,57.3793 105.4832,57.3063 C105.5692,57.0223 105.5962,56.7003 105.7512,56.4603 C107.2252,54.1713 108.0282,51.6003 108.7142,49.0173 C109.5412,45.9013 110.1212,42.7193 110.8452,39.5743 C111.3012,37.5943 112.0512,35.7353 113.1462,33.9993 C113.5182,33.4093 113.5762,32.6103 113.7292,31.8963 C114.2952,29.2683 116.1542,27.9053 118.5092,27.1083 C120.4772,26.4423 122.5302,26.2803 124.6132,26.2538292 C126.2582,26.2343 127.6032,26.8533 128.8412,27.7803 C131.0212,29.4113 132.5262,31.6193 133.9062,33.9223 C136.7032,38.5903 138.8042,43.5793 140.6632,48.6743 C142.8312,54.6153 144.7442,60.6383 146.3192,66.7663 C147.2462,70.3733 148.2132,73.9693 149.1392,77.5753 C149.5172,79.0473 149.8452,80.5313 150.1642,82.0163 C150.2082,82.2193 150.0712,82.4603 150.0182,82.6833 C149.8442,82.5553 149.6812,82.4063 149.4922,82.3033 C149.2942,82.1943 149.0562,82.0333 148.8602,82.0613 C146.9082,82.3463 144.9612,82.6723 143.0102,82.9703 C142.0972,83.1103 141.1812,83.2413 140.2622,83.3303 C137.8622,83.5623 135.4622,83.8493 133.0562,83.9653 C130.1422,84.1053 127.2212,84.1153 124.3032,84.1368678 C123.0522,84.1453 121.7992,84.0453 120.5472,83.9783 C120.3432,83.9683 120.1032,83.9273 119.9522,83.8093 C119.7772,83.6713 119.6822,83.4323 119.5522,83.2373 C119.7512,83.1113 119.9522,82.8743 120.1502,82.8763 C122.8242,82.9053 125.5022,83.0733 128.1732,82.9923 C131.2502,82.8983 134.3232,82.6043 137.3952,82.3733 C139.1922,82.2373 140.9882,82.0843 142.7792,81.8833 C144.8642,81.6493 146.9422,81.3543 149.1292,81.0723 C147.4092,78.8283 147.3692,76.1613 146.6502,73.7253 C145.5512,70.0043 144.6362,66.2303 143.5542,62.5043 C142.5312,58.9813 141.5082,55.4493 140.2732,51.9973 C138.9132,48.1943 137.3602,44.4583 135.7982,40.7323 C134.6782,38.0593 133.3582,35.4763 131.6492,33.1153 C130.4382,31.4413 129.3202,29.6373 127.4352,28.6573 C126.4672,28.1533 125.3182,27.8813 124.2232,27.7633 C121.9262,27.5153 119.6742,27.8203 117.5672,28.8583 C116.5232,29.3733 115.5902,30.0023 115.2162,31.1923 C117.3582,29.3593 119.9552,28.6413 122.6142,28.0713 C122.7942,28.0333 123.0142,28.0053 123.1702,28.0753 C123.3812,28.1693 123.5462,28.3633 123.7312,28.5143 C123.5632,28.6803 123.4222,28.9393 123.2232,28.9993 C122.1942,29.3033 121.1432,29.5363 120.1142,29.8403 C119.7832,29.9383 119.4932,30.1793 119.0502,30.4303 C119.9182,30.9723 120.6752,31.3793 121.3592,31.8843 C123.7022,33.6123 125.0882,35.9133 125.5212,38.8163 C125.8782,41.2083 125.3202,43.5023 124.8302,45.7823 C123.4992,51.9683 121.6602,58.0153 119.5542,63.9813 C119.2312,64.8963 118.9402,65.8243 118.5612,66.7143 C118.4202,67.0473 118.0702,67.2913 117.8162,67.5753 C117.7292,67.5153 117.6432,67.4543 117.5562,67.3943" id="Fill-19" fill="#231F20"></path>
                <path d="M79.2606,67.0552 C79.8176,69.7662 80.3966,72.5892 81.0126,75.5902 C82.9216,75.3912 84.7376,75.2162 86.5506,75.0102 C87.9396,74.8522 89.3276,74.6692 90.7126,74.4742 C92.4596,74.2282 94.2046,73.9632 95.9496,73.6982 C97.7466,73.4262 99.5426,73.1522 101.3376,72.8652 C103.3126,72.5482 105.2926,72.2572 107.2556,71.8782 C109.1336,71.5152 111.0196,71.1422 112.8486,70.5962 C113.7136,70.3372 114.4736,69.6902 115.2466,69.1692 C115.8136,68.7872 116.3326,68.3322 116.8576,67.8902 C117.3006,67.5172 117.5296,67.7052 117.7686,68.1392 C118.5096,69.4862 119.0166,70.8912 118.0396,72.2812 C117.2686,73.3782 116.1576,74.1752 114.8206,74.4642 C111.1766,75.2512 107.5316,76.0422 103.8636,76.6992 C101.6056,77.1042 99.3076,77.2942 97.0216,77.5332 C94.1776,77.8302 91.3286,78.0832 88.4806,78.3432 C86.6056,78.5152 84.7316,78.7012 82.8536,78.8112 C82.0916,78.8552 81.3106,78.7662 80.5536,78.6442 C79.9106,78.5392 79.3576,76.9402 79.7676,76.3532 C80.1206,75.8472 80.1176,75.4202 79.9276,74.8412 C79.1526,72.4882 78.6026,70.0802 78.4386,67.5982 C78.4006,67.0282 78.5776,66.7422 79.1856,66.4532 C82.6196,64.8202 86.3266,64.0142 89.8946,62.7952 C93.2206,61.6582 96.5646,60.5782 99.9026,59.4772 C100.7986,59.1812 101.6936,58.8772 102.6026,58.6282 C102.8336,58.5652 103.1196,58.6992 103.3796,58.7432 C103.2346,58.9902 103.1446,59.3782 102.9346,59.4612 C101.6676,59.9612 100.3726,60.3912 99.0886,60.8462 C96.3216,61.8272 93.5766,62.8722 90.7846,63.7752 C87.8436,64.7262 84.8616,65.5512 81.8926,66.4122 C81.0796,66.6482 80.2476,66.8162 79.2606,67.0552" id="Fill-21" fill="#231F20"></path>
                <path d="M109.1491,21.0818 C109.4191,20.9918 110.9081,20.2618 111.2681,20.1418 C111.6781,21.0418 110.8691,22.5418 111.2691,23.4218 C109.8291,22.7518 109.1891,22.2618 109.1491,21.0818 M108.9291,20.1418 C109.0291,19.2818 108.6091,18.7418 107.9391,18.2618 C107.3791,17.8718 107.4291,16.8818 108.0991,16.2518 C108.7991,15.5818 108.9291,14.8318 108.9191,13.9518 C108.9091,13.4018 109.0391,12.8518 109.1091,12.3218 C109.7791,12.3718 110.4091,12.3018 110.9291,12.5118 C111.4491,12.7118 111.8491,13.2018 112.4491,13.6918 C112.5191,15.2518 111.6891,16.7518 110.8891,18.2518 C110.7991,18.4118 110.6391,18.5518 110.5991,18.7218 C110.4091,19.5818 109.8191,19.9618 108.9291,20.1418 M127.0191,3.8918 C123.8591,0.9018 120.1091,-0.5182 115.6991,0.1718 C112.0891,0.7318 108.7591,1.8718 106.4791,4.9518 C106.4791,5.2618 105.7291,6.0218 105.5491,6.3118 C105.2791,6.7818 105.0391,7.2618 104.8891,7.7818 C104.7291,8.3318 104.6691,8.9118 104.7291,9.4918 C104.7791,9.8918 104.8191,9.8918 104.5491,10.1918 C104.3491,10.4018 104.1091,10.6018 103.8891,10.8018 C103.6691,11.0018 103.4291,11.3218 103.5991,11.5718 C103.7091,11.7218 103.9291,11.7518 104.1191,11.7518 C104.8991,11.7518 105.6891,11.6418 106.4391,11.4218 C106.4791,11.4018 107.0791,11.4918 107.1091,11.4518 C107.1591,11.3718 106.5391,11.1818 106.4691,11.1118 C106.1391,10.7818 105.7791,10.4718 105.4091,10.1918 C105.7691,9.9218 106.2291,9.8318 106.6791,9.8218 C107.1391,9.8118 107.6091,9.8718 108.0691,9.8218 C108.1391,9.8218 108.2091,9.8118 108.2591,9.7718 C108.3391,9.7018 108.3491,9.5718 108.2991,9.4818 C107.9391,8.7018 106.2591,9.1218 106.5091,7.9518 C106.6391,7.3318 106.9791,6.7018 107.3291,6.1718 C107.8191,5.4318 108.4691,4.8018 109.1691,4.2418 C111.3091,2.5118 113.8991,1.8918 116.5691,1.6418 C119.1091,1.3918 121.5291,1.9618 123.7591,3.1818 C125.5491,4.1618 126.9391,5.5318 127.5191,7.5718 C128.3391,10.5018 128.0791,13.5918 127.7291,16.5818 C127.6791,16.9818 127.4891,20.2118 127.2691,20.3018 C125.4891,20.9718 123.4691,21.1518 121.4591,21.2618 C119.6891,21.3618 117.9091,21.2718 116.1391,21.3118 C115.8691,21.3118 115.6191,21.6018 115.3591,21.7618 C115.5891,21.9318 115.7991,22.2018 116.0491,22.2318 C117.7991,22.4818 119.5491,22.6218 121.3491,22.4618 C123.3491,22.2718 125.2891,21.9218 127.2591,21.3018 C127.2491,21.8818 127.0691,22.3118 126.4691,22.4218 C125.2291,22.6418 123.9991,22.9518 122.7491,23.0318 C120.0291,23.2218 117.1191,22.8518 114.4791,23.6018 C114.3291,23.6418 114.1691,23.6918 114.0091,23.6818 C113.5791,23.6518 113.3791,23.1318 113.1491,22.8318 C112.8791,22.4718 112.5691,22.1418 112.2991,21.7818 C111.7591,21.0518 111.4591,20.2618 111.7091,19.3618 C112.1191,17.8718 112.8591,16.4818 113.4291,15.1218 C113.3391,15.3418 115.0791,15.2418 115.2091,15.2218 C115.6191,15.1318 116.4391,15.1018 116.4991,14.5918 C116.6091,13.7718 117.0691,12.1818 115.7791,12.5818 C115.0391,12.8118 114.3191,12.5718 113.5791,12.4918 C112.1191,9.7718 111.1691,9.6018 107.1091,11.4518 C107.1891,13.1818 107.1591,14.9018 106.5091,16.5918 C105.7991,18.4418 105.9691,20.2818 106.9991,22.0018 C107.5891,23.0018 107.9791,23.7718 109.1191,24.1418 C110.2991,24.5218 111.5091,25.1218 112.7891,24.9118 C115.3891,24.5018 118.0291,24.7818 120.6491,24.6418 C122.4891,24.5318 124.3191,24.1918 126.1591,24.0418 C127.4391,23.9318 128.2591,23.4418 128.3991,22.0918 C128.4891,21.2018 128.4691,20.3318 128.6491,19.4518 C128.8291,18.5118 129.0991,17.5918 129.2791,16.6518 C129.5591,15.1618 129.7791,13.6418 129.8191,12.1118 C129.8991,9.1318 129.2591,6.0218 127.0191,3.8918" id="Fill-23" fill="#231F20"></path>
                <path d="M196.7218,140.3412 C196.4648,140.1402 196.1298,139.9892 195.9638,139.7302 C193.7508,136.2732 191.2328,133.0642 188.1838,130.3072 C185.3328,127.7302 182.1848,125.6062 178.6328,124.0662 C175.7748,122.8272 172.8508,121.8472 169.7938,121.2912 C168.3158,121.0222 166.8118,120.8322 165.3118,120.7552 C162.8818,120.6302 160.4388,120.4832 158.0148,120.6132 C155.3038,120.7582 152.6048,121.1692 149.9078,121.5232 C145.8788,122.0522 142.0268,123.2852 138.2028,124.6062 C137.0628,125.0002 135.9548,125.4842 134.8178,125.8852 C134.6078,125.9592 134.3278,125.8332 134.0798,125.7992 C134.2318,125.5892 134.3378,125.2732 134.5418,125.1852 C139.1058,123.2142 143.7858,121.5952 148.6978,120.7362 C151.1088,120.3152 153.5248,119.8882 155.9558,119.6342 C158.2048,119.4002 160.4858,119.2162 162.7368,119.3272 C166.2888,119.5022 169.8128,120.0072 173.2568,120.9852 C178.1768,122.3832 182.6518,124.6282 186.6608,127.8032 C190.7868,131.0682 194.0778,135.0522 196.7808,139.5432 C196.8338,139.6312 196.8898,139.7242 196.9118,139.8222 C196.9338,139.9222 196.9168,140.0322 196.9168,140.1382 C196.8518,140.2052 196.7868,140.2732 196.7218,140.3412" id="Fill-25" fill="#231F20"></path>
                <path d="M61.8343,89.8521 C61.8343,87.9531 61.8343,86.1331 61.8343,84.3131 C61.8343,83.4811 61.8093,82.6471 61.8543,81.8171 C61.8643,81.6221 62.1103,81.4391 62.2473,81.2501 C62.4323,81.3931 62.6793,81.5001 62.7853,81.6871 C62.9083,81.9031 62.9523,82.1891 62.9543,82.4441 C62.9673,84.4311 62.9733,86.4191 62.9573,88.4061 C62.9463,89.8001 62.0433,90.9131 60.6923,90.8801 C59.1003,90.8411 57.9553,91.6271 56.9003,92.5751 C54.8553,94.4131 52.7883,96.2461 50.9193,98.2571 C48.9303,100.3971 47.0243,102.6281 45.7223,105.3091 C45.2353,106.3111 44.3533,107.1141 43.7953,108.0901 C41.7143,111.7301 40.0043,115.5441 39.1453,119.6611 C38.7743,121.4381 38.7873,123.2951 38.6163,125.1141 C38.5863,125.4251 38.5653,125.7611 38.4323,126.0321 C38.3293,126.2411 38.0563,126.3671 37.8593,126.5301 C37.7373,126.3281 37.5073,126.1231 37.5102709,125.9231 C37.5323,124.6441 37.5073,123.3521 37.6853,122.0911 C37.9113,120.4821 38.2093,118.8671 38.6683,117.3121 C39.1483,115.6831 39.7533,114.0721 40.4883,112.5421 C41.6603,110.1021 42.8953,107.6821 44.2763,105.3551 C45.3193,103.5981 46.5443,101.9281 47.8473,100.3521 C49.4403,98.4251 51.1073,96.5391 52.9133,94.8141 C54.6883,93.1191 56.5913,91.5201 58.6173,90.1451 C59.3523,89.6461 60.6083,89.9131 61.6263,89.8341 C61.6983,89.8281 61.7713,89.8461 61.8343,89.8521" id="Fill-27" fill="#231F20"></path>
                <path d="M36.3349963,127.0841 C36.3409,127.8411 36.0669,128.0881 35.4069,127.9071 C32.0049,126.9731 28.5239,126.9001 25.0419,127.0571 C23.9949,127.1041 22.9799,127.6411 21.9269,127.8151 C18.9799,128.3041 16.6379,129.8851 14.6319,131.9461 C12.2099,134.4341 10.5409,137.4271 9.5249,140.7431 C8.8899,142.8161 9.4509,144.3791 11.3149,145.5931 C15.0139,148.0031 18.7279,150.3871 22.4219,152.8041 C22.6569,152.9591 22.7689,153.3011 22.9379,153.5561 C22.6059,153.5671 22.1939,153.7121 21.9549,153.5681 C19.6349,152.1741 17.3269,150.7591 15.0499,149.2951 C13.4369,148.2571 11.8729,147.1411 10.2939,146.0491 C8.3659,144.7161 7.6739,142.4021 8.5409,140.2571 C9.6689,137.4661 10.9479,134.7451 12.8829,132.4191 C14.8059,130.1051 17.1529,128.2931 19.9859,127.1931 C21.9579,126.4281 23.9989,126.0251 26.1269,125.8621 C29.4219,125.6101 32.5849,126.2031 35.7469,126.9581 C35.9239,127.0001 36.1039,127.0351 36.3349963,127.0841" id="Fill-29" fill="#231F20"></path>
                <path d="M123.8645,143.244 C123.9025,137.991 125.5755,133.884 128.2825,130.144 C128.6685,129.609 129.1015,129.103 129.5565,128.625 C129.6925,128.481 129.9735,128.474 130.1885,128.405 C130.1705,128.632 130.2395,128.931 130.1205,129.077 C128.7795,130.717 127.6415,132.473 126.7315,134.394 C125.2375,137.548 124.7935,140.88 125.0455,144.301 C125.3795,148.841 126.8765,153.076 128.7575,157.179 C129.1715,158.082 129.7055,158.947 130.2965,159.747 C131.1675,160.925 132.5275,161.151 133.8715,161.356 C136.5055,161.758 138.5275,160.403 140.6055,159.099 C143.4825,157.293 146.4745,155.692 149.6765,154.516 C149.7985,154.471 149.9315,154.406 150.0535,154.417 C150.3045,154.44 150.5525,154.508 150.8015,154.557 C150.6465,154.778 150.5395,155.1 150.3275,155.201 C149.7155,155.495 149.0275,155.636 148.4295,155.95 C145.9625,157.245 143.5155,158.577 141.0665,159.905 C139.5075,160.75 138.1815,162.033 136.3355,162.333 C133.2515,162.836 130.1335,162.081 128.4205,158.725 C126.4945,154.949 125.0765,151.02 124.2585,146.877 C123.9865,145.505 123.9505,144.086 123.8645,143.244" id="Fill-31" fill="#231F20"></path>
                <path d="M113.3054,126.3424 C113.1524,127.0004 112.9144,127.6514 112.8664,128.3164 C112.7834,129.4604 112.5914,130.6714 112.8694,131.7444 C113.1254,132.7314 113.9204,133.5874 114.5154,134.4754 C114.9694,135.1524 115.4744,135.7964 115.9744,136.4424 C116.2214,136.7614 116.5094,137.0494 116.8524,137.2994 C116.8964,135.8244 116.1274,134.6714 115.4494,133.4864 C115.5004,133.4164 115.5514,133.3464 115.6014,133.2764 C115.8644,133.3924 116.1904,133.4454 116.3794,133.6344 C117.4074,134.6644 117.8624,135.9924 118.0794,137.3784 C118.6184,140.8234 117.2174,143.7534 115.4884,146.5714 C115.3794,146.7474 115.0754,146.8044 114.8624,146.9164 C114.8034,146.8734 114.7454,146.8294 114.6864,146.7864 C114.7624,146.5034 114.8044,146.2054 114.9224,145.9414 C115.2524,145.1974 115.6454,144.4794 115.9454,143.7244 C116.0284,143.5154 115.8724,143.2104 115.8114,142.8714 C114.7264,144.2684 113.7774,145.4914 112.8244,146.7134 C112.7594,146.7974 112.6874,146.9124 112.5984,146.9354 C112.3774,146.9914 112.1444,147.0024 111.9164,147.0314 C111.9474,146.8224 111.9114,146.5674 112.0194,146.4134 C112.7464,145.3814 113.5914,144.4224 114.2344,143.3424 C115.3994,141.3814 115.8214,139.2394 115.0074,137.0514 C114.6904,136.1964 114.0744,135.3964 113.4324,134.7284 C111.5054,132.7224 111.2964,130.4144 112.0164,127.8894 C112.1314,127.4874 112.2054,127.0604 112.3984,126.6964 C112.5254,126.4564 112.8294,126.3094 113.0544,126.1204 C113.1384,126.1944 113.2214,126.2684 113.3054,126.3424" id="Fill-33" fill="#231F20"></path>
                <path d="M50.6878,162.8368 C49.8788,162.6548 49.4848,162.0098 49.0568,161.3938 C46.6178,157.8838 44.4628,154.2038 42.7028,150.3138 C40.8298,146.1748 39.3238,141.8968 38.4578,137.4188 C38.0738,135.4328 37.6718,133.4498 37.3518,131.4538 C37.1638,130.2818 37.0938,129.0888 37.0358,127.9018 C37.0248,127.6708 37.3158,127.4258 37.4678,127.1878 C37.6358,127.3828 37.9228,127.5618 37.9528,127.7768 C38.2538,129.8908 38.4078,132.0308 38.8098,134.1248 C39.2888,136.6188 39.8768,139.1008 40.5848,141.5398 C41.9068,146.0918 43.7018,150.4698 46.0008,154.6178 C47.3108,156.9828 48.8028,159.2458 50.1848,161.5718 C50.4158,161.9588 50.5068,162.4298 50.6628,162.8628 L50.6878,162.8368 Z" id="Fill-35" fill="#231F20"></path>
                <path d="M62.6449,98.8022 C62.2879,100.0502 62.0359,101.3412 61.5509,102.5382 C60.5229,105.0772 58.8569,107.2332 57.1669,109.3592 C55.4289,111.5462 53.7369,113.7542 52.3889,116.2192 C50.5829,119.5212 49.3979,123.0422 48.6579,126.7022 C48.3039,128.4572 48.2929,130.2812 48.1329,132.0752 C48.1119,132.3142 48.1989,132.5912 48.1059,132.7912 C47.9869,133.0462 47.7359,133.2412 47.5429,133.4622 C47.3959,133.1922 47.1209,132.9212 47.1218973,132.6512 C47.1279,129.4672 47.5919,126.3502 48.4319,123.2712 C49.3749,119.8172 50.7839,116.5712 52.7879,113.6272 C54.3879,111.2782 56.2189,109.0872 57.9369,106.8182 C59.6799,104.5162 61.1379,102.0742 61.6899,99.1802 C61.7349,98.9442 62.0379,98.7572 62.2209,98.5472 C62.3619,98.6322 62.5039,98.7172 62.6449,98.8022" id="Fill-37" fill="#231F20"></path>
                <path d="M109.9084,125.4397 C109.9084,125.9977 109.9134,126.5557 109.9074,127.1127 C109.8924,128.5627 109.6264,130.0437 110.4444,131.3887 C111.4404,133.0277 112.4384,134.6647 113.4294,136.3057 C114.4164,137.9387 114.8634,140.0057 113.5924,141.4527 C113.1964,141.9037 112.7324,142.2957 112.3054,142.7207 C111.4414,143.5807 110.4404,144.3487 109.7614,145.3367 C109.1774,146.1877 108.7304,147.2687 108.6304,148.2877 C108.4194,150.4367 108.4844,152.6117 108.4124,154.7757 C108.3984,155.1897 108.3284,155.6237 108.1754,156.0057 C108.0894,156.2207 107.7824,156.3477 107.5744,156.5147 C107.4274,156.2977 107.1644,156.0867 107.1544,155.8637 C107.1084,154.8447 107.1144,153.8227 107.1414,152.8037 C107.1634,151.9537 107.2254,151.1047 107.2974,150.2577 C107.4714,148.2037 107.6444,146.1367 109.0674,144.4737 C109.6174,143.8307 110.2484,143.2557 110.8504,142.6577 C111.4754,142.0357 112.2434,141.5107 112.7134,140.7897 C113.7274,139.2357 113.4674,137.5817 112.5464,136.0947 C111.6764,134.6897 110.6064,133.4107 109.6594,132.0527 C108.6384,130.5897 108.6494,128.9197 108.8024,127.2407 C108.8424,126.8007 108.9314,126.3527 109.0834,125.9397 C109.1724,125.6967 109.4304,125.5147 109.6114,125.3057 C109.7104,125.3507 109.8094,125.3947 109.9084,125.4397" id="Fill-39" fill="#231F20"></path>
                <path d="M73.6002,81.2472 C73.7072,85.3212 73.1202,89.3122 72.1862,93.2652 C71.8242,94.7952 71.5212,96.3402 71.1562,97.8702 C71.1012,98.0992 70.8542,98.2832 70.6962,98.4882 C70.5362,98.2572 70.2132,97.9992 70.2452,97.7982 C70.4262,96.6342 70.6792,95.4802 70.9312,94.3292 C71.4902,91.7752 71.8162,89.2032 72.0772,86.5942 C72.3642,83.7222 72.4212,80.8662 72.5062,77.9962 C72.5172,77.6252 72.9282,77.2642 73.1542,76.8992 C73.3032,77.2752 73.5592,77.6452 73.5802,78.0282 C73.6392,79.0982 73.6012,80.1742 73.6002,81.2472" id="Fill-41" fill="#231F20"></path>
                <path d="M152.1434,155.487 C152.3504,154.301 152.8644,153.479 153.7884,153.023 C156.2394,151.815 158.7904,150.867 161.4534,150.229 C162.8024,149.906 164.1394,149.534 165.4854,149.197 C165.6794,149.148 165.9174,149.11 166.0894,149.181 C166.2904,149.263 166.4404,149.469 166.6124,149.621 C166.4364,149.771 166.2824,150.007 166.0804,150.059 C164.5344,150.459 162.9434,150.715 161.4364,151.224 C158.8074,152.112 156.2264,153.139 153.6384,154.142 C153.4484,154.216 153.3344,154.559 153.2474,154.8 C153.1874,154.966 153.2934,155.198 153.2214,155.352 C153.1054,155.6 152.9034,155.808 152.7374,156.032 C152.5114,155.825 152.2864,155.618 152.1434,155.487" id="Fill-43" fill="#231F20"></path>
                <path d="M176.9199,149.2642 C175.9489,149.2642 175.1699,149.2952 174.3959,149.2452 C174.1609,149.2302 173.9409,148.9912 173.7139,148.8552 C173.8949,148.6312 174.0529,148.2422 174.2619,148.2122 C175.0049,148.1062 175.7659,148.0812 176.5189,148.1022 C177.5519,148.1312 178.5939,148.1572 179.6119,148.3142 C181.8149,148.6532 184.0089,149.0532 186.1949,149.4892 C186.4719,149.5452 186.6769,149.9642 186.9149,150.2152 C186.6009,150.2782 186.2689,150.4412 185.9759,150.3882 C182.9129,149.8372 179.8689,149.1502 176.9199,149.2642" id="Fill-45" fill="#231F20"></path>
                <path d="M50.6628,162.8624 C51.0788,162.5024 51.3958,162.7564 51.6758,163.0514 C52.2608,163.6674 52.8238,164.3044 53.3998,164.9304 C55.2378,166.9284 57.3998,168.5354 59.6228,170.0694 C60.2758,170.5194 60.5008,170.8834 60.4818,171.5374 C60.2508,171.4724 60.0108,171.4614 59.8368,171.3484 C57.5088,169.8434 55.2508,168.2384 53.3018,166.2564 C52.4348,165.3754 51.6958,164.3674 50.9168,163.4024 C50.7938,163.2514 50.7628,163.0254 50.6888,162.8354 C50.6878,162.8364 50.6628,162.8624 50.6628,162.8624" id="Fill-47" fill="#231F20"></path>
                <path d="M119.7138,82.4984 C119.5468,82.2974 119.2668,82.1154 119.2308,81.8934 C118.9848,80.3894 118.7898,78.8774 118.5778,77.3684 C118.4438,76.4044 118.3058,75.4414 118.1778,74.4764 C118.1108,73.9774 117.8108,73.2234 118.4198,73.0964 C119.1378,72.9474 119.1378,73.7724 119.2148,74.2914 C119.5498,76.5534 119.8748,78.8164 120.1618,81.0844 C120.2118,81.4824 120.0598,81.9054 120.0018,82.3164 C119.9058,82.3774 119.8098,82.4374 119.7138,82.4984" id="Fill-49" fill="#231F20"></path>
                <path d="M148.4672,162.8557 C148.2912,163.0187 148.1402,163.2307 147.9342,163.3357 C146.2472,164.1907 144.5552,165.0367 142.8522,165.8597 C142.2162,166.1667 141.5592,166.4467 140.8862,166.6537 C140.5882,166.7457 140.2252,166.6247 139.8922,166.6007 C140.0912,166.3317 140.2322,165.9417 140.4992,165.8157 C142.0172,165.0997 143.5742,164.4657 145.1002,163.7647 C145.9342,163.3817 146.7212,162.8927 147.5572,162.5147 C147.7892,162.4107 148.1232,162.5307 148.4112,162.5477 C148.4292,162.6507 148.4482,162.7527 148.4672,162.8557" id="Fill-51" fill="#231F20"></path>
                <path d="M28.5816,115.2038 C28.9606,114.2578 29.5946,113.5738 30.5106,113.0868 C31.0096,112.8218 31.4066,112.3558 31.8306,111.9598 C34.0056,109.9298 36.5896,108.5358 39.2166,107.2118 C40.1476,106.7438 41.1046,106.3258 42.0496,105.8838 C42.1086,105.9518 42.1676,106.0188 42.2266,106.0858 C42.0266,106.2798 41.8586,106.5398 41.6206,106.6538 C40.8456,107.0258 39.9926,107.2568 39.2636,107.6988 C37.1096,109.0038 34.9936,110.3738 32.8766,111.7408 C32.2056,112.1748 31.5466,112.6398 30.9456,113.1638 C30.4996,113.5518 30.1986,114.1058 29.7566,114.4998 C29.4216,114.7988 28.9666,114.9618 28.5646,115.1848 C28.5646,115.1848 28.5816,115.2038 28.5816,115.2038" id="Fill-53" fill="#231F20"></path>
                <path d="M48.1558,162.2386 C46.5528,161.9796 44.9478,161.7316 43.3478,161.4556 C42.7578,161.3546 42.1648,161.2306 41.6028,161.0336 C41.3768,160.9546 41.2298,160.6526 41.0458,160.4516 C41.3328,160.3296 41.6328,160.0786 41.9028,160.1076 C42.7578,160.1996 43.6068,160.3726 44.4498,160.5566 C45.5948,160.8066 46.7378,161.0736 47.8658,161.3886 C48.0748,161.4466 48.2098,161.7676 48.3788,161.9676 C48.3048,162.0576 48.2298,162.1486 48.1558,162.2386" id="Fill-55" fill="#231F20"></path>
                <path d="M106.6427,61.7151 C106.3657,61.9111 105.6547,61.2781 105.4507,61.0691 C104.9567,60.5631 103.9497,59.4291 104.0267,58.6641 C104.2707,56.2531 107.4737,59.5751 107.6507,59.5191 C107.2507,59.6461 106.2007,59.7441 106.1237,60.2841 C106.0607,60.7281 106.7057,60.8491 106.7467,61.2471 C106.7737,61.5111 106.7297,61.6541 106.6427,61.7151" id="Fill-57" fill="#231F20"></path>
                <path d="M29.9145,112.4794 C33.5435,108.8434 38.1145,106.7204 42.7165,104.6474 C42.7725,104.6984 42.8285,104.7494 42.8845,104.7994 C42.7245,104.9974 42.6065,105.2774 42.3995,105.3794 C40.0565,106.5414 37.6605,107.6014 35.3645,108.8474 C34.1485,109.5064 33.1015,110.4754 31.9785,111.3054 C31.3495,111.7694 30.7225,112.2344 30.0945,112.6994 C30.0345,112.6264 29.9745,112.5524 29.9145,112.4794" id="Fill-59" fill="#231F20"></path>
                <path d="M28.5647,115.1847 C28.2047,115.8117 27.8777,116.4607 27.4777,117.0607 C26.5977,118.3817 25.6567,119.6637 24.7867,120.9917 C24.3857,121.6027 24.1047,122.2917 23.7397,122.9297 C23.6417,123.0997 23.4387,123.2107 23.2137,123.2797 C24.1147,121.1397 25.1007,119.0847 26.6207,117.3317 C27.2537,116.6017 27.6617,115.6687 28.5837,115.2057 C28.5817,115.2037 28.5647,115.1847 28.5647,115.1847" id="Fill-61" fill="#231F20"></path>
                <path d="M28.1382,114.5888 C28.0282,114.8218 27.9772,115.1228 27.7992,115.2768 C26.2362,116.6208 25.3262,118.4568 24.1272,120.0748 C24.1012,120.1088 23.9772,120.0708 23.8052,120.0608 C25.1112,118.0758 26.2762,116.0618 27.9592,114.4368 C28.0192,114.4878 28.0782,114.5378 28.1382,114.5888" id="Fill-63" fill="#231F20"></path>
                <path d="M154.6171,173.0887 L153.6051,173.0887 C153.5921,172.8557 153.5791,172.6317 153.5631,172.3607 L154.6171,172.3607 L154.6171,173.0887 Z" id="Fill-65" fill="#231F20"></path>
                <path d="M79.0059,76.542 C78.3509,76.676 78.1829,76.262 78.1489,75.783 C78.1429,75.684 78.4769,75.44 78.5839,75.476 C79.1229,75.655 79.1759,76.068 79.0059,76.542" id="Fill-67" fill="#231F20"></path>
                <path d="M23.873,120.8121 C23.427,121.4411 23.379,122.1041 22.751,122.3081 C22.974,121.7831 22.925,121.0631 23.873,120.8121" id="Fill-69" fill="#231F20"></path>
                <path d="M220.055,53.5989 C219.967,54.3589 219.882,55.0199 219.817,55.6829 C219.777,56.0979 219.863,56.5969 219.217,56.5799 C218.643,56.5639 218.359,56.2389 218.362,55.6649 C218.364,55.3969 218.442,55.0919 218.341,54.8689 C218.219,54.5999 217.944,54.4009 217.736,54.1709 C217.569,54.3959 217.277,54.6109 217.259,54.8459 C217.199,55.6379 217.236,56.4369 217.236,57.2419 L214.165,57.2419 C214.165,56.3619 214.199,55.5419 214.141,54.7289 C214.127,54.5309 213.822,54.2269 213.627,54.2069 C213.447,54.1889 213.126,54.4499 213.059,54.6519 C212.929,55.0419 212.882,55.4789 212.894,55.8939 C212.913,56.5859 212.462,56.5839 211.993,56.5839 C211.523,56.5839 211.074,56.5779 211.097,55.8899 C211.111,55.5019 211.056,55.0979 210.951,54.7239 C210.893,54.5169 210.668,54.3569 210.519,54.1759 C210.344,54.3869 210.036,54.5879 210.018,54.8119 C209.957,55.6059 209.994,56.4089 209.994,57.2579 L206.755,57.2579 C206.755,56.5159 206.802,55.7479 206.732,54.9919 C206.705,54.7049 206.432,54.2339 206.234,54.2129 C205.74,54.1609 205.603,54.5849 205.627,55.0369 C205.637,55.2249 205.616,55.4139 205.63,55.6009 C205.682,56.2549 205.455,56.6119 204.73,56.5949 C204.051,56.5799 203.678,56.3179 203.692,55.6069 C203.697,55.3109 203.766,54.9849 203.664,54.7299 C203.574,54.5029 203.288,54.3539 203.089,54.1709 C202.916,54.3619 202.607,54.5419 202.593,54.7439 C202.537,55.5649 202.57,56.3929 202.57,57.2479 L199.497,57.2479 C199.497,56.3749 199.531,55.5599 199.473,54.7509 C199.459,54.5469 199.173,54.2349 198.978,54.2069 C198.798,54.1819 198.512,54.4329 198.387,54.6329 C198.257,54.8399 198.222,55.1329 198.222,55.3889 C198.221,56.0159 198.316,56.6049 197.346,56.6069 C196.349,56.6089 196.401,56.0129 196.435,55.3479 C196.443,55.1899 196.457,55.0029 196.386,54.8759 C196.245,54.6249 196.046,54.4059 195.871,54.1739 C195.685,54.4319 195.361,54.6799 195.34,54.9499 C195.286,55.6629 195.364,56.3859 195.386,57.1059 C195.388,57.1539 195.36,57.2029 195.34,57.2689 L192.085,57.2689 C192.085,56.5069 192.126,55.7159 192.063,54.9329 C192.041,54.6679 191.755,54.4249 191.59,54.1719 C191.38,54.4259 191.127,54.6569 190.975,54.9429 C190.886,55.1109 190.946,55.3649 190.961,55.5789 C191.007,56.2149 190.824,56.6149 190.083,56.5919 C189.287,56.5679 189.062,56.3529 189.017,55.5479 C188.987,55.0109 189.27,54.1579 188.363,54.2159 C187.646,54.2609 187.938,55.0459 187.905,55.5259 C187.866,56.1019 187.896,56.6819 187.896,57.2519 L184.831,57.2519 C184.831,56.4419 184.874,55.6839 184.809,54.9339 C184.785,54.6679 184.555,54.2939 184.324,54.1989 C183.917,54.0319 183.704,54.3399 183.667,54.7539 C183.632,55.1469 183.547,55.5389 183.551,55.9309 C183.56,56.6389 183.071,56.5829 182.618,56.5829 C182.18,56.5819 181.75,56.5759 181.76,55.9349 C181.767,55.5429 181.736,55.1359 181.627,54.7639 C181.561,54.5409 181.311,54.3719 181.143,54.1789 C180.977,54.4279 180.69,54.6669 180.668,54.9279 C180.603,55.6919 180.645,56.4649 180.645,57.2689 L177.415,57.2689 C177.415,56.4599 177.452,55.6639 177.394,54.8739 C177.376,54.6299 177.1,54.4049 176.943,54.1719 C176.725,54.4189 176.464,54.6409 176.306,54.9209 C176.215,55.0849 176.277,55.3429 176.291,55.5569 C176.333,56.1749 176.191,56.6089 175.436,56.5919 C174.651,56.5749 174.397,56.3419 174.347,55.5709 C174.313,55.0349 174.606,54.1699 173.716,54.2179 C172.94,54.2599 173.284,55.0879 173.238,55.5849 C173.187,56.1339 173.226,56.6909 173.226,57.2399 L170.16,57.2399 C170.16,56.3799 170.193,55.5839 170.138,54.7949 C170.123,54.5769 169.839,54.2049 169.69,54.2109 C169.463,54.2199 169.137,54.4519 169.05,54.6679 C168.908,55.0209 168.864,55.4419 168.887,55.8269 C168.929,56.5469 168.486,56.5819 167.97,56.5869 C167.429,56.5929 167.037,56.4889 167.085,55.7949 C167.112,55.4099 167.025,55.0089 166.93,54.6299 C166.887,54.4599 166.699,54.3269 166.576,54.1769 C166.396,54.3429 166.071,54.4989 166.059,54.6759 C166.004,55.5209 166.034,56.3709 166.034,57.2639 L162.746,57.2639 C162.746,56.4779 162.788,55.6829 162.722,54.8969 C162.7,54.6419 162.392,54.4119 162.215,54.1709 C162.017,54.4109 161.765,54.6249 161.638,54.8979 C161.546,55.0979 161.607,55.3739 161.622,55.6149 C161.66,56.2159 161.485,56.5979 160.788,56.5919 C159.991,56.5849 159.713,56.3559 159.684,55.5919 C159.683,55.5659 159.686,55.5379 159.684,55.5119 C159.634,54.9929 159.901,54.1899 159.067,54.2119 C158.314,54.2319 158.616,55.0059 158.563,55.4819 C158.53,55.7739 158.55,56.0719 158.559,56.3679 C158.567,56.6549 158.59,56.9409 158.611,57.2919 C157.591,57.2329 156.576,57.1749 155.655,57.1219 L155.655,53.5989 L220.055,53.5989 Z" id="Fill-71" fill="#FEFEFE"></path>
                <path d="M179.6229,103.9736 C179.1319,103.0226 179.3209,102.2856 180.0929,101.7186 C180.3089,101.5596 180.5959,101.4176 180.8549,101.4086 C181.8479,101.3726 182.8429,101.4186 183.8359,101.3856 C184.5349,101.3616 184.6039,101.7576 184.4729,102.2616 C184.2199,103.2386 183.3189,103.9376 182.2749,103.9686 C181.3919,103.9946 180.5059,103.9736 179.6229,103.9736" id="Fill-73" fill="#FEFEFE"></path>
                <mask id="mask-2" fill="white">
                    <use xlink:href="#path-1"></use>
                </mask>
                <g id="Clip-76"></g>
                <polygon id="Fill-75" fill="#FEFEFE" mask="url(#mask-2)" points="206.718 82.886 210.047 82.886 210.047 79.594 206.718 79.594"></polygon>
                <polygon id="Fill-77" fill="#FEFEFE" mask="url(#mask-2)" points="192.048 82.897 195.382 82.897 195.382 79.597 192.048 79.597"></polygon>
                <polygon id="Fill-78" fill="#FEFEFE" mask="url(#mask-2)" points="177.381 82.897 180.709 82.897 180.709 79.593 177.381 79.593"></polygon>
                <polygon id="Fill-79" fill="#FEFEFE" mask="url(#mask-2)" points="162.708 82.897 166.041 82.897 166.041 79.591 162.708 79.591"></polygon>
                <polygon id="Fill-80" fill="#FEFEFE" mask="url(#mask-2)" points="188.343 60.815 191.642 60.815 191.642 57.674 188.343 57.674"></polygon>
                <polygon id="Fill-81" fill="#FEFEFE" mask="url(#mask-2)" points="173.685 60.815 176.972 60.815 176.972 57.674 173.685 57.674"></polygon>
                <polygon id="Fill-82" fill="#FEFEFE" mask="url(#mask-2)" points="203.009 60.803 206.311 60.803 206.311 57.674 203.009 57.674"></polygon>
                <polygon id="Fill-83" fill="#FEFEFE" mask="url(#mask-2)" points="159.001 60.815 162.302 60.815 162.302 57.674 159.001 57.674"></polygon>
                <polygon id="Fill-84" fill="#FEFEFE" mask="url(#mask-2)" points="214.13 82.868 217.273 82.868 217.273 79.602 214.13 79.602"></polygon>
                <polygon id="Fill-85" fill="#FEFEFE" mask="url(#mask-2)" points="184.784 82.879 187.934 82.879 187.934 79.595 184.784 79.595"></polygon>
                <path d="M202.604,79.606 C202.604,80.714 202.604,81.793 202.604,82.871 C201.55,82.87 200.495,82.87 199.459,82.87 L199.459,79.606 L202.604,79.606 Z" id="Fill-86" fill="#FEFEFE" mask="url(#mask-2)"></path>
                <polygon id="Fill-87" fill="#FEFEFE" mask="url(#mask-2)" points="170.118 82.881 173.264 82.881 173.264 79.595 170.118 79.595"></polygon>
                <polygon id="Fill-88" fill="#FEFEFE" mask="url(#mask-2)" points="195.81 60.715 198.889 60.715 198.889 57.693 195.81 57.693"></polygon>
                <polygon id="Fill-89" fill="#FEFEFE" mask="url(#mask-2)" points="181.127 60.727 184.201 60.727 184.201 57.701 181.127 57.701"></polygon>
                <polygon id="Fill-90" fill="#FEFEFE" mask="url(#mask-2)" points="210.473 60.722 213.549 60.722 213.549 57.698 210.473 57.698"></polygon>
                <polygon id="Fill-91" fill="#FEFEFE" mask="url(#mask-2)" points="217.679 60.815 220.489 60.815 220.489 57.698 217.679 57.698"></polygon>
                <polygon id="Fill-92" fill="#FEFEFE" mask="url(#mask-2)" points="166.479 60.761 169.523 60.761 169.523 57.706 166.479 57.706"></polygon>
                <path d="M155.6655,79.6179 L158.5915,79.6179 L158.5915,82.9269 C157.5825,82.8629 156.5705,82.7979 155.6655,82.7399 L155.6655,79.6179 Z" id="Fill-93" fill="#FEFEFE" mask="url(#mask-2)"></path>
                <path d="M179.6723,173.4169 C179.9533,173.4599 180.2423,173.4739 180.5133,173.5509 C182.4863,174.1109 183.3343,175.5879 183.7243,177.4619 C183.7653,177.6549 184.0863,177.7889 184.2773,177.9499 C184.3733,177.7279 184.5663,177.4969 184.5493,177.2849 C184.4593,176.1859 184.0333,175.2089 183.3583,174.3359 C182.4593,173.1729 180.0013,171.8039 178.0913,172.3039 C174.7483,173.1809 172.9013,176.0169 173.7163,179.3119 C174.2623,181.5169 176.1483,183.0419 178.6253,183.3949 C178.7913,183.4189 178.9943,183.1839 179.1803,183.0689 C179.0683,182.8909 178.9853,182.6769 178.8323,182.5449 C178.7313,182.4589 178.5273,182.4969 178.3713,182.4679 C175.8683,182.0109 174.3513,179.9179 174.5863,177.4709 C175.0613,180.7349 177.0623,181.8479 178.8043,181.9479 C181.0443,182.0749 182.9033,180.1669 183.2153,177.7129 C183.4113,176.1819 181.6003,174.0459 179.6723,173.4169 M169.6783,177.8689 C169.3853,172.8749 173.8363,168.0459 179.6203,168.4219 C184.4813,168.7379 188.5513,172.5029 188.540322,178.0359 C188.5313,183.0939 184.3243,187.5149 178.6383,187.3299 C173.9213,187.1759 169.4353,183.1239 169.6783,177.8689" id="Fill-94" fill="#FEFEFE" mask="url(#mask-2)"></path>
                <path d="M24.2994,173.4955 C26.3124,173.2925 28.3034,175.2825 28.4854,177.2085 C28.5104,177.4695 28.8064,177.7055 28.9774,177.9525 C29.1184,177.6605 29.4164,177.3435 29.3744,177.0805 C29.1544,175.6815 28.4954,174.5015 27.3944,173.5825 C26.2574,172.6315 24.9284,172.0325 23.4754,172.2035 C21.9324,172.3855 20.5834,173.1315 19.5424,174.3715 C18.6754,175.4055 18.1064,176.6585 18.2524,177.9005 C18.6194,181.0175 20.0764,182.6605 23.3524,183.3605 C23.5704,183.4065 23.8524,183.1505 24.1054,183.0355 C23.9034,182.8475 23.7204,182.5245 23.4964,182.4935 C21.4354,182.2065 20.0814,181.1395 19.5214,179.0995 C19.2224,178.0095 19.4394,176.4305 20.0434,175.6915 C19.2324,179.2595 20.2284,181.1405 23.3454,181.9285 C25.0744,182.3655 27.2824,180.5845 27.9084,178.2785 C28.3214,176.7565 27.0564,174.1475 24.2994,173.4955 M33.3014,177.8585 C33.6154,182.9305 29.0564,187.5465 23.5304,187.3325 C18.7154,187.1455 14.3474,183.3195 14.4354,177.6395 C14.5124,172.7055 18.4364,168.2425 24.3174,168.4285 C29.0564,168.5785 33.5164,172.5785 33.3014,177.8585" id="Fill-95" fill="#FEFEFE" mask="url(#mask-2)"></path>
                <path d="M62.5153,67.1142 L62.5153,60.5962 C63.8573,60.0842 65.2113,59.5682 66.5663,59.0512 C66.6283,59.1532 66.6913,59.2542 66.7543,59.3552 C66.4783,59.6642 66.2263,60.0002 65.9193,60.2732 C65.5673,60.5872 65.1393,60.8142 64.7933,61.1332 C63.8253,62.0232 63.7443,63.3772 65.2223,64.1682 C65.4603,64.2952 65.6473,64.5162 65.8573,64.6932 C65.6413,64.8932 65.4403,65.1112 65.2073,65.2892 C64.4953,65.8312 63.7753,66.3622 63.0503,66.8852 C62.9163,66.9822 62.7393,67.0202 62.5153,67.1142" id="Fill-96" fill="#FEFEFE" mask="url(#mask-2)"></path>
                <path d="M161.8826,124.7675 C164.8566,125.0925 167.8716,125.2095 170.7936,125.7955 C174.2766,126.4955 177.4336,128.1425 180.2576,130.3015 C182.1916,131.7795 184.1216,133.3135 185.7986,135.0675 C188.0466,137.4175 190.0576,139.9955 192.1486,142.4935 C192.6436,143.0855 192.7276,143.8075 192.3646,144.4975 C192.0416,145.1105 191.4176,145.1355 190.8196,145.0705 C189.3226,144.9075 187.8296,144.7215 186.3356,144.5365 C184.7906,144.3455 183.2496,144.1245 181.7026,143.9525 C179.6256,143.7215 177.5456,143.5225 175.4656,143.3145 C174.8056,143.2495 174.1456,143.1645 173.4836,143.1485 C170.6216,143.0805 167.7516,142.8925 164.8966,143.0125 C160.2306,143.2085 155.7676,144.4005 151.4586,146.1985 C148.1196,147.5915 144.9256,149.2515 141.9916,151.3685 C140.2816,152.6015 138.6186,153.9095 137.0166,155.2805 C135.8396,156.2875 133.8236,156.1265 133.1006,154.7475 C131.7756,152.2205 130.8276,149.5755 130.4816,146.7035 C130.0586,143.1905 130.4146,139.8085 132.0946,136.6985 C132.8086,135.3745 133.8326,134.1015 135.0056,133.1705 C136.7436,131.7915 138.6576,130.5695 140.6456,129.5815 C144.0616,127.8845 147.7066,126.7645 151.4626,126.0575 C154.2186,125.5385 156.9816,125.0745 159.8026,125.0745 C160.4876,125.0755 161.1726,124.9345 161.8576,124.8585 C161.8666,124.8285 161.8746,124.7975 161.8826,124.7675" id="Fill-97" fill="#FEFEFE" mask="url(#mask-2)"></path>
                <path d="M110.6261,14.4178 C110.5011,14.4148 110.3751,14.4128 110.2501,14.4098 C110.0771,14.7218 109.7511,15.0458 109.7751,15.3428 C109.7981,15.6198 110.1481,16.0158 110.4291,16.0958 C111.0491,16.2728 111.0901,15.6368 111.1041,15.2968 C111.1161,15.0108 110.7981,14.7108 110.6261,14.4178 M109.1071,12.3168 C109.7791,12.3748 110.4091,12.3028 110.9281,12.5098 C111.4441,12.7168 111.8481,13.2048 112.4501,13.6888 C112.5231,15.2488 112.1921,16.4408 111.3881,17.9468 C111.3881,17.9468 111.1411,18.5218 111.1041,18.6898 C110.9161,19.5508 109.8161,19.9598 108.9341,20.1368 C109.0331,19.2858 108.6081,18.7428 107.9361,18.2668 C107.3751,17.8688 107.4261,16.8848 108.1021,16.2468 C108.8031,15.5858 108.9341,14.8348 108.9191,13.9518 C108.9101,13.4058 109.0401,12.8558 109.1071,12.3168" id="Fill-98" fill="#FEFEFE" mask="url(#mask-2)"></path>
                <path d="M111.2683,23.4186 C109.8283,22.7516 109.1923,22.2616 109.1523,21.0846 C109.4223,20.9886 110.9103,20.2696 111.2683,20.1416 C111.6773,21.0486 110.8723,22.5416 111.2683,23.4186" id="Fill-99" fill="#FEFEFE" mask="url(#mask-2)"></path>
                <path d="M179.6723,173.4169 C181.6003,174.0459 183.4113,176.1819 183.2153,177.7129 C182.9033,180.1669 181.0443,182.0749 178.8043,181.9479 C177.0623,181.8479 175.0613,180.7349 174.5863,177.4709 C174.3513,179.9179 175.8683,182.0109 178.3713,182.4679 C178.5273,182.4969 178.7313,182.4589 178.8323,182.5449 C178.9853,182.6769 179.0683,182.8909 179.1803,183.0689 C178.9943,183.1839 178.7913,183.4189 178.6253,183.3949 C176.1483,183.0419 174.2623,181.5169 173.7163,179.3119 C172.9013,176.0169 174.7483,173.1809 178.0913,172.3039 C180.0013,171.8039 182.4593,173.1729 183.3583,174.3359 C184.0333,175.2089 184.4593,176.1859 184.5493,177.2849 C184.5663,177.4969 184.3733,177.7279 184.2773,177.9499 C184.0863,177.7889 183.7653,177.6549 183.7243,177.4619 C183.3343,175.5879 182.4863,174.1109 180.5133,173.5509 C180.2423,173.4739 179.9533,173.4599 179.6723,173.4169" id="Fill-100" fill="#231F20" mask="url(#mask-2)"></path>
                <path d="M24.2994,173.4955 C27.0564,174.1475 28.3214,176.7565 27.9084,178.2785 C27.2824,180.5845 25.0744,182.3655 23.3454,181.9285 C20.2284,181.1405 19.2324,179.2595 20.0434,175.6915 C19.4394,176.4305 19.2224,178.0095 19.5214,179.0995 C20.0814,181.1395 21.4354,182.2065 23.4964,182.4935 C23.7204,182.5245 23.9034,182.8475 24.1054,183.0355 C23.8524,183.1505 23.5704,183.4065 23.3524,183.3605 C20.0764,182.6605 18.6194,181.0175 18.2524,177.9005 C18.1064,176.6585 18.6754,175.4055 19.5424,174.3715 C20.5834,173.1315 21.9324,172.3855 23.4754,172.2035 C24.9284,172.0325 26.2574,172.6315 27.3944,173.5825 C28.4954,174.5015 29.1544,175.6815 29.3744,177.0805 C29.4164,177.3435 29.1184,177.6605 28.9774,177.9525 C28.8064,177.7055 28.5104,177.4695 28.4854,177.2085 C28.3034,175.2825 26.3124,173.2925 24.2994,173.4955" id="Fill-101" fill="#231F20" mask="url(#mask-2)"></path>
                <path d="M110.6261,14.4178 C110.7981,14.7108 111.1161,15.0108 111.1041,15.2968 C111.0901,15.6368 111.0491,16.2728 110.4291,16.0958 C110.1481,16.0158 109.7981,15.6198 109.7751,15.3428 C109.7511,15.0458 110.0771,14.7218 110.2501,14.4098 C110.3751,14.4128 110.5011,14.4148 110.6261,14.4178" id="Fill-102" fill="#231F20" mask="url(#mask-2)"></path>
                <path d="M149.1645,81.1163 C146.9745,81.3963 144.9045,81.6863 142.8145,81.9263 C141.0245,82.1263 139.2345,82.2763 137.4345,82.4163 C134.3645,82.6463 131.2845,82.9363 128.2145,83.0363 C125.5445,83.1163 122.8645,82.9463 120.1845,82.9163 C120.0345,82.9163 119.8845,83.0563 119.7345,83.1663 L117.9345,76.2363 L117.9345,67.5363 C118.1645,67.2863 118.4645,67.0563 118.5945,66.7563 C118.9745,65.8663 119.2645,64.9363 119.5945,64.0263 C121.6945,58.0563 123.5345,52.0063 124.8645,45.8263 C125.3545,43.5463 125.9145,41.2463 125.5545,38.8563 C125.1245,35.9563 123.7445,33.6563 121.3945,31.9263 C120.7145,31.4163 119.9545,31.0163 119.0845,30.4763 C119.5345,30.2163 119.8245,29.9763 120.1545,29.8863 C121.1845,29.5763 122.2345,29.3463 123.2645,29.0363 C123.4645,28.9863 123.6045,28.7263 123.7645,28.5563 C123.5845,28.4063 123.4145,28.2163 123.2045,28.1163 C123.0545,28.0463 122.8345,28.0763 122.6545,28.1163 C119.9945,28.6863 117.3945,29.4063 115.2545,31.2363 C115.6245,30.0463 116.5645,29.4163 117.6045,28.8963 C119.7145,27.8663 121.9645,27.5563 124.2645,27.8063 C125.3545,27.9263 126.5045,28.1963 127.4745,28.6963 C129.3545,29.6763 130.4745,31.4863 131.6845,33.1563 C133.3945,35.5163 134.7145,38.1063 135.8345,40.7763 C137.3945,44.4963 138.9545,48.2363 140.3145,52.0363 C141.5445,55.4863 142.5645,59.0263 143.5945,62.5463 C144.6745,66.2763 145.5845,70.0463 146.6845,73.7663 C147.4045,76.2063 147.4445,78.8663 149.1645,81.1163" id="Fill-103" fill="#FBB016" mask="url(#mask-2)"></path>
                <path d="M155.049,53.6718 C154.929,53.9618 154.699,54.2518 154.709,54.5318 C154.719,55.4418 154.769,56.3618 154.809,57.2718 L154.699,57.2718 L154.699,48.8518 C154.759,49.3718 154.819,49.8818 154.859,50.3918 C154.859,50.4418 154.879,50.4918 154.889,50.5418 C154.979,51.4918 155.079,52.4418 155.159,53.3918 C155.169,53.4818 155.089,53.5718 155.049,53.6718" id="Fill-104" fill="#231F20" mask="url(#mask-2)"></path>
                <path d="M184.4692,102.2618 C184.2192,103.2418 183.3192,103.9418 182.2792,103.9718 C181.3892,103.9918 180.5092,103.9718 179.6192,103.9718 C179.1292,103.0218 179.3192,102.2818 180.0892,101.7218 C180.3092,101.5618 180.5992,101.4218 180.8592,101.4118 C181.8492,101.3718 182.8392,101.4218 183.8392,101.3818 C184.5392,101.3618 184.6092,101.7618 184.4692,102.2618 L184.4692,102.2618 Z M221.3592,56.6918 C221.4292,56.1818 221.4192,55.6618 221.4092,55.1418 C221.3992,54.6318 220.9792,53.9418 221.1792,53.6518 C221.7292,52.8718 221.3892,52.1118 221.4092,51.3618 C221.4392,49.9518 221.4292,48.5418 221.4292,47.1318 C221.4192,46.2818 221.4192,45.4318 221.4392,44.5818 C221.4692,42.6518 221.1892,40.7818 220.4392,39.0118 C219.3092,36.3118 217.5692,34.6318 214.1692,34.6417556 C196.6292,34.6918 179.0792,34.6718 161.5392,34.6618 C159.5392,34.6618 158.0792,35.5618 156.9192,37.1418 C155.0092,39.7518 154.8992,42.8618 154.5692,45.8718 C154.4592,46.8518 154.5792,47.8518 154.6992,48.8518 C154.7592,49.3718 154.8192,49.8818 154.8592,50.3918 C154.8592,50.4418 154.8792,50.4918 154.8892,50.5418 C154.9792,51.4918 155.0792,52.4418 155.1592,53.3918 C155.1692,53.4818 155.0892,53.5718 155.0492,53.6718 C154.9292,53.9618 154.6992,54.2518 154.7092,54.5318 C154.7192,55.4418 154.7692,56.3618 154.8092,57.2718 L220.4892,57.2718 L220.4892,83.3118 L154.7892,83.3118 C154.8092,83.8918 154.8392,84.4818 154.8392,85.0618 C154.8692,87.8618 154.8292,90.6518 154.8592,93.4518 C154.8592,93.9618 154.8592,94.4718 154.8692,94.9818 C154.8792,95.7818 155.0692,96.5918 155.2792,97.3718 C155.4292,97.9418 155.7592,98.4618 156.0492,99.0618 C154.4792,99.5018 152.9792,99.2218 151.4492,99.2918 C151.4792,98.9118 151.4892,98.6418 151.5192,98.3818 C151.7692,96.2818 152.1192,94.1918 152.2292,92.0918 C152.3092,90.7218 152.1692,89.3218 151.9092,87.9718 C151.6492,86.5618 151.1592,85.1918 150.7292,83.8218 C150.5792,83.3718 150.2492,83.1618 149.6892,83.2518 C146.8792,83.7418 144.0792,84.2518 141.2692,84.6018 C139.0592,84.8818 136.8192,85.0018 134.5892,85.1018 C132.0792,85.2118 129.5592,85.2318 127.0492,85.2718 C126.6292,85.2718 126.2092,85.1318 125.7892,85.1418 C124.6492,85.1618 123.4892,85.3718 122.3592,85.2318 C120.4792,85.0018 118.6592,85.0118 116.8192,85.5018 C113.3192,86.4218 109.7792,87.2118 106.2992,88.1918 C101.3192,89.5718 96.3692,91.0318 91.4292,92.5518 C89.4992,93.1518 87.9492,94.3618 86.7992,96.1018 C85.2592,98.4418 84.3392,101.0318 83.6192,103.7018 C82.1992,108.9818 81.5492,114.4018 81.0292,119.8418 C80.7992,122.2218 80.6592,124.6118 80.5492,126.9918 C80.4392,129.1818 80.3892,131.3818 80.3792,133.5718 C80.3592,137.8418 80.3692,142.1118 80.3792,146.3818 C80.3792,147.0518 80.5292,147.7118 80.5092,148.3718 C80.4992,148.6218 80.2192,149.0318 80.0092,149.0718 C79.2892,149.2118 79.0892,149.6218 78.8892,150.2818 C78.3892,151.9318 77.7792,153.5618 77.1292,155.1618 C76.9892,155.5218 76.4992,155.9718 76.1492,155.9918 C75.2892,156.0318 74.3692,156.0118 73.5692,155.7318 C70.7292,154.7318 68.9392,152.5918 68.3392,149.7518 C67.6692,146.6418 67.3792,143.4418 67.0092,140.2718 C66.7592,138.1418 66.6092,135.9918 66.5292,133.8418 C66.4492,131.6418 66.4492,129.4218 66.5292,127.2218 C66.5992,125.2618 66.7492,123.2918 67.0092,121.3518 C67.3292,118.9818 67.6492,116.5918 68.2392,114.2818 C69.1692,110.6218 70.3392,107.0318 71.3592,103.3918 C71.5192,102.8418 71.6792,102.1618 71.4992,101.6618 C71.1492,100.7218 70.6892,99.7518 70.0292,99.0218 C68.9092,97.7918 67.6092,96.7218 66.3692,95.6018 C65.9692,95.2518 65.5992,95.4418 65.3992,95.8718 C65.0492,96.6218 64.6492,97.3718 64.4292,98.1718 C63.9492,100.0018 63.5692,101.8818 62.5392,103.4918 C60.8692,106.0818 59.1092,108.6018 57.4492,111.2018 C55.2892,114.5718 53.3692,118.1018 52.0992,121.9018 C51.3492,124.1318 50.8592,126.4618 50.4092,128.7718 C50.0992,130.3218 49.9492,131.9218 49.9392,133.5018 C49.9392,134.9218 50.1792,136.3518 50.3992,137.7618 C50.8392,140.5418 51.6592,143.2318 52.8392,145.7918 C54.6592,149.7218 57.0692,153.2718 59.9692,156.4818 C61.8792,158.6018 64.0592,160.4218 66.4192,162.0218 C69.4992,164.1018 72.7992,165.7118 76.3292,166.8118 C80.7192,168.1918 85.2292,168.8318 89.8192,168.9218 C90.8592,168.9418 91.8992,168.8318 92.9292,168.7618 C94.4192,168.6718 95.9192,168.6718 97.3792,168.4118 C100.2792,167.9118 103.1692,167.3418 106.0192,166.6318 C108.0092,166.1318 108.7692,165.6718 108.7292,163.4618 C108.6992,162.1118 108.5792,160.7618 108.3992,159.4218 C108.3092,158.7818 108.0292,158.1718 107.7792,157.5718 C107.7092,157.4018 107.4292,157.2118 107.2492,157.2118 C106.8892,157.2118 106.5292,157.3118 106.1692,157.4018 C103.9892,157.9518 101.8092,158.5218 99.6192,159.0618 C98.2692,159.3918 97.4592,159.0318 97.3592,157.8518 C97.2292,156.3818 97.3692,154.9018 97.3892,153.4318 C97.3992,152.6918 97.5592,151.9018 97.3392,151.2318 C97.1992,150.7818 97.0192,150.4318 97.1792,149.9518 C97.8992,147.7518 98.5792,145.5518 99.2892,143.3518 C101.0292,137.8818 102.7492,132.4018 104.5392,126.9418 C105.5092,123.9518 106.1692,120.9218 105.9992,117.7518 C105.9692,117.1918 105.9192,116.6218 105.8692,116.0518 C106.0392,116.1818 106.1092,116.3218 106.1692,116.4618 C107.1392,118.7618 108.0892,121.0618 109.0792,123.3518 C109.5092,124.3218 110.1992,125.0818 111.3092,125.3118 C111.8492,125.4218 112.3992,125.5418 112.9492,125.5618 C116.7592,125.7418 120.5292,125.2918 124.2692,124.6018 C125.7292,124.3318 127.1592,123.9918 128.2192,122.8018 C128.9192,122.0118 129.6692,121.2618 130.4592,120.5518 C133.1492,118.1118 136.3192,116.4918 139.7092,115.2418 C145.0292,113.2618 150.5692,112.6518 156.1892,112.5218 C157.3092,112.4918 158.1892,112.1318 158.7592,111.1218 C159.5192,109.8018 160.1992,108.4118 161.0992,107.1918 C162.4692,105.3418 163.9792,103.6018 165.4692,101.8518 C165.6992,101.5818 166.1992,101.4118 166.5692,101.4118 C170.1992,101.3818 173.8292,101.3918 177.4492,101.4018 C177.7492,101.4018 178.2592,101.4918 178.2892,101.6318 C178.3692,101.9818 178.3392,102.4318 178.1692,102.7618 C177.5292,104.0118 176.8092,105.2218 176.1192,106.4518 C174.8492,108.7018 173.5792,110.9418 172.3192,113.1918 C171.8892,113.9718 171.4492,114.7618 171.0792,115.5718 C170.9892,115.7718 171.1492,116.0818 171.1992,116.3418 C171.4492,116.2218 171.7692,116.1718 171.9392,115.9818 C172.1992,115.7018 172.3792,115.3318 172.5692,114.9818 C174.0792,112.2118 175.5892,109.4418 177.0992,106.6618 C177.5192,105.9018 178.1092,105.3518 178.9992,105.2718 C179.6992,105.2218 180.3992,105.2618 181.0992,105.2618 C182.1492,105.2618 182.4692,105.8018 181.9692,106.7718 C181.4692,107.7218 180.9292,108.6618 180.4092,109.6018 C178.9892,112.1518 177.5492,114.7018 176.1592,117.2718 C176.0292,117.5218 176.0292,118.0818 176.1892,118.2218 C176.5592,118.5218 176.8292,118.2118 177.0292,117.8318 C177.7992,116.3918 178.5992,114.9718 179.3892,113.5418 C181.3592,109.9818 183.3592,106.4318 185.2992,102.8518 C185.8592,101.8118 186.5192,101.3518 187.7892,101.3618 C196.6592,101.4218 205.5192,101.4018 214.3892,101.3818 C215.0692,101.3818 215.7592,101.3018 216.4492,101.2318 C219.0892,100.9418 221.4692,98.2118 221.4292,95.4218 C221.4192,94.7718 221.4092,94.1118 221.4092,93.4518 C221.4092,91.9118 221.4192,90.3618 221.4292,88.8218 C221.4392,88.4018 221.5092,87.9818 221.5792,87.5618 C221.5892,87.4918 221.5992,87.4318 221.5992,87.3618 L221.5992,56.6918 L221.3592,56.6918 Z" id="Fill-105" fill="#231F20" mask="url(#mask-2)"></path>
                <path d="M221.549,47.1318 L221.549,56.6918 L221.359,56.6918 C221.429,56.1818 221.419,55.6618 221.409,55.1418 C221.399,54.6318 220.979,53.9418 221.179,53.6518 C221.729,52.8718 221.389,52.1118 221.409,51.3618 C221.439,49.9518 221.429,48.5418 221.429,47.1318 L221.549,47.1318 Z" id="Fill-106" fill="#231F20" mask="url(#mask-2)"></path>
                <path d="M154.8591,93.4518 L154.7391,93.4518 L154.7391,83.3118 L154.7891,83.3118 C154.8091,83.8918 154.8391,84.4818 154.8391,85.0618 C154.8691,87.8618 154.8291,90.6518 154.8591,93.4518" id="Fill-107" fill="#231F20" mask="url(#mask-2)"></path>
                <path d="M221.599,87.3618 L221.599,93.4518 L221.409,93.4518 C221.409,91.9118 221.419,90.3618 221.429,88.8218 C221.439,88.4018 221.509,87.9818 221.579,87.5618 C221.589,87.4918 221.599,87.4318 221.599,87.3618" id="Fill-108" fill="#231F20" mask="url(#mask-2)"></path>
                <path d="M221.599,87.3618 L221.599,93.4518 L221.409,93.4518 C221.409,91.9118 221.419,90.3618 221.429,88.8218 C221.439,88.4018 221.509,87.9818 221.579,87.5618 C221.589,87.4918 221.599,87.4318 221.599,87.3618" id="Fill-109" fill="#231F20" mask="url(#mask-2)"></path>
                <path d="M127.7292,16.5818 C127.6792,16.9818 127.4892,20.2118 127.2692,20.3018 C125.4892,20.9718 123.4692,21.1518 121.4592,21.2618 C119.6892,21.3618 117.9092,21.2718 116.1392,21.3118 C115.8692,21.3118 115.6192,21.6018 115.3592,21.7618 C115.5892,21.9318 115.7992,22.2018 116.0492,22.2318 C117.7992,22.4818 119.5492,22.6218 121.3492,22.4618 C123.3492,22.2718 125.2892,21.9218 127.2592,21.3018 C127.2492,21.8818 127.0692,22.3118 126.4692,22.4218 C125.2292,22.6418 123.9992,22.9518 122.7492,23.0318 C120.0292,23.2218 117.1192,22.8518 114.4792,23.6018 C114.3292,23.6418 114.1692,23.6918 114.0092,23.6818 C113.5792,23.6518 113.3792,23.1318 113.1492,22.8318 C112.8792,22.4718 112.5692,22.1418 112.2992,21.7818 C111.7592,21.0518 111.4592,20.2618 111.7092,19.3618 C112.1192,17.8718 112.8592,16.4818 113.4292,15.1218 C113.3392,15.3418 115.0792,15.2418 115.2092,15.2218 C115.6192,15.1318 116.4392,15.1018 116.4992,14.5918 C116.6092,13.7718 117.0692,12.1818 115.7792,12.5818 C115.0392,12.8118 114.3192,12.5718 113.5792,12.4918 C112.1192,9.7718 111.1692,9.6018 107.1092,11.4518 C107.1592,11.3718 106.5392,11.1818 106.4692,11.1118 C106.1392,10.7818 105.7792,10.4718 105.4092,10.1918 C105.7692,9.9218 106.2292,9.8318 106.6792,9.8218 C107.1392,9.8118 107.6092,9.8718 108.0692,9.8218 C108.1392,9.8218 108.2092,9.8118 108.2592,9.7718 C108.3392,9.7018 108.3492,9.5718 108.2992,9.4818 C107.9392,8.7018 106.2592,9.1218 106.5092,7.9518 C106.6392,7.3318 106.9792,6.7018 107.3292,6.1718 C107.8192,5.4318 108.4692,4.8018 109.1692,4.2418 C111.3092,2.5118 113.8992,1.8918 116.5692,1.6418 C119.1092,1.3918 121.5292,1.9618 123.7592,3.1818 C125.5492,4.1618 126.9392,5.5318 127.5192,7.5718 C128.3392,10.5018 128.0792,13.5918 127.7292,16.5818" id="Fill-110" fill="#231F20" mask="url(#mask-2)"></path>
                <path d="M127.2691,20.3018 C125.4891,20.9718 123.4691,21.1518 121.4591,21.2618 C119.6891,21.3618 117.9091,21.2718 116.1391,21.3118 C115.8691,21.3118 115.6191,21.6018 115.3591,21.7618 C115.5891,21.9318 115.7991,22.2018 116.0491,22.2318 C117.7991,22.4818 119.5491,22.6218 121.3491,22.4618 C123.3491,22.2718 125.2891,21.9218 127.2591,21.3018 C127.2491,21.8818 127.0691,22.3118 126.4691,22.4218 C125.2291,22.6418 123.9991,22.9518 122.7491,23.0318 C120.0291,23.2218 117.1191,22.8518 114.4791,23.6018 C114.3291,23.6418 114.1691,23.6918 114.0091,23.6818 C113.5791,23.6518 113.3791,23.1318 113.1491,22.8318 C112.8791,22.4718 112.8251,21.8958 112.7761,21.4478 C112.6141,19.9978 112.2051,19.6818 112.4551,18.7818 C112.8651,17.2918 112.8591,16.4818 113.4291,15.1218 C113.3391,15.3418 115.0791,15.2418 115.2091,15.2218 C115.6191,15.1318 116.4391,15.1018 116.4991,14.5918 C116.6091,13.7718 117.0691,12.1818 115.7791,12.5818 C115.0391,12.8118 114.3191,12.5718 113.5791,12.4918 C112.1191,9.7718 111.1691,9.6018 107.1091,11.4518 C107.1591,11.3718 106.5391,11.1818 106.4691,11.1118 C106.1391,10.7818 105.7791,10.4718 105.4091,10.1918 C105.7691,9.9218 106.2291,9.8318 106.6791,9.8218 C107.1391,9.8118 107.6091,9.8718 108.0691,9.8218 C108.1391,9.8218 108.2091,9.8118 108.2591,9.7718 C108.3391,9.7018 108.3491,9.5718 108.2991,9.4818 C107.9391,8.7018 106.2591,9.1218 106.5091,7.9518 C106.6391,7.3318 106.9791,6.7018 107.3291,6.1718 C107.8191,5.4318 108.4691,4.8018 109.1691,4.2418 C111.3091,2.5118 113.8991,1.8918 116.5691,1.6418 C119.1091,1.3918 121.5291,1.9618 123.7591,3.1818 C125.5491,4.1618 126.9391,5.5318 127.5191,7.5718 C128.3391,10.5018 128.0791,13.5918 127.7291,16.5818 C127.6791,16.9818 127.4891,20.2118 127.2691,20.3018" id="Fill-111" fill="#FBB016" mask="url(#mask-2)"></path>
            </g>
        </g>
    </g>
</svg>