<?xml version="1.0" encoding="utf-8"?>
<!-- Generator: Adobe Illustrator 19.0.0, SVG Export Plug-In . SVG Version: 6.00 Build 0)  -->
<svg version="1.1" id="Layer_1" xmlns="http://www.w3.org/2000/svg" xmlns:xlink="http://www.w3.org/1999/xlink" x="0px" y="0px"
	 viewBox="-343 345 512 512" style="enable-background:new -343 345 512 512;" xml:space="preserve">
<style type="text/css">
	.st0{fill:#FBDA82;}
</style>
<path class="st0" d="M90.5,490.6L-83.9,389.9c-1.9-1.1-4.2-1.1-6.1,0l-174.4,100.7c-1.9,1.1-3.1,3.1-3.1,5.3v201.4
	c0,2.2,1.2,4.2,3.1,5.3l174.3,100.7c1.9,1.1,4.2,1.1,6.1,0L90.4,702.6c1.9-1.1,3.1-3.1,3.1-5.3V495.9
	C93.5,493.7,92.3,491.7,90.5,490.6z M14.5,460.8l-162.2,93.6l-32.3-18.6l162.2-93.6L14.5,460.8z M-154.1,564.9v99.9l-12.3-14
	c-1.8-2-4.6-2.6-7.1-1.6l-12.8,5.2v-108L-154.1,564.9z M-87,402.3l57,32.9l-162.2,93.6l-57-32.9L-87,402.3z M-93.1,787.4
	l-162.2-93.6V506.5l56.7,32.9v124.1c0.1,3.5,3.1,6.2,6.6,6.1c0.7,0,1.4-0.2,2.1-0.5l17.1-7.1l20.2,22.9c2.2,2.5,6.1,2.8,8.6,0.5
	c1.3-1.2,2.1-2.8,2.1-4.6V571.9l48.8,28.2C-93.1,600.1-93.1,787.4-93.1,787.4z M-87,589.5l-48.5-28l162.2-93.6l48.5,28L-87,589.5z
	 M81.3,693.8l-162.2,93.6V600.1l162.2-93.6V693.8z"/>
</svg>
